<svg width="41" height="41" viewBox="0 0 41 41" fill="none" xmlns="http://www.w3.org/2000/svg">
<path d="M33.4549 8.66089H4.36963V25.3639H33.4549V8.66089Z" fill="#D1D3D4"/>
<path d="M34.6634 6.97461H5.57812V25.364H34.6634V6.97461Z" fill="#E6E7E8"/>
<path d="M35.8721 4.08374H6.78687V25.2838H35.8721V4.08374Z" fill="#F1F2F2"/>
<path d="M35.8721 4.08374H6.78687V25.2838H35.8721V4.08374Z" fill="#F1F2F2"/>
<path d="M3 25.364H37" stroke="#414042" stroke-width="3.90359" stroke-miterlimit="10"/>
<path d="M17.0339 7.48486H8.66675V14.088H17.0339V7.48486Z" fill="#BCBEC0"/>
<path d="M18.2424 8.06274H32.4667" stroke="#BCBEC0" stroke-width="0.663231" stroke-miterlimit="10"/>
<path d="M18.2424 10.7599H32.4667" stroke="#BCBEC0" stroke-width="0.663231" stroke-miterlimit="10"/>
<path d="M18.2424 13.4569H32.4667" stroke="#BCBEC0" stroke-width="0.663231" stroke-miterlimit="10"/>
<path d="M8.66675 16.1538H32.4668" stroke="#BCBEC0" stroke-width="0.663231" stroke-miterlimit="10"/>
<path d="M8.66675 18.851H32.4668" stroke="#BCBEC0" stroke-width="0.663231" stroke-miterlimit="10"/>
<path d="M8.66675 21.5481H32.4668" stroke="#BCBEC0" stroke-width="0.663231" stroke-miterlimit="10"/>
<path d="M19.0172 16.5686H16.6001V22.5914H19.0172V16.5686Z" fill="#414042"/>
<path d="M22.4815 13.5975H20.0645V22.5915H22.4815V13.5975Z" fill="#414042"/>
<path d="M25.8653 8.61865H23.4482V22.6717H25.8653V8.61865Z" fill="#414042"/>
<path d="M21.6321 1.39937L23.0008 1L23.4001 2.48336" stroke="#414042" stroke-width="0.406864" stroke-miterlimit="10" stroke-linecap="square"/>
<path d="M8.66675 13.97H9.35952L10.2255 10.8012L11.0914 12.5029L13.112 7.63237L15.2481 12.3269L22.8108 1.2948" stroke="#414042" stroke-width="0.408747" stroke-miterlimit="10"/>
<path d="M7.48978 39.5455L7 38.3403C7.5506 38.152 7.99556 37.9448 8.33489 37.7189C8.68063 37.4929 8.93347 37.2512 9.09361 36.9939C9.25998 36.7366 9.34327 36.4697 9.34327 36.1935C9.34327 36.0178 9.31769 35.8358 9.26643 35.6475C9.21517 35.4528 9.1416 35.2488 9.04552 35.0354C8.95588 34.822 8.84711 34.5991 8.71901 34.3669L9.97706 33.7737C10.2011 34.1943 10.3741 34.596 10.4956 34.9789C10.6237 35.3619 10.6878 35.7196 10.6878 36.0523C10.6878 36.3598 10.6461 36.6549 10.5629 36.9374C10.4861 37.2198 10.3645 37.4834 10.198 37.7283C10.0379 37.9793 9.82982 38.2148 9.5737 38.4345C9.31769 38.6542 9.01676 38.855 8.67102 39.0371C8.32528 39.2254 7.93153 39.3949 7.48978 39.5455ZM14.406 37.427C13.8106 37.427 13.3496 37.3674 13.0231 37.2481C12.703 37.1288 12.4789 36.9436 12.3508 36.6926C12.2228 36.4352 12.1492 36.112 12.13 35.7227L11.9283 30.4877H13.2729L13.4745 35.0919C13.4873 35.3806 13.5193 35.5972 13.5705 35.7416C13.6218 35.8859 13.7178 35.9832 13.8587 36.0335C14.0059 36.0837 14.2204 36.1088 14.5021 36.1088C14.7454 36.1088 14.9182 36.1715 15.0206 36.2971C15.1295 36.4163 15.1839 36.567 15.1839 36.7491C15.1839 36.9436 15.1167 37.1068 14.9823 37.2387C14.8478 37.3643 14.6557 37.427 14.406 37.427ZM14.5152 37.427L14.6111 36.1088C14.8545 36.1088 15.0465 36.0869 15.1874 36.0429C15.3347 35.999 15.4499 35.9111 15.5331 35.7793C15.6227 35.6411 15.6964 35.4403 15.754 35.1767C15.818 34.913 15.882 34.5615 15.946 34.1221L17.2041 34.3292C17.1913 34.4234 17.1721 34.5332 17.1465 34.6588C17.1272 34.7843 17.1081 34.913 17.0889 35.0448C17.0761 35.1703 17.0696 35.2896 17.0696 35.4026C17.0696 35.5533 17.1017 35.682 17.1657 35.7886C17.2361 35.8891 17.3578 35.9676 17.5306 36.0241C17.7099 36.0806 17.966 36.1088 18.2989 36.1088C18.5422 36.1088 18.7151 36.1715 18.8175 36.2971C18.9199 36.4163 18.9712 36.567 18.9712 36.7491C18.9712 36.9436 18.904 37.1068 18.7695 37.2387C18.6414 37.3643 18.4525 37.427 18.2029 37.427C17.7611 37.427 17.4026 37.3862 17.1272 37.3046C16.852 37.223 16.6471 37.0849 16.5127 36.8903C16.3782 36.6957 16.2918 36.429 16.2533 36.09H16.7144C16.5991 36.3912 16.4646 36.6329 16.311 36.815C16.1573 36.9908 15.9845 37.1226 15.7923 37.2105C15.6003 37.2984 15.3954 37.3548 15.1778 37.3799C14.9665 37.4113 14.7456 37.427 14.5152 37.427ZM16.2246 39.5926C16.0388 39.5926 15.8788 39.5298 15.7444 39.4043C15.6163 39.2788 15.5523 39.125 15.5523 38.9429C15.5523 38.7608 15.6163 38.6008 15.7444 38.4627C15.8788 38.3309 16.0388 38.2649 16.2246 38.2649C16.4102 38.2649 16.567 38.3309 16.6951 38.4627C16.8296 38.6008 16.8968 38.7608 16.8968 38.9429C16.8968 39.125 16.8296 39.2788 16.6951 39.4043C16.567 39.5298 16.4102 39.5926 16.2246 39.5926ZM18.2969 37.427L18.3929 36.1088C18.7386 36.1088 19.0812 36.09 19.4205 36.0523C19.7598 36.0146 20.0896 35.9582 20.4096 35.8828C20.7298 35.8075 21.0339 35.7102 21.3219 35.5909C21.6165 35.4717 21.8918 35.3273 22.1479 35.1578C21.9558 35.0448 21.7477 34.9475 21.5236 34.866C21.2995 34.7843 21.0595 34.7247 20.8034 34.687C20.5537 34.6431 20.288 34.6211 20.0063 34.6211C19.9039 34.6211 19.795 34.6243 19.6798 34.6305C19.5709 34.6368 19.4589 34.6494 19.3436 34.6682C19.2284 34.6808 19.1132 34.6995 18.9979 34.7247L18.8058 33.4348C18.9916 33.3845 19.1868 33.35 19.3916 33.3312C19.6029 33.3061 19.7886 33.2935 19.9487 33.2935C20.2944 33.2935 20.6113 33.3312 20.8995 33.4065C21.1939 33.4818 21.4628 33.5759 21.7062 33.689C21.9558 33.802 22.1863 33.9149 22.3976 34.0279C22.6153 34.1409 22.8201 34.235 23.0122 34.3104C23.2107 34.3857 23.4028 34.4234 23.5884 34.4234H23.9438L24.0974 35.6757C23.8221 35.6882 23.5628 35.7416 23.3195 35.8358C23.0826 35.9237 22.8457 36.0366 22.6089 36.1747C22.3783 36.3065 22.1287 36.4446 21.8598 36.589C21.5973 36.7333 21.2995 36.8684 20.9667 36.9939C20.6337 37.1194 20.2496 37.223 19.8142 37.3046C19.3788 37.3862 18.8731 37.427 18.2969 37.427ZM19.9583 32.4178C19.7598 32.4178 19.5901 32.3519 19.4493 32.2201C19.3149 32.0883 19.2477 31.9251 19.2477 31.7305C19.2477 31.5359 19.3149 31.3696 19.4493 31.2314C19.5901 31.0934 19.7598 31.0244 19.9583 31.0244C20.1504 31.0244 20.3137 31.0934 20.4481 31.2314C20.5889 31.3696 20.6593 31.5359 20.6593 31.7305C20.6593 31.9251 20.5889 32.0883 20.4481 32.2201C20.3137 32.3519 20.1504 32.4178 19.9583 32.4178ZM28.2164 32.3331C28.2164 32.126 28.2036 31.9188 28.178 31.7117C28.1588 31.5045 28.1331 31.31 28.1012 31.1279C28.0692 30.9396 28.0403 30.7764 28.0147 30.6382L29.3593 30.4499C29.3848 30.5755 29.4104 30.7419 29.436 30.949C29.4617 31.1562 29.4841 31.3758 29.5032 31.6081C29.5225 31.8341 29.5321 32.0507 29.5321 32.2578C29.5321 32.5842 29.5032 32.8918 29.4456 33.1805C29.388 33.4693 29.3016 33.7424 29.1863 33.9997C29.0711 34.2508 28.9271 34.4925 28.7542 34.7247L28.5813 34.9506C28.4148 35.1516 28.2196 35.3493 27.9955 35.5438C27.7779 35.7385 27.5377 35.9268 27.2753 36.1088H27.8995C28.1172 36.1088 28.2837 36.0962 28.3989 36.0711C28.5141 36.046 28.5909 36.0115 28.6294 35.9676C28.6742 35.9173 28.6966 35.8609 28.6966 35.798C28.6966 35.6851 28.5974 35.5188 28.3989 35.2991C28.2004 35.073 27.9251 34.8157 27.5729 34.527C27.2208 34.2319 26.8079 33.9212 26.3341 33.5948C25.8667 33.2621 25.3609 32.9295 24.8168 32.5967L25.5178 31.5893C26.2733 32.0476 26.9103 32.4681 27.429 32.851C27.9539 33.2338 28.3829 33.5823 28.7158 33.8961C29.0551 34.21 29.3176 34.4956 29.5032 34.7529C29.6889 35.0103 29.817 35.2426 29.8875 35.4497C29.9578 35.6506 29.9931 35.8326 29.9931 35.9958C29.9931 36.1779 29.9642 36.3536 29.9066 36.5231C29.849 36.6863 29.7562 36.8338 29.6282 36.9656C29.5001 37.0912 29.3336 37.1916 29.1287 37.267C28.9239 37.3423 28.6709 37.3799 28.37 37.3799H25.5466V36.1182C26.2061 35.6537 26.7278 35.2143 27.112 34.8001C27.5025 34.3857 27.7842 33.9777 27.9571 33.5759C28.13 33.1743 28.2164 32.7599 28.2164 32.3331ZM24.7303 31.448L24.5671 30.7889C24.7912 30.7513 24.9576 30.7199 25.0664 30.6948C25.1816 30.6696 25.3033 30.6415 25.4314 30.6101L25.3353 30.8454C25.1689 30.7889 25.0088 30.6791 24.8551 30.5159C24.7079 30.3464 24.6343 30.155 24.6343 29.9415C24.6343 29.7156 24.6855 29.5335 24.7879 29.3955C24.8904 29.2573 25.0216 29.1569 25.1816 29.0941C25.3418 29.0313 25.5083 29 25.6811 29C25.7771 29 25.8667 29.0062 25.95 29.0188C26.0396 29.0313 26.1196 29.0502 26.19 29.0752L26.1132 29.7532C26.0492 29.7407 25.9852 29.7281 25.9211 29.7156C25.8572 29.703 25.7867 29.6967 25.7099 29.6967C25.6266 29.6967 25.5498 29.725 25.4794 29.7815C25.4154 29.8317 25.3833 29.8945 25.3833 29.9698C25.3833 30.0764 25.4218 30.1706 25.4986 30.2522C25.5755 30.3339 25.6651 30.3998 25.7675 30.4499C25.8763 30.4939 25.9659 30.5191 26.0364 30.5253L25.5083 30.5818C25.6811 30.5378 25.8443 30.4939 25.998 30.4499C26.1517 30.3998 26.2957 30.3495 26.4302 30.2994L26.6222 30.9302C26.4622 30.9867 26.2733 31.0495 26.0556 31.1185C25.8443 31.1813 25.6235 31.2409 25.3929 31.2974C25.1689 31.3538 24.948 31.4041 24.7303 31.448ZM31.6555 37.3799L31.4538 30.4877H32.7983L33 37.3799H31.6555Z" fill="#FEFEFE"/>
</svg>
