<svg width="41" height="41" viewBox="0 0 41 41" fill="none" xmlns="http://www.w3.org/2000/svg">
<path d="M20.7173 3.51929L20.0475 4.13552L14.2424 9.43381L10.8263 6.337L5.05289 11.3457H4.46635H3.58654H3.8269V12.3174H3H4.17308H5.34616L10.8129 7.52259L14.2469 10.6328L20.6459 4.78748L21.3157 4.17125C21.0608 4.01229 20.8539 3.78691 20.7173 3.51929Z" fill="#F1F2F2"/>
<path d="M32.3075 1.52954V2.42264H36.3085L29.5835 8.67431L25.156 4.07263L24.5219 3.40281C24.3688 3.6642 24.1472 3.87882 23.8811 4.02351L24.513 4.67994L29.5456 9.91125L36.9337 3.05674V6.61126H37.8268V1.52954H32.3075ZM36.9359 2.50078L36.8623 2.42264H36.9359V2.50302V2.50078Z" fill="#F1F2F2"/>
<path d="M23.0864 0C22.7488 0.000585028 22.4147 0.067727 22.1031 0.197584C21.7915 0.327442 21.5086 0.517466 21.2705 0.756783C21.0324 0.996099 20.8439 1.28001 20.7157 1.59227C20.5874 1.90453 20.522 2.23902 20.5232 2.57658C20.5224 3.04131 20.6481 3.49748 20.887 3.89614C21.1258 4.29479 21.4687 4.62088 21.8789 4.83938C22.289 5.05788 22.7509 5.16056 23.215 5.13638C23.6791 5.1122 24.1279 4.96209 24.5131 4.70215C24.7634 4.53698 24.9814 4.32737 25.1561 4.08368C25.4778 3.64711 25.6507 3.11882 25.6496 2.57658C25.6508 2.23902 25.5854 1.90453 25.4571 1.59227C25.3289 1.28001 25.1403 0.996099 24.9023 0.756783C24.6642 0.517466 24.3813 0.327442 24.0697 0.197584C23.7581 0.067727 23.424 0.000585028 23.0864 0ZM24.522 3.41386C24.3699 3.67157 24.1512 3.88359 23.8888 4.02768C23.6265 4.17178 23.3303 4.24263 23.0311 4.23281C22.732 4.22299 22.441 4.13286 22.1887 3.97188C21.9364 3.8109 21.7321 3.58499 21.5972 3.31785C21.4795 3.0884 21.4175 2.83445 21.4163 2.57658C21.4163 2.13246 21.5927 1.70653 21.9068 1.39249C22.2208 1.07845 22.6467 0.902027 23.0909 0.902027C23.535 0.902027 23.9609 1.07845 24.2749 1.39249C24.589 1.70653 24.7654 2.13246 24.7654 2.57658C24.7609 2.87246 24.6769 3.16168 24.522 3.41386Z" fill="#F1F2F2"/>
<path d="M10.344 11.5544H9.45093V23.0129H10.344V11.5544Z" fill="#F1F2F2"/>
<path d="M15.6199 12.2913H14.7268V23.0129H15.6199V12.2913Z" fill="#F1F2F2"/>
<path d="M26.1719 8.59607H25.2788V23.0151H26.1719V8.59607Z" fill="#F1F2F2"/>
<path d="M20.896 8.59607H20.0029V23.0151H20.896V8.59607Z" fill="#F1F2F2"/>
<path d="M31.448 11.2262H30.5549V23.0151H31.448V11.2262Z" fill="#F1F2F2"/>
<path d="M37 24H4V27H37V24Z" fill="#F1F2F2"/>
<path d="M4.81615 36.8662L5.04875 35.6137C5.62726 35.6137 6.13123 35.5989 6.56066 35.569C6.99008 35.5332 7.34494 35.4826 7.62525 35.4169C7.91153 35.3454 8.12326 35.253 8.26043 35.1396C8.40357 35.0263 8.47514 34.8891 8.47514 34.7281C8.47514 34.5134 8.43935 34.2569 8.36779 33.9587C8.29622 33.6546 8.20377 33.3473 8.09046 33.0373L9.2624 32.6973C9.33994 32.9001 9.41449 33.1237 9.48606 33.3682C9.55763 33.6068 9.61429 33.8483 9.65604 34.0929C9.70375 34.3315 9.7276 34.5551 9.7276 34.7639C9.7276 35.1336 9.64709 35.4527 9.48606 35.7211C9.32503 35.9836 9.05665 36.2012 8.6809 36.3742C8.31113 36.5412 7.81014 36.6635 7.17794 36.741C6.54575 36.8245 5.75848 36.8662 4.81615 36.8662ZM4.8072 36.8662C4.16307 36.8662 3.61735 36.8155 3.17005 36.7141C2.7287 36.6187 2.36788 36.4815 2.08756 36.3026C1.81321 36.1177 1.61341 35.903 1.48816 35.6584C1.36292 35.414 1.30029 35.1455 1.30029 34.8533C1.30029 34.6625 1.3152 34.4716 1.34502 34.2808C1.38081 34.084 1.42256 33.8931 1.47027 33.7082C1.52395 33.5233 1.57166 33.3563 1.61341 33.2072L2.73168 33.4667C2.70783 33.574 2.68099 33.6903 2.65117 33.8155C2.62135 33.9408 2.59749 34.0631 2.5796 34.1823C2.56171 34.2957 2.55276 34.4 2.55276 34.4955C2.55276 34.7161 2.6303 34.913 2.78536 35.086C2.94639 35.253 3.20882 35.3841 3.57263 35.4795C3.93644 35.569 4.42549 35.6137 5.03981 35.6137L5.21873 36.58L4.8072 36.8662ZM6.28333 32.7778C6.11036 32.7778 5.96126 32.7181 5.83601 32.5989C5.71673 32.4736 5.65709 32.3275 5.65709 32.1605C5.65709 31.9875 5.71673 31.8384 5.83601 31.7132C5.96126 31.5879 6.11036 31.5253 6.28333 31.5253C6.45031 31.5253 6.59345 31.5879 6.71274 31.7132C6.83202 31.8384 6.89166 31.9875 6.89166 32.1605C6.89166 32.3275 6.83202 32.4736 6.71274 32.5989C6.59345 32.7181 6.45031 32.7778 6.28333 32.7778ZM4.73563 32.7689C4.56267 32.7689 4.41357 32.7092 4.28832 32.5899C4.16904 32.4647 4.1094 32.3186 4.1094 32.1516C4.1094 31.9787 4.16904 31.8295 4.28832 31.7042C4.41357 31.579 4.56267 31.5164 4.73563 31.5164C4.90262 31.5164 5.04576 31.579 5.16504 31.7042C5.28433 31.8295 5.34397 31.9787 5.34397 32.1516C5.34397 32.3186 5.28433 32.4647 5.16504 32.5899C5.04576 32.7092 4.90262 32.7689 4.73563 32.7689ZM13.1041 36.7231C12.5494 36.7231 12.12 36.6664 11.8157 36.5531C11.5176 36.4398 11.3088 36.2638 11.1896 36.0253C11.0702 35.7807 11.0017 35.4736 10.9838 35.1038L10.7959 30.1298H12.0484L12.2363 34.5044C12.2482 34.7787 12.278 34.9845 12.3257 35.1217C12.3734 35.2589 12.4629 35.3513 12.5941 35.3991C12.7313 35.4467 12.9311 35.4707 13.1935 35.4707C13.4201 35.4707 13.5811 35.5302 13.6765 35.6496C13.778 35.7628 13.8287 35.906 13.8287 36.079C13.8287 36.2638 13.7661 36.4189 13.6408 36.5441C13.5156 36.6635 13.3366 36.7231 13.1041 36.7231ZM13.2057 36.7231L13.2951 35.4707C13.5098 35.4707 13.6948 35.4498 13.8497 35.408C14.0048 35.3663 14.1361 35.2828 14.2434 35.1575C14.3507 35.0263 14.4402 34.8355 14.5118 34.585C14.5893 34.3345 14.658 34.0005 14.7175 33.583L15.8895 33.7798C15.8776 33.8692 15.8597 33.9736 15.8358 34.0929C15.818 34.2122 15.8001 34.3345 15.7821 34.4597C15.7702 34.579 15.7642 34.6923 15.7642 34.7996C15.7642 34.907 15.7851 35.0025 15.8268 35.086C15.8686 35.1695 15.9343 35.241 16.0237 35.3006C16.1191 35.3543 16.2414 35.396 16.3905 35.4259C16.5456 35.4557 16.7334 35.4707 16.9541 35.4707C17.1808 35.4707 17.3417 35.5302 17.4372 35.6496C17.5327 35.7628 17.5803 35.906 17.5803 36.079C17.5803 36.2638 17.5177 36.4189 17.3925 36.5441C17.2732 36.6635 17.0973 36.7231 16.8647 36.7231C16.5963 36.7231 16.3518 36.7022 16.131 36.6604C15.9164 36.6187 15.7285 36.5502 15.5675 36.4547C15.4124 36.3533 15.2841 36.2221 15.1828 36.0611C15.0874 35.8941 15.0277 35.6913 15.0039 35.4527H15.4333C15.3259 35.739 15.1887 35.9686 15.0217 36.1416C14.8607 36.3086 14.6788 36.4339 14.476 36.5174C14.2732 36.6009 14.0615 36.6545 13.8408 36.6784C13.6261 36.7082 13.4144 36.7231 13.2057 36.7231ZM15.7016 38.7986C15.5287 38.7986 15.3796 38.736 15.2544 38.6108C15.135 38.4914 15.0754 38.3483 15.0754 38.1813C15.0754 38.0083 15.135 37.8593 15.2544 37.734C15.3796 37.6088 15.5287 37.5461 15.7016 37.5461C15.8686 37.5461 16.0118 37.6088 16.131 37.734C16.2503 37.8593 16.31 38.0083 16.31 38.1813C16.31 38.3483 16.2503 38.4914 16.131 38.6108C16.0118 38.736 15.8686 38.7986 15.7016 38.7986ZM14.1539 38.7986C13.981 38.7986 13.8319 38.736 13.7067 38.6108C13.5873 38.4914 13.5278 38.3483 13.5278 38.1813C13.5278 38.0083 13.5873 37.8593 13.7067 37.734C13.8319 37.6088 13.981 37.5461 14.1539 37.5461C14.3209 37.5461 14.4641 37.6088 14.5833 37.734C14.7027 37.8593 14.7623 38.0083 14.7623 38.1813C14.7623 38.3483 14.7027 38.4914 14.5833 38.6108C14.4641 38.736 14.3209 38.7986 14.1539 38.7986ZM21.5898 36.8393C21.0352 36.8393 20.573 36.8155 20.2032 36.7679C19.8394 36.7201 19.5442 36.6515 19.3175 36.5621C19.0908 36.4726 18.9119 36.3652 18.7808 36.24C18.6495 36.1147 18.5422 35.9776 18.4587 35.8285L18.7092 35.7569C18.56 36.0431 18.3901 36.2549 18.1992 36.3921C18.0084 36.5293 17.8086 36.6187 17.5999 36.6604C17.3911 36.7022 17.1764 36.7231 16.9557 36.7231L17.0452 35.4707C17.23 35.4707 17.3762 35.4408 17.4836 35.3812C17.5909 35.3215 17.6774 35.2231 17.7429 35.086C17.8145 34.9488 17.8801 34.7668 17.9398 34.5403C17.9994 34.3136 18.071 34.0362 18.1545 33.7082L19.2906 33.9856C19.2489 34.1466 19.2131 34.2867 19.1833 34.406C19.1595 34.5253 19.1386 34.6297 19.1207 34.7192C19.1088 34.8027 19.1028 34.8712 19.1028 34.9249C19.1028 35.0382 19.1296 35.1396 19.1833 35.229C19.237 35.3125 19.3413 35.3812 19.4964 35.4348C19.6515 35.4826 19.8781 35.5213 20.1763 35.5511C20.4805 35.5749 20.8771 35.587 21.3662 35.587C21.885 35.587 22.3175 35.569 22.6634 35.5332C23.0093 35.4915 23.2836 35.4348 23.4865 35.3632C23.6951 35.2857 23.8443 35.1933 23.9337 35.086C24.0232 34.9726 24.0679 34.8444 24.0679 34.7013C24.0679 34.5879 24.0411 34.4835 23.9874 34.3881C23.9397 34.2867 23.8592 34.2032 23.7458 34.1376C23.6326 34.0721 23.4865 34.0393 23.3075 34.0393C23.0928 34.0393 22.8751 34.0929 22.6544 34.2003C22.4397 34.3017 22.228 34.4388 22.0192 34.6117C21.8105 34.7787 21.6107 34.9666 21.4199 35.1754C21.235 35.3841 21.068 35.5929 20.9189 35.8016L19.577 35.6496C19.8096 35.2738 20.072 34.913 20.3642 34.567C20.6565 34.2211 20.9696 33.917 21.3036 33.6546C21.6376 33.3861 21.9835 33.1744 22.3413 33.0194C22.6991 32.8643 23.063 32.7868 23.4327 32.7868C23.8324 32.7868 24.1723 32.8643 24.4526 33.0194C24.733 33.1744 24.9476 33.3891 25.0968 33.6635C25.2459 33.9378 25.3204 34.2539 25.3204 34.6117C25.3204 35.0472 25.1952 35.4319 24.9447 35.7659C24.7002 36.0999 24.3036 36.3623 23.7548 36.5531C23.2121 36.7439 22.4904 36.8393 21.5898 36.8393ZM26.2654 38.736L26.0059 37.4835C26.4294 37.4298 26.7992 37.3643 27.1153 37.2867C27.4314 37.2151 27.6968 37.1138 27.9116 36.9825C28.1262 36.8514 28.2872 36.6723 28.3946 36.4458C28.502 36.2132 28.5556 35.9149 28.5556 35.5511C28.5556 35.1993 28.502 34.919 28.3946 34.7102C28.2872 34.5015 28.1441 34.3971 27.9652 34.3971C27.84 34.3971 27.7356 34.4418 27.6521 34.5313C27.5686 34.6148 27.506 34.7161 27.4642 34.8355C27.4284 34.9488 27.4106 35.0501 27.4106 35.1396C27.4106 35.1933 27.4254 35.2499 27.4553 35.3096C27.4851 35.3692 27.5507 35.42 27.6521 35.4617C27.7534 35.5035 27.9116 35.5273 28.1262 35.5332C28.3469 35.5392 28.6451 35.5183 29.0209 35.4707H30.5238C30.7504 35.4707 30.9114 35.5302 31.0069 35.6496C31.1083 35.7628 31.159 35.906 31.159 36.079C31.159 36.2638 31.0964 36.4189 30.9711 36.5441C30.8459 36.6635 30.6669 36.7231 30.4344 36.7231H27.9742C27.5984 36.7231 27.2764 36.6784 27.0079 36.5889C26.7395 36.4994 26.5338 36.3563 26.3907 36.1594C26.2475 35.9567 26.176 35.6883 26.176 35.3543C26.176 35.086 26.2207 34.8175 26.3101 34.5491C26.4056 34.2808 26.5368 34.0362 26.7038 33.8155C26.8708 33.589 27.0647 33.41 27.2853 33.2788C27.5119 33.1416 27.7565 33.073 28.0189 33.073C28.3767 33.073 28.6898 33.1834 28.9583 33.4041C29.2266 33.6247 29.4353 33.917 29.5844 34.2808C29.7395 34.6446 29.8171 35.0412 29.8171 35.4707C29.8171 36.1446 29.6739 36.7171 29.3877 37.1883C29.1013 37.6595 28.6928 38.0233 28.162 38.2797C27.6312 38.5421 26.999 38.6943 26.2654 38.736ZM30.5364 36.7231L30.626 35.4707C30.8406 35.4707 31.0255 35.4498 31.1806 35.408C31.3356 35.3663 31.4669 35.2828 31.5742 35.1575C31.6816 35.0263 31.771 34.8355 31.8426 34.585C31.9201 34.3345 31.9887 34.0005 32.0484 33.583L33.2203 33.7798C33.2084 33.8692 33.1905 33.9736 33.1667 34.0929C33.1488 34.2122 33.1308 34.3345 33.1129 34.4597C33.101 34.579 33.0951 34.6923 33.0951 34.7996C33.0951 34.907 33.116 35.0025 33.1577 35.086C33.1995 35.1695 33.265 35.241 33.3545 35.3006C33.45 35.3543 33.5722 35.396 33.7213 35.4259C33.8763 35.4557 34.0642 35.4707 34.2849 35.4707C34.5115 35.4707 34.6726 35.5302 34.768 35.6496C34.8634 35.7628 34.9111 35.906 34.9111 36.079C34.9111 36.2638 34.8485 36.4189 34.7232 36.5441C34.604 36.6635 34.428 36.7231 34.1955 36.7231C33.927 36.7231 33.6825 36.7022 33.4619 36.6604C33.2471 36.6187 33.0593 36.5502 32.8983 36.4547C32.7432 36.3533 32.615 36.2221 32.5136 36.0611C32.4181 35.8941 32.3585 35.6913 32.3346 35.4527H32.7641C32.6567 35.739 32.5196 35.9686 32.3526 36.1416C32.1915 36.3086 32.0096 36.4339 31.8069 36.5174C31.604 36.6009 31.3923 36.6545 31.1717 36.6784C30.9569 36.7082 30.7452 36.7231 30.5364 36.7231ZM33.4082 32.7778C33.2352 32.7778 33.0861 32.7181 32.9609 32.5989C32.8415 32.4736 32.782 32.3275 32.782 32.1605C32.782 31.9875 32.8415 31.8384 32.9609 31.7132C33.0861 31.5879 33.2352 31.5253 33.4082 31.5253C33.5752 31.5253 33.7183 31.5879 33.8376 31.7132C33.9569 31.8384 34.0165 31.9875 34.0165 32.1605C34.0165 32.3275 33.9569 32.4736 33.8376 32.5989C33.7183 32.7181 33.5752 32.7778 33.4082 32.7778ZM31.8605 32.7689C31.6875 32.7689 31.5384 32.7092 31.4132 32.5899C31.2939 32.4647 31.2343 32.3186 31.2343 32.1516C31.2343 31.9787 31.2939 31.8295 31.4132 31.7042C31.5384 31.579 31.6875 31.5164 31.8605 31.5164C32.0275 31.5164 32.1706 31.579 32.2899 31.7042C32.4092 31.8295 32.4688 31.9787 32.4688 32.1516C32.4688 32.3186 32.4092 32.4647 32.2899 32.5899C32.1706 32.7092 32.0275 32.7689 31.8605 32.7689ZM34.2865 36.7231L34.376 35.4707C34.6503 35.4707 34.8471 35.4438 34.9664 35.3901C35.0857 35.3304 35.1573 35.2231 35.1811 35.068C35.205 34.907 35.211 34.6744 35.1991 34.3702L35.038 30.1298H36.2994L36.4783 34.4597C36.4903 34.8056 36.4754 35.1187 36.4336 35.3991C36.3978 35.6734 36.3053 35.9089 36.1563 36.1058C36.0131 36.3026 35.7895 36.4547 35.4853 36.5621C35.1871 36.6694 34.7875 36.7231 34.2865 36.7231ZM37.7476 36.6784L37.5597 30.1298H38.8121L39 36.6784H37.7476Z" fill="#FEFEFE"/>
</svg>
