<svg width="240" height="282" viewBox="0 0 240 282" fill="none" xmlns="http://www.w3.org/2000/svg">
<defs>
<linearGradient id="paint0_linear_229_342" x1="202.977" y1="144.08" x2="112.432" y2="179.152" gradientUnits="userSpaceOnUse">
<stop stop-color="#2FD6DB" stop-opacity="0.683578"/>
<stop stop-color="#4CDB2F" stop-opacity="0.683578"/>
<stop stop-color="#4CDB2F" stop-opacity="0.683578"/>
<stop offset="0.0001" stop-color="#4CDB2F" stop-opacity="0.683578"/>
<stop offset="0.0625" stop-color="#4CDB2F" stop-opacity="0.683578"/>
<stop offset="0.109275" stop-color="#4CDB2F" stop-opacity="0.683578"/>
<stop offset="0.135417" stop-color="#4CDB2F" stop-opacity="0.966764"/>
<stop offset="0.171775" stop-color="#4CDB2F" stop-opacity="0.860207"/>
<stop offset="0.171875" stop-color="#4CDB2F" stop-opacity="0.817584"/>
<stop offset="0.244792" stop-color="#4CDB2F"/>
<stop offset="0.294051" stop-color="#4CDB2F" stop-opacity="0.978777"/>
<stop offset="0.347013" stop-color="#4CDB2F" stop-opacity="0.955958"/>
<stop offset="0.416667" stop-color="#4CDB2F" stop-opacity="0.925948"/>
<stop offset="0.453025" stop-color="#4CDB2F" stop-opacity="0.936724"/>
<stop offset="0.453125" stop-color="#4CDB2F" stop-opacity="0.819213"/>
<stop offset="0.537248" stop-color="#4CDB2F" stop-opacity="0.711896"/>
<stop offset="0.614749" stop-color="#4CDB2F" stop-opacity="0.613027"/>
<stop offset="0.65625" stop-color="#4CDB2F" stop-opacity="0.560084"/>
<stop offset="0.708333" stop-color="#4CDB2F" stop-opacity="0.523927"/>
<stop offset="0.757713" stop-color="#4CDB2F" stop-opacity="0.466792"/>
<stop offset="0.789192" stop-color="#4CDB2F" stop-opacity="0.43037"/>
<stop offset="0.826047" stop-color="#4CDB2F" stop-opacity="0.387727"/>
<stop offset="0.86134" stop-color="#4CDB2F" stop-opacity="0.346892"/>
<stop offset="0.911458" stop-color="#4CDB2F" stop-opacity="0.288903"/>
<stop offset="0.9997" stop-color="#4CDB2F" stop-opacity="0.857059"/>
<stop offset="0.9998" stop-color="#4CDB2F" stop-opacity="0.435806"/>
<stop offset="0.9999" stop-color="#4CDB2F" stop-opacity="0.550167"/>
<stop offset="0.9999" stop-color="#4CDB2F" stop-opacity="0.128393"/>
<stop offset="1" stop-color="#4CDB2F" stop-opacity="0"/>
</linearGradient>
<linearGradient id="paint1_linear_229_342" x1="150.881" y1="177.827" x2="84.8173" y2="206.658" gradientUnits="userSpaceOnUse">
<stop stop-color="#2FD6DB" stop-opacity="0.683578"/>
<stop stop-color="#4CDB2F" stop-opacity="0.683578"/>
<stop stop-color="#4CDB2F" stop-opacity="0.683578"/>
<stop offset="0.0001" stop-color="#4CDB2F" stop-opacity="0.683578"/>
<stop offset="0.0625" stop-color="#4CDB2F" stop-opacity="0.683578"/>
<stop offset="0.109275" stop-color="#4CDB2F" stop-opacity="0.683578"/>
<stop offset="0.135417" stop-color="#4CDB2F" stop-opacity="0.966764"/>
<stop offset="0.171775" stop-color="#4CDB2F" stop-opacity="0.860207"/>
<stop offset="0.171875" stop-color="#4CDB2F" stop-opacity="0.817584"/>
<stop offset="0.244792" stop-color="#4CDB2F"/>
<stop offset="0.294051" stop-color="#4CDB2F" stop-opacity="0.978777"/>
<stop offset="0.347013" stop-color="#4CDB2F" stop-opacity="0.955958"/>
<stop offset="0.416667" stop-color="#4CDB2F" stop-opacity="0.925948"/>
<stop offset="0.453025" stop-color="#4CDB2F" stop-opacity="0.936724"/>
<stop offset="0.453125" stop-color="#4CDB2F" stop-opacity="0.819213"/>
<stop offset="0.537248" stop-color="#4CDB2F" stop-opacity="0.711896"/>
<stop offset="0.614749" stop-color="#4CDB2F" stop-opacity="0.613027"/>
<stop offset="0.65625" stop-color="#4CDB2F" stop-opacity="0.560084"/>
<stop offset="0.708333" stop-color="#4CDB2F" stop-opacity="0.523927"/>
<stop offset="0.757713" stop-color="#4CDB2F" stop-opacity="0.466792"/>
<stop offset="0.789192" stop-color="#4CDB2F" stop-opacity="0.43037"/>
<stop offset="0.826047" stop-color="#4CDB2F" stop-opacity="0.387727"/>
<stop offset="0.86134" stop-color="#4CDB2F" stop-opacity="0.346892"/>
<stop offset="0.911458" stop-color="#4CDB2F" stop-opacity="0.288903"/>
<stop offset="0.9997" stop-color="#4CDB2F" stop-opacity="0.857059"/>
<stop offset="0.9998" stop-color="#4CDB2F" stop-opacity="0.435806"/>
<stop offset="0.9999" stop-color="#4CDB2F" stop-opacity="0.550167"/>
<stop offset="0.9999" stop-color="#4CDB2F" stop-opacity="0.128393"/>
<stop offset="1" stop-color="#4CDB2F" stop-opacity="0"/>
</linearGradient>
<linearGradient id="paint2_linear_229_342" x1="163.513" y1="179.636" x2="112.255" y2="205.379" gradientUnits="userSpaceOnUse">
<stop stop-color="#2FD6DB" stop-opacity="0.683578"/>
<stop stop-color="#4CDB2F" stop-opacity="0.683578"/>
<stop stop-color="#4CDB2F" stop-opacity="0.683578"/>
<stop offset="0.0001" stop-color="#4CDB2F" stop-opacity="0.683578"/>
<stop offset="0.0625" stop-color="#4CDB2F" stop-opacity="0.683578"/>
<stop offset="0.109275" stop-color="#4CDB2F" stop-opacity="0.683578"/>
<stop offset="0.135417" stop-color="#4CDB2F" stop-opacity="0.966764"/>
<stop offset="0.171775" stop-color="#4CDB2F" stop-opacity="0.860207"/>
<stop offset="0.171875" stop-color="#4CDB2F" stop-opacity="0.817584"/>
<stop offset="0.244792" stop-color="#4CDB2F"/>
<stop offset="0.294051" stop-color="#4CDB2F" stop-opacity="0.978777"/>
<stop offset="0.347013" stop-color="#4CDB2F" stop-opacity="0.955958"/>
<stop offset="0.416667" stop-color="#4CDB2F" stop-opacity="0.925948"/>
<stop offset="0.453025" stop-color="#4CDB2F" stop-opacity="0.936724"/>
<stop offset="0.453125" stop-color="#4CDB2F" stop-opacity="0.819213"/>
<stop offset="0.537248" stop-color="#4CDB2F" stop-opacity="0.711896"/>
<stop offset="0.614749" stop-color="#4CDB2F" stop-opacity="0.613027"/>
<stop offset="0.65625" stop-color="#4CDB2F" stop-opacity="0.560084"/>
<stop offset="0.708333" stop-color="#4CDB2F" stop-opacity="0.523927"/>
<stop offset="0.757713" stop-color="#4CDB2F" stop-opacity="0.466792"/>
<stop offset="0.789192" stop-color="#4CDB2F" stop-opacity="0.43037"/>
<stop offset="0.826047" stop-color="#4CDB2F" stop-opacity="0.387727"/>
<stop offset="0.86134" stop-color="#4CDB2F" stop-opacity="0.346892"/>
<stop offset="0.911458" stop-color="#4CDB2F" stop-opacity="0.288903"/>
<stop offset="0.9997" stop-color="#4CDB2F" stop-opacity="0.857059"/>
<stop offset="0.9998" stop-color="#4CDB2F" stop-opacity="0.435806"/>
<stop offset="0.9999" stop-color="#4CDB2F" stop-opacity="0.550167"/>
<stop offset="0.9999" stop-color="#4CDB2F" stop-opacity="0.128393"/>
<stop offset="1" stop-color="#4CDB2F" stop-opacity="0"/>
</linearGradient>
<linearGradient id="paint3_linear_229_342" x1="178.102" y1="173.162" x2="119.739" y2="200.665" gradientUnits="userSpaceOnUse">
<stop stop-color="#2FD6DB" stop-opacity="0.683578"/>
<stop stop-color="#4CDB2F" stop-opacity="0.683578"/>
<stop stop-color="#4CDB2F" stop-opacity="0.683578"/>
<stop offset="0.0001" stop-color="#4CDB2F" stop-opacity="0.683578"/>
<stop offset="0.0625" stop-color="#4CDB2F" stop-opacity="0.683578"/>
<stop offset="0.109275" stop-color="#4CDB2F" stop-opacity="0.683578"/>
<stop offset="0.135417" stop-color="#4CDB2F" stop-opacity="0.966764"/>
<stop offset="0.171775" stop-color="#4CDB2F" stop-opacity="0.860207"/>
<stop offset="0.171875" stop-color="#4CDB2F" stop-opacity="0.817584"/>
<stop offset="0.244792" stop-color="#4CDB2F"/>
<stop offset="0.294051" stop-color="#4CDB2F" stop-opacity="0.978777"/>
<stop offset="0.347013" stop-color="#4CDB2F" stop-opacity="0.955958"/>
<stop offset="0.416667" stop-color="#4CDB2F" stop-opacity="0.925948"/>
<stop offset="0.453025" stop-color="#4CDB2F" stop-opacity="0.936724"/>
<stop offset="0.453125" stop-color="#4CDB2F" stop-opacity="0.819213"/>
<stop offset="0.537248" stop-color="#4CDB2F" stop-opacity="0.711896"/>
<stop offset="0.614749" stop-color="#4CDB2F" stop-opacity="0.613027"/>
<stop offset="0.65625" stop-color="#4CDB2F" stop-opacity="0.560084"/>
<stop offset="0.708333" stop-color="#4CDB2F" stop-opacity="0.523927"/>
<stop offset="0.757713" stop-color="#4CDB2F" stop-opacity="0.466792"/>
<stop offset="0.789192" stop-color="#4CDB2F" stop-opacity="0.43037"/>
<stop offset="0.826047" stop-color="#4CDB2F" stop-opacity="0.387727"/>
<stop offset="0.86134" stop-color="#4CDB2F" stop-opacity="0.346892"/>
<stop offset="0.911458" stop-color="#4CDB2F" stop-opacity="0.288903"/>
<stop offset="0.9997" stop-color="#4CDB2F" stop-opacity="0.857059"/>
<stop offset="0.9998" stop-color="#4CDB2F" stop-opacity="0.435806"/>
<stop offset="0.9999" stop-color="#4CDB2F" stop-opacity="0.550167"/>
<stop offset="0.9999" stop-color="#4CDB2F" stop-opacity="0.128393"/>
<stop offset="1" stop-color="#4CDB2F" stop-opacity="0"/>
</linearGradient>
</defs>
<path d="M200.833 36.5029H159.295V40.279H200.833V36.5029Z" fill="#F1F2F2"/>
<path d="M91.8551 176.853C93.2165 179.489 92.9606 182.328 91.2835 183.194C89.6063 184.06 87.143 182.626 85.7815 179.991C85.1856 178.837 84.8996 177.644 84.907 176.595L79.2781 165.355L84.609 162.826L89.5921 174.175C90.452 174.776 91.2591 175.7 91.8551 176.853Z" fill="#FFB6B6"/>
<path d="M49.9663 278.27L54.7656 278.269L57.0486 259.758L49.9653 259.758L49.9663 278.27Z" fill="#FFB6B6"/>
<path d="M66.4091 278.161C66.5585 278.413 66.6374 279.225 66.6374 279.518C66.6374 280.417 65.9081 281.147 65.0085 281.147H50.1457C49.532 281.147 49.0345 280.649 49.0345 280.035V279.417C49.0345 279.417 48.2992 277.557 49.813 275.265C49.813 275.265 51.6944 277.059 54.5057 274.248L55.3347 272.746L61.3356 277.135L64.6619 277.545C65.3896 277.634 66.0348 277.531 66.4091 278.161V278.161Z" fill="#2F2E41"/>
<path d="M27.4507 278.27L32.25 278.269L34.533 259.758L27.4497 259.758L27.4507 278.27Z" fill="#FFB6B6"/>
<path d="M43.8935 278.161C44.0429 278.413 44.1217 279.225 44.1217 279.518C44.1217 280.417 43.3925 281.147 42.4929 281.147H27.6301C27.0164 281.147 26.5189 280.649 26.5189 280.035V279.417C26.5189 279.417 25.7836 277.557 27.2974 275.265C27.2974 275.265 29.1788 277.059 31.99 274.248L32.819 272.746L38.82 277.135L42.1463 277.545C42.874 277.634 43.5191 277.531 43.8935 278.161V278.161Z" fill="#2F2E41"/>
<path d="M20.6577 169.048L18.6359 181.403L24.926 221.39L26.4985 269.689H34.9908L39.3033 224.086L38.854 193.983L48.9631 270.138H57.7879L58.6228 174.664L20.6577 169.048Z" fill="#2F2E41"/>
<path d="M31.2158 105.024H47.1144L60.869 113.111C58.7283 112.567 57.0745 132.428 57.0182 149.977C57.0145 151.143 55.8589 152.484 55.8696 153.623C55.8788 154.604 57.0524 155.388 57.0728 156.34C57.0918 157.23 57.1158 158.105 57.145 158.962C57.1692 159.673 55.8382 160.616 55.8696 161.3C55.9097 162.174 57.3144 162.782 57.3666 163.605C57.6873 168.663 58.24 172.671 59.0719 174.664C59.0719 174.664 23.5779 184.548 20.8821 169.272C20.8821 169.272 21.0361 163.782 21.0145 156.199C21.0125 155.527 20.4396 154.916 20.4347 154.213C20.4311 153.69 20.9962 153.081 20.9906 152.543C20.9861 152.101 20.4406 151.711 20.4347 151.26C20.4312 150.992 20.9676 150.666 20.9636 150.394C20.748 135.976 19.7799 117.806 16.3892 113.111L31.2158 105.024V105.024Z" fill="#8CD351"/>
<path d="M46.9412 105.024C46.9412 105.024 57.2432 108.767 60.5121 111.75C62.2491 113.335 73.8986 143.213 73.8986 143.213L90.0793 171.393L81.6686 174.587L64.4635 148.605L56.8256 131.532L46.9412 105.024V105.024Z" fill="#8CD351"/>
<path d="M25.5728 177.919C27.0754 180.477 26.974 183.326 25.3463 184.282C23.7187 185.238 21.1812 183.94 19.6786 181.382C19.0209 180.262 18.6706 179.087 18.621 178.039L12.3901 167.121L17.5758 164.307L23.1678 175.368C24.059 175.922 24.9151 176.8 25.5728 177.919Z" fill="#FFB6B6"/>
<path d="M28.9695 118.952L24.4765 108.618C24.4765 108.618 13.9182 111.988 13.9182 116.93C13.9182 116.93 7.62812 154.67 8.5267 164.105L14.3675 174.439L22.6794 167.924L17.5125 156.018L28.9695 118.952V118.952Z" fill="#8CD351"/>
<path d="M19.7294 186.087L25.0291 175.562L31.216 184.099L25.6478 189.49L19.7294 186.087Z" fill="#2F2E41"/>
<path d="M39.0153 104.494C44.6941 104.494 49.2977 97.4514 49.2977 91.7726C49.2977 86.0938 44.6941 81.4902 39.0153 81.4902C33.3365 81.4902 28.7329 86.0938 28.7329 91.7726C28.7329 97.4514 33.3365 104.494 39.0153 104.494Z" fill="#FFB6B6"/>
<path d="M47.0334 80.2862C45.2465 79.714 44.4011 77.5885 42.7666 76.6672C40.959 75.6483 38.7966 75.0122 36.8033 75.5887C35.5803 75.9424 34.5148 76.7243 33.2909 77.075C33.0769 77.1363 32.8519 77.1786 32.6233 77.2004C31.3071 77.3258 30.1771 78.1151 29.5193 79.2621L29.5021 79.2917C29.116 79.9525 28.5671 80.4999 28.0799 81.0902C26.3022 83.2444 25.34 86.044 25.3599 88.837C25.3811 91.8392 26.5363 94.8199 28.5437 97.0523L29.0565 96.8159C30.2958 97.8863 31.535 98.9568 32.7743 100.027C32.0998 97.5938 31.4191 95.0751 31.7762 92.5753C32.1332 90.0755 33.8143 87.5815 36.2929 87.0989C37.2305 86.9163 38.2195 87.0267 39.1297 86.7368C40.0399 86.4469 40.8783 85.5112 40.566 84.6084C41.1296 86.0984 43.2319 86.0104 44.6788 86.677C47.9172 88.1691 46.7317 85.8633 49.5429 88.0566C50.4924 82.794 54.1298 82.559 47.0334 80.2862L47.0334 80.2862Z" fill="#2F2E41"/>
<path d="M0 280.791C0 281.181 0.313026 281.494 0.702828 281.494H238.879C239.268 281.494 239.581 281.181 239.581 280.791C239.581 280.401 239.268 280.088 238.879 280.088H0.702828C0.313026 280.088 0 280.401 0 280.791Z" fill="#CCCCCC"/>
<path d="M207.721 281.494H103.527C90.8228 281.494 80.4868 271.158 80.4868 258.453V34.5342C80.4868 21.8297 90.8228 11.4937 103.527 11.4937H207.721C220.425 11.4937 230.761 21.8297 230.761 34.5342V258.453C230.761 271.158 220.425 281.494 207.721 281.494V281.494Z" fill="#3F3D56"/>
<path d="M228.568 34.5345V258.449C228.568 269.507 219.961 278.553 209.078 279.255H209.074C208.913 279.264 208.752 279.274 208.586 279.279C208.299 279.294 208.011 279.299 207.719 279.299C207.719 279.299 206.646 279.221 204.687 279.074C202.709 278.928 199.828 278.709 196.236 278.421C195.159 278.338 194.024 278.246 192.825 278.148C190.437 277.953 187.815 277.739 185.003 277.495C183.882 277.403 182.722 277.3 181.537 277.198C175.484 276.677 168.705 276.067 161.556 275.375C160.347 275.263 159.128 275.146 157.9 275.024C157.579 274.99 157.252 274.961 156.926 274.927C151.828 274.425 82.6802 261.061 82.6802 258.449V34.5345C82.6802 23.0181 92.0132 13.6851 103.53 13.6851H115.977C117.965 13.6851 119.564 15.2349 119.734 17.2185C119.749 17.3501 119.764 17.4816 119.788 17.6132C120.149 19.6065 121.976 20.9955 124.004 20.9955H187.244C189.272 20.9955 191.1 19.6065 191.46 17.6132C191.485 17.4816 191.499 17.3501 191.514 17.2185C191.684 15.2349 193.283 13.6851 195.271 13.6851H207.719C219.235 13.6851 228.568 23.0181 228.568 34.5345Z" fill="white"/>
<path d="M176.608 149.774C176.608 150.348 175.44 150.814 174 150.814C172.559 150.814 171.391 150.348 171.391 149.774V148.55H176.608V149.774V149.774Z" fill="black" fill-opacity="0.4"/>
<path d="M174 150.813C172.559 150.813 171.391 150.348 171.391 149.773V151.411C171.391 151.985 172.559 152.451 174 152.451C175.44 152.451 176.608 151.985 176.608 151.411V149.773C176.608 150.348 175.44 150.813 174 150.813Z" fill="black" fill-opacity="0.4"/>
<path d="M174 152.45C172.559 152.45 171.391 151.984 171.391 151.41V153.048C171.391 153.622 172.559 154.088 174 154.088C175.44 154.088 176.608 153.622 176.608 153.048V151.41C176.608 151.984 175.44 152.45 174 152.45Z" fill="black" fill-opacity="0.4"/>
<path d="M171.679 148.55H171.391V149.774C171.391 149.944 171.496 150.105 171.679 150.247V148.55Z" fill="black" fill-opacity="0.4"/>
<path d="M171.679 151.883C171.496 151.741 171.391 151.581 171.391 151.41V153.048C171.391 153.219 171.496 153.379 171.679 153.521V151.883Z" fill="black" fill-opacity="0.4"/>
<path d="M174 150.901C172.488 150.901 171.304 150.406 171.304 149.773V148.55C171.304 148.502 171.343 148.463 171.391 148.463H176.608C176.656 148.463 176.696 148.502 176.696 148.55V149.773C176.696 150.406 175.511 150.901 174 150.901ZM171.479 148.638V149.773C171.479 150.29 172.633 150.726 174 150.726C175.366 150.726 176.521 150.29 176.521 149.773V148.638H171.479Z" fill="black" fill-opacity="0.4"/>
<path d="M174.088 149.351H173.913V149.824H174.088V149.351Z" fill="black" fill-opacity="0.4"/>
<path d="M174 152.539C172.488 152.539 171.304 152.044 171.304 151.411V149.773C171.304 149.725 171.343 149.686 171.391 149.686C171.44 149.686 171.479 149.725 171.479 149.773C171.479 150.29 172.633 150.726 174 150.726C175.366 150.726 176.521 150.29 176.521 149.773C176.521 149.725 176.56 149.686 176.608 149.686C176.656 149.686 176.696 149.725 176.696 149.773V151.411C176.696 152.044 175.511 152.539 174 152.539ZM171.479 150.181V151.411C171.479 151.927 172.633 152.364 174 152.364C175.366 152.364 176.521 151.928 176.521 151.411V150.181C176.137 150.606 175.166 150.901 174 150.901C172.833 150.901 171.862 150.606 171.479 150.181Z" fill="black" fill-opacity="0.4"/>
<path d="M174 154.175C172.488 154.175 171.304 153.68 171.304 153.048V151.41C171.304 151.362 171.343 151.323 171.391 151.323C171.44 151.323 171.479 151.362 171.479 151.41C171.479 151.926 172.633 152.362 174 152.362C175.366 152.362 176.521 151.927 176.521 151.41C176.521 151.362 176.56 151.323 176.608 151.323C176.656 151.323 176.696 151.362 176.696 151.41V153.048C176.696 153.68 175.511 154.175 174 154.175ZM171.479 151.818V153.048C171.479 153.564 172.633 154 174 154C175.366 154 176.521 153.564 176.521 153.048V151.818C176.137 152.243 175.166 152.538 174 152.538C172.833 152.538 171.862 152.243 171.479 151.818Z" fill="black" fill-opacity="0.4"/>
<path d="M177.912 147.466L174 149.351L170.087 147.466L174 145.581L177.912 147.466Z" fill="black" fill-opacity="0.4"/>
<path d="M170.701 147.466L174.306 145.729L174 145.581L170.087 147.466L174 149.351L174.306 149.204L170.701 147.466Z" fill="black" fill-opacity="0.4"/>
<path d="M174 149.439C173.987 149.439 173.974 149.436 173.962 149.43L170.05 147.545C170.019 147.531 170 147.5 170 147.466C170 147.433 170.019 147.402 170.05 147.388L173.962 145.502C173.986 145.491 174.014 145.491 174.038 145.502L177.95 147.387C177.981 147.402 178 147.433 178 147.466C178 147.5 177.981 147.531 177.95 147.545L174.038 149.43C174.026 149.436 174.013 149.439 174 149.439ZM170.289 147.466L174 149.254L177.711 147.466L174 145.678L170.289 147.466Z" fill="black" fill-opacity="0.4"/>
<path d="M174 149.351L170.087 147.466V147.939L174 149.824L177.912 147.939V147.466L174 149.351Z" fill="black" fill-opacity="0.4"/>
<path d="M170.354 147.595L170.087 147.466V147.939L170.354 148.067V147.595Z" fill="black" fill-opacity="0.4"/>
<path d="M174 149.911C173.987 149.911 173.974 149.908 173.962 149.903L170.05 148.017C170.019 148.003 170 147.972 170 147.939V147.466C170 147.436 170.016 147.408 170.041 147.392C170.067 147.376 170.099 147.374 170.125 147.387L174 149.254L177.874 147.387C177.901 147.374 177.933 147.376 177.959 147.392C177.984 147.408 178 147.436 178 147.466V147.938C178 147.972 177.981 148.003 177.95 148.017L174.038 149.903C174.026 149.909 174.013 149.911 174 149.911ZM170.175 147.883L174 149.727L177.825 147.884V147.606L174.038 149.43C174.014 149.442 173.986 149.442 173.962 149.43L170.175 147.606V147.883Z" fill="black" fill-opacity="0.4"/>
<path d="M170.678 149.383H170.502V147.702C170.502 147.669 170.521 147.638 170.551 147.624L171.697 147.06L171.775 147.218L170.677 147.757V149.383H170.678Z" fill="black" fill-opacity="0.4"/>
<path d="M170.59 149.865C170.743 149.865 170.867 149.741 170.867 149.588C170.867 149.434 170.743 149.31 170.59 149.31C170.437 149.31 170.312 149.434 170.312 149.588C170.312 149.741 170.437 149.865 170.59 149.865Z" fill="black" fill-opacity="0.4"/>
<path d="M170.59 149.952C170.389 149.952 170.225 149.789 170.225 149.588C170.225 149.386 170.389 149.223 170.59 149.223C170.791 149.223 170.955 149.386 170.955 149.588C170.955 149.789 170.791 149.952 170.59 149.952ZM170.59 149.398C170.485 149.398 170.4 149.483 170.4 149.588C170.4 149.692 170.485 149.777 170.59 149.777C170.695 149.777 170.78 149.692 170.78 149.588C170.78 149.483 170.695 149.398 170.59 149.398Z" fill="black" fill-opacity="0.4"/>
<path d="M170.955 151.222H170.225V150.23C170.225 150.028 170.388 149.865 170.59 149.865C170.791 149.865 170.955 150.028 170.955 150.23V151.222H170.955Z" fill="black" fill-opacity="0.4"/>
<path d="M170.955 151.31H170.225C170.176 151.31 170.137 151.271 170.137 151.222V150.23C170.137 149.98 170.34 149.777 170.59 149.777C170.839 149.777 171.042 149.98 171.042 150.23V151.222C171.042 151.271 171.003 151.31 170.955 151.31ZM170.312 151.135H170.867V150.23C170.867 150.077 170.743 149.952 170.59 149.952C170.437 149.952 170.312 150.077 170.312 150.23V151.135Z" fill="black" fill-opacity="0.4"/>
<path d="M79.9991 70.4648C79.4616 70.4648 79.0244 70.902 79.0244 71.4396V79.2374C79.0244 79.775 79.4616 80.2121 79.9991 80.2121C80.5367 80.2121 80.9739 79.775 80.9739 79.2374V71.4396C80.9739 70.902 80.5367 70.4648 79.9991 70.4648Z" fill="#3F3D56"/>
<path d="M79.9991 93.8582C79.4616 93.8582 79.0244 94.2953 79.0244 94.8329V109.941C79.0244 110.479 79.4616 110.916 79.9991 110.916C80.5367 110.916 80.9739 110.479 80.9739 109.941V94.8329C80.9739 94.2953 80.5367 93.8582 79.9991 93.8582Z" fill="#3F3D56"/>
<path d="M79.9991 115.302C79.4616 115.302 79.0244 115.739 79.0244 116.277V131.385C79.0244 131.923 79.4616 132.36 79.9991 132.36C80.5367 132.36 80.9739 131.923 80.9739 131.385V116.277C80.9739 115.739 80.5367 115.302 79.9991 115.302Z" fill="#3F3D56"/>
<path d="M115.637 17.0984H96.9967C96.8955 17.0984 96.8135 17.1804 96.8135 17.2816V19.352C96.8135 19.4532 96.8955 19.5352 96.9967 19.5352H115.637C115.739 19.5352 115.821 19.4532 115.821 19.352V17.2816C115.821 17.1804 115.739 17.0984 115.637 17.0984Z" fill="#E6E6E6"/>
<path d="M198.351 19.5354C199.428 19.5354 200.301 18.6626 200.301 17.5859C200.301 16.5093 199.428 15.6365 198.351 15.6365C197.275 15.6365 196.402 16.5093 196.402 17.5859C196.402 18.6626 197.275 19.5354 198.351 19.5354Z" fill="#E6E6E6"/>
<path d="M203.712 19.5354C204.789 19.5354 205.662 18.6626 205.662 17.5859C205.662 16.5093 204.789 15.6365 203.712 15.6365C202.635 15.6365 201.763 16.5093 201.763 17.5859C201.763 18.6626 202.635 19.5354 203.712 19.5354Z" fill="#E6E6E6"/>
<path d="M209.073 19.5354C210.15 19.5354 211.023 18.6626 211.023 17.5859C211.023 16.5093 210.15 15.6365 209.073 15.6365C207.997 15.6365 207.124 16.5093 207.124 17.5859C207.124 18.6626 207.997 19.5354 209.073 19.5354Z" fill="#E6E6E6"/>
<path d="M210.867 254.612H180.157C178.854 254.612 177.794 253.552 177.794 252.25C177.794 250.947 178.854 249.887 180.157 249.887H210.867C212.17 249.887 213.229 250.947 213.229 252.25C213.229 253.552 212.17 254.612 210.867 254.612Z" fill="#E6E6E6"/>
<path d="M128.776 254.612H98.0659C96.7634 254.612 95.7036 253.552 95.7036 252.25C95.7036 250.947 96.7634 249.887 98.0659 249.887H128.776C130.079 249.887 131.139 250.947 131.139 252.25C131.139 253.552 130.079 254.612 128.776 254.612Z" fill="#E6E6E6"/>
<path d="M167.848 216.526C167.765 216.348 167.902 215.867 167.981 215.649L170.682 208.901L172.925 202.911L179.751 185.383L182.32 179.512L178.977 181.295C178.792 181.364 178.599 181.094 178.022 179.951C177.29 178.503 176.983 177.615 176.983 177.615C176.574 176.395 176.467 176.297 177.027 175.872L182.475 173.468L187.917 171.299L191.137 170.062L191.962 172.172L193.091 175.28L194.206 178.938L195.425 182.817C195.457 183.001 195.541 183.458 195.62 183.812C195.699 184.166 195.566 184.47 195.49 184.578L194.49 184.993C193.861 185.233 192.403 185.797 191.603 186.128C190.803 186.459 190.47 186.025 190.403 185.767L189.708 182.89C189.708 182.89 188.101 186.612 187.26 188.689C185.337 193.436 182.466 200.298 182.466 200.298L180.573 205.527L178.465 210.531C178.465 210.531 177.63 212.67 176.84 213.898C176.324 214.699 175.361 215.839 175.361 215.839C175.361 215.839 173.281 218.535 168.826 216.991C168.826 216.991 167.932 216.704 167.848 216.526Z" fill="url(#paint0_linear_229_342)"/>
<path d="M137.829 220.554L139.293 216.685L140.129 214.489L142.43 208.423L143.685 205.181L144.626 202.671C145.045 201.381 146.052 198.826 146.09 198.592C146.195 197.965 146.195 198.069 146.09 197.756C145.881 197.442 145.521 197.309 145.045 197.024C144.522 196.71 143.79 196.605 142.848 196.605C142.326 196.605 141.28 196.814 140.652 197.128C139.805 197.552 139.084 198.069 138.665 198.592C138.351 198.906 137.306 200.754 136.783 201.834C136.26 202.915 133.436 210.41 133.436 210.41L130.09 219.509L127.37 226.725C127.057 227.666 126.366 229.695 126.115 230.281C125.864 230.866 126.081 230.873 126.22 230.803L129.985 227.561L132.913 224.842L137.829 220.554Z" fill="url(#paint1_linear_229_342)"/>
<path d="M154.492 209.036L156.761 202.749L158.517 198.348L159.238 196.252C159.375 195.694 159.752 194.554 159.751 194.367L159.749 193.844C159.748 193.635 159.746 193.217 157.758 193.122C156.988 193.086 155.354 193.344 155.354 193.344C155.354 193.344 154.442 193.585 153.892 193.874C153.342 194.163 153.287 194.149 152.537 194.822C151.788 195.495 151.116 196.433 150.874 196.818C150.632 197.202 149.945 199.123 149.945 199.123L147.158 206.458C146.437 208.519 144.869 212.933 144.373 214.107C143.877 215.281 143.547 216.203 143.444 216.517C143.515 216.726 143.856 217.39 144.798 217.556C146.054 217.778 148.262 217.852 149.721 216.904C150.889 216.145 152.011 214.8 152.736 213.332L154.492 209.036Z" fill="url(#paint2_linear_229_342)"/>
<path d="M167.174 207.926C168.236 205.087 169.929 200.594 169.929 200.594C169.929 200.594 171.191 197.489 171.896 195.461C172.226 194.512 172.373 193.966 172.706 193.017C173.096 191.903 173.619 190.644 173.828 189.702C173.828 189.702 173.463 189.419 173.201 189.284C172.559 188.955 171.388 188.933 171.388 188.933C171.388 188.933 169.807 188.916 168.843 189.177C167.5 189.541 166.552 190.106 165.719 190.888C164.886 191.67 164.138 192.762 163.868 193.21L162.826 195.899L159.703 204.453C158.893 206.856 157.134 212.005 156.579 213.373C156.023 214.742 155.653 215.817 155.537 216.184C155.614 216.428 156.401 216.878 157.041 217.162C158.991 218.024 160.86 217.773 162.479 216.673C163.775 215.793 164.607 214.229 165.416 212.518C166.226 210.807 166.438 209.895 167.174 207.926Z" fill="url(#paint3_linear_229_342)"/>
<path d="M138.303 229.436L141.916 220.884H141.984L145.597 229.436H144.227L141.599 222.741L142.448 222.186L139.481 229.436H138.303ZM140.489 226.355H143.434L143.842 227.374H140.138L140.489 226.355ZM146.812 220.634H147.956V229.436H146.812V220.634ZM149.743 220.634H150.887V229.436H149.743V220.634ZM152.674 224.701H153.818V229.436H152.674V224.701ZM152.618 223.002C152.618 222.828 152.686 222.681 152.822 222.56C152.965 222.439 153.12 222.379 153.286 222.379C153.452 222.379 153.603 222.439 153.739 222.56C153.875 222.681 153.943 222.828 153.943 223.002C153.943 223.191 153.875 223.342 153.739 223.455C153.603 223.568 153.452 223.625 153.286 223.625C153.12 223.625 152.965 223.568 152.822 223.455C152.686 223.342 152.618 223.191 152.618 223.002ZM157.588 229.549C157.142 229.549 156.738 229.455 156.376 229.266C156.013 229.077 155.726 228.801 155.515 228.439C155.304 228.069 155.198 227.612 155.198 227.068C155.198 226.54 155.307 226.087 155.526 225.709C155.753 225.324 156.047 225.029 156.41 224.826C156.78 224.614 157.18 224.508 157.611 224.508C158.064 224.508 158.437 224.603 158.732 224.792C159.026 224.98 159.253 225.207 159.412 225.471L159.344 225.652L159.457 224.701H160.51V229.436H159.366V228.235L159.48 228.518C159.449 228.579 159.385 228.665 159.287 228.779C159.189 228.892 159.06 229.009 158.902 229.13C158.743 229.243 158.551 229.341 158.324 229.424C158.105 229.507 157.86 229.549 157.588 229.549ZM157.894 228.609C158.271 228.609 158.588 228.511 158.845 228.314C159.109 228.11 159.283 227.835 159.366 227.487V226.513C159.276 226.204 159.091 225.947 158.811 225.743C158.539 225.539 158.222 225.437 157.86 225.437C157.588 225.437 157.339 225.505 157.112 225.641C156.886 225.769 156.704 225.954 156.568 226.196C156.433 226.43 156.365 226.702 156.365 227.012C156.365 227.314 156.433 227.586 156.568 227.827C156.712 228.069 156.901 228.261 157.135 228.405C157.369 228.541 157.622 228.609 157.894 228.609ZM173.095 225.641C172.853 225.641 172.645 225.566 172.472 225.415C172.298 225.256 172.211 225.029 172.211 224.735V224.248H173.083V224.406C173.083 224.535 173.114 224.618 173.174 224.656C173.234 224.686 173.333 224.701 173.469 224.701H176.493L173.695 228.733L173.469 228.496H176.448V229.436H172.007L174.862 225.313L175.043 225.641H173.095Z" fill="black"/>
<path d="M168.277 220.298C168.394 220.136 168.711 219.727 168.98 219.389C169.546 218.68 169.617 218.658 169.929 219.09C170.056 219.265 170.233 219.504 170.323 219.621C170.412 219.738 170.591 219.985 170.719 220.17C170.847 220.354 171.04 220.611 171.147 220.739C171.56 221.237 171.487 221.322 170.65 221.322H170.101V228.022C170.101 230.613 170.331 230.463 169.549 230.461L168.99 230.46C168.99 230.46 168.698 230.336 168.555 230.148C168.413 229.961 166.244 226.995 166.244 226.995C166.244 226.995 165.762 226.303 165.404 225.84C165.036 225.364 164.947 225.204 164.59 224.789C164.234 224.374 164.028 224.056 164.028 224.056V226.175V231.057H164.59C165.053 231.057 164.775 231.489 164.775 231.489C164.775 231.489 163.444 233.571 163.407 233.509C161.999 231.626 161.999 231.489 161.999 231.489C161.999 231.489 161.774 230.988 162.184 231.057C162.386 231.092 162.566 231.057 162.566 231.057H162.955V227.005V225.198C162.955 225.198 162.965 223.892 162.962 223.448L162.955 222.64L163.568 222.615L164.18 222.59L164.774 223.319L165.509 224.191L166.071 224.935C166.071 224.935 166.43 225.426 166.665 225.736C166.9 226.048 167.275 226.53 167.275 226.53C167.275 226.53 167.651 227.062 168.324 228.022C168.584 228.392 168.99 228.969 168.99 228.969L168.971 227.412L168.953 221.301L168.472 221.297C167.84 221.291 167.641 221.119 167.897 220.8C167.989 220.685 168.16 220.459 168.277 220.298Z" fill="#4CDB2F"/>
<path d="M173.264 47.7175H222.735V106.099C222.735 106.736 222.482 107.347 222.031 107.798C221.581 108.248 220.97 108.502 220.332 108.502H175.662C175.025 108.502 174.414 108.248 173.963 107.798C173.512 107.347 173.259 106.736 173.259 106.099V47.7175H173.264Z" fill="white"/>
<path d="M184.26 63.7163H180.338V91.9793H184.26V63.7163Z" fill="#8CD351"/>
<path d="M191.498 70.3337H187.576V91.9744H191.498V70.3337Z" fill="#8CD351"/>
<path d="M198.73 66.0229H194.809V91.9792H198.73V66.0229Z" fill="#8CD351"/>
<path d="M205.968 73.842H202.046V91.9744H205.968V73.842Z" fill="#8CD351"/>
<path d="M213.206 66.0229H209.284V91.9792H213.206V66.0229Z" fill="#8CD351"/>
<path d="M213.114 52.8263H206.468C206.404 52.8263 206.343 52.801 206.298 52.7559C206.253 52.7108 206.228 52.6497 206.228 52.586C206.228 52.5223 206.253 52.4611 206.298 52.4161C206.343 52.371 206.404 52.3457 206.468 52.3457H213.105C213.168 52.3469 213.228 52.3726 213.273 52.4174C213.318 52.4622 213.344 52.5227 213.345 52.586C213.345 52.6481 213.321 52.7078 213.278 52.7526C213.235 52.7974 213.176 52.8238 213.114 52.8263Z" fill="#231F20"/>
<path d="M210.793 55.3011H206.468C206.404 55.3011 206.343 55.2758 206.298 55.2308C206.253 55.1857 206.228 55.1246 206.228 55.0608C206.228 54.9971 206.253 54.936 206.298 54.8909C206.343 54.8459 206.404 54.8206 206.468 54.8206H210.793C210.857 54.8206 210.918 54.8459 210.963 54.8909C211.008 54.936 211.033 54.9971 211.033 55.0608C211.033 55.1246 211.008 55.1857 210.963 55.2308C210.918 55.2758 210.857 55.3011 210.793 55.3011Z" fill="#231F20"/>
<path d="M204.492 66.3161C202.397 66.3161 200.571 63.9805 199.1 62.0966C198.139 60.8759 197.24 59.6937 196.64 59.6937C195.957 59.6937 195.015 60.256 194.02 60.8327C192.665 61.616 191.137 62.5051 189.695 62.4234C186.999 62.2792 181.934 56.3296 181.722 56.0749C181.702 56.0523 181.687 56.026 181.678 55.9975C181.668 55.969 181.664 55.9389 181.667 55.9089C181.669 55.8789 181.677 55.8496 181.691 55.8229C181.704 55.7961 181.723 55.7723 181.746 55.7529C181.79 55.7106 181.849 55.687 181.91 55.687C181.971 55.687 182.029 55.7106 182.073 55.7529C182.121 55.8154 187.22 61.8083 189.719 61.9428C191.036 62.0197 192.507 61.1643 193.804 60.4098C194.852 59.8042 195.842 59.2323 196.64 59.2083C197.437 59.1843 198.365 60.3233 199.489 61.7698C200.931 63.6104 202.709 65.898 204.637 65.8067C206.304 65.725 207.102 64.2737 207.948 62.7358C208.794 61.1979 209.596 59.7273 211.283 59.4054C211.34 59.4008 211.397 59.4176 211.442 59.4525C211.487 59.4874 211.518 59.538 211.528 59.5943C211.538 59.6506 211.527 59.7086 211.497 59.7572C211.467 59.8058 211.42 59.8414 211.365 59.8571C209.894 60.1358 209.144 61.5055 208.347 62.9569C207.482 64.538 206.583 66.1719 204.661 66.2681L204.492 66.3161Z" fill="#D1D3D4"/>
<path d="M216.56 92.2052H177.152C177.122 92.2052 177.092 92.1992 177.065 92.1875C177.037 92.1759 177.012 92.1588 176.991 92.1373C176.97 92.1158 176.953 92.0904 176.942 92.0624C176.931 92.0344 176.926 92.0046 176.926 91.9745C176.929 91.9158 176.953 91.8603 176.995 91.8192C177.037 91.7781 177.093 91.7546 177.152 91.7534H216.56C216.621 91.7534 216.68 91.7777 216.723 91.821C216.766 91.8642 216.791 91.9229 216.791 91.9841C216.79 92.0138 216.784 92.043 216.772 92.0702C216.76 92.0973 216.742 92.1219 216.721 92.1424C216.7 92.163 216.674 92.1791 216.647 92.1898C216.619 92.2006 216.59 92.2058 216.56 92.2052V92.2052Z" fill="#D1D3D4"/>
<path d="M181.958 56.8103C181.783 56.8103 181.612 56.7584 181.467 56.6613C181.321 56.5641 181.208 56.426 181.141 56.2644C181.074 56.1028 181.057 55.925 181.091 55.7535C181.125 55.582 181.209 55.4244 181.333 55.3007C181.456 55.1771 181.614 55.0929 181.785 55.0587C181.957 55.0246 182.135 55.0421 182.296 55.1091C182.458 55.176 182.596 55.2893 182.693 55.4347C182.79 55.5802 182.842 55.7511 182.842 55.926C182.842 56.1605 182.749 56.3855 182.583 56.5513C182.417 56.7171 182.193 56.8103 181.958 56.8103ZM181.958 55.5031C181.873 55.5031 181.79 55.5283 181.72 55.5755C181.649 55.6228 181.595 55.6898 181.562 55.7683C181.53 55.8467 181.522 55.933 181.539 56.0161C181.556 56.0992 181.597 56.1754 181.657 56.235C181.718 56.2946 181.794 56.3349 181.878 56.3509C181.961 56.3669 182.047 56.3577 182.125 56.3246C182.203 56.2915 182.27 56.2359 182.316 56.1649C182.362 56.094 182.387 56.0108 182.386 55.926C182.386 55.8701 182.375 55.8147 182.353 55.7631C182.332 55.7114 182.3 55.6646 182.26 55.6253C182.22 55.5859 182.173 55.5549 182.121 55.5339C182.069 55.5129 182.014 55.5025 181.958 55.5031V55.5031Z" fill="#D1D3D4"/>
<path d="M211.274 60.5635C211.099 60.5625 210.928 60.5098 210.784 60.4121C210.639 60.3144 210.526 60.1759 210.46 60.0143C210.394 59.8526 210.377 59.675 210.412 59.5037C210.446 59.3325 210.531 59.1754 210.655 59.0522C210.779 58.929 210.936 58.8453 211.108 58.8116C211.279 58.7778 211.457 58.7956 211.618 58.8627C211.779 58.9298 211.917 59.0431 212.014 59.1884C212.111 59.3337 212.163 59.5045 212.163 59.6792C212.161 59.9141 212.067 60.1391 211.9 60.3047C211.734 60.4704 211.508 60.5635 211.274 60.5635ZM211.274 59.2515C211.189 59.2515 211.106 59.2765 211.036 59.3235C210.966 59.3705 210.911 59.4373 210.878 59.5155C210.846 59.5937 210.838 59.6797 210.854 59.7626C210.871 59.8456 210.911 59.9218 210.971 59.9816C211.031 60.0414 211.107 60.0822 211.19 60.0987C211.273 60.1152 211.359 60.1067 211.437 60.0743C211.515 60.042 211.582 59.9871 211.629 59.9168C211.676 59.8465 211.701 59.7638 211.701 59.6792C211.701 59.5657 211.656 59.457 211.576 59.3767C211.496 59.2965 211.387 59.2515 211.274 59.2515V59.2515Z" fill="#D1D3D4"/>
<path d="M175.663 42.7339H220.333C220.97 42.7339 221.581 42.987 222.032 43.4377C222.483 43.8883 222.736 44.4995 222.736 45.1368V47.7079H173.265V45.1368C173.265 44.5003 173.517 43.8899 173.967 43.4394C174.416 42.9889 175.026 42.7352 175.663 42.7339V42.7339Z" fill="white"/>
<path d="M176.263 46.0982C176.709 46.0982 177.07 45.7367 177.07 45.2908C177.07 44.8449 176.709 44.4834 176.263 44.4834C175.817 44.4834 175.456 44.8449 175.456 45.2908C175.456 45.7367 175.817 46.0982 176.263 46.0982Z" fill="#8CD351"/>
<path d="M179.065 46.0982C179.511 46.0982 179.872 45.7367 179.872 45.2908C179.872 44.8449 179.511 44.4834 179.065 44.4834C178.619 44.4834 178.257 44.8449 178.257 45.2908C178.257 45.7367 178.619 46.0982 179.065 46.0982Z" fill="#D1D3D4"/>
<path d="M181.867 46.0982C182.313 46.0982 182.674 45.7367 182.674 45.2908C182.674 44.8449 182.313 44.4834 181.867 44.4834C181.421 44.4834 181.06 44.8449 181.06 45.2908C181.06 45.7367 181.421 46.0982 181.867 46.0982Z" fill="#D1D3D4"/>
<path d="M197.337 57.9637C197.282 57.9633 197.229 57.9428 197.188 57.906C197.142 57.8668 197.113 57.8111 197.107 57.7509C197.102 57.6907 197.12 57.6308 197.159 57.584L199.235 55.1235C199.257 55.0976 199.284 55.0769 199.315 55.0628C199.345 55.0487 199.379 55.0415 199.413 55.0418H204.608C204.672 55.0418 204.733 55.0671 204.778 55.1121C204.823 55.1572 204.848 55.2183 204.848 55.282C204.848 55.3458 204.823 55.4069 204.778 55.452C204.733 55.497 204.672 55.5223 204.608 55.5223H199.509L197.5 57.9252C197.452 57.9581 197.394 57.9719 197.337 57.9637V57.9637Z" fill="#D1D3D4"/>
<path d="M101.846 52.6595C102.384 52.6595 102.821 52.2228 102.821 51.684C102.821 51.1453 102.384 50.7085 101.846 50.7085C101.307 50.7085 100.87 51.1453 100.87 51.684C100.87 52.2228 101.307 52.6595 101.846 52.6595Z" fill="#8CD351"/>
<path d="M105.284 52.6595C105.823 52.6595 106.26 52.2228 106.26 51.684C106.26 51.1453 105.823 50.7085 105.284 50.7085C104.745 50.7085 104.309 51.1453 104.309 51.684C104.309 52.2228 104.745 52.6595 105.284 52.6595Z" fill="#D1D3D4"/>
<path d="M108.722 52.6595C109.261 52.6595 109.698 52.2228 109.698 51.684C109.698 51.1453 109.261 50.7085 108.722 50.7085C108.183 50.7085 107.747 51.1453 107.747 51.684C107.747 52.2228 108.183 52.6595 108.722 52.6595Z" fill="#D1D3D4"/>
<path d="M104.47 164.351L104.082 164.107C104.335 163.706 104.595 163.318 104.855 162.952L105.229 163.219C104.973 163.577 104.718 163.958 104.47 164.351H104.47Z" fill="#CCCCCC"/>
<path d="M106.998 161.085L106.67 160.765C107.369 160.048 108.105 159.432 108.857 158.936L109.11 159.318C108.385 159.797 107.674 160.391 106.998 161.085V161.085ZM118.433 158.191C117.886 158.191 117.387 158.121 117.014 158.06L117.088 157.608C117.466 157.67 117.922 157.733 118.433 157.733C118.885 157.733 119.329 157.683 119.79 157.581L119.889 158.029C119.395 158.138 118.918 158.191 118.433 158.191V158.191ZM111.574 158.131L111.437 157.694C111.929 157.538 112.439 157.422 112.953 157.347C113.394 157.284 113.815 157.253 114.241 157.253H114.27V157.711H114.241C113.837 157.711 113.437 157.74 113.018 157.801C112.529 157.872 112.043 157.983 111.574 158.131H111.574ZM122.5 156.806L122.207 156.454C122.84 155.928 123.293 155.293 123.773 154.62L123.964 154.353L124.336 154.621L124.146 154.886C123.648 155.584 123.178 156.243 122.5 156.806V156.806ZM126.176 152.603L125.894 152.242C126.512 151.76 127.21 151.369 128.028 151.048C128.167 150.993 128.3 150.944 128.428 150.9L128.576 151.334C128.455 151.376 128.328 151.422 128.196 151.474C127.419 151.779 126.759 152.149 126.176 152.603V152.603ZM131.71 151.011C131.555 151.011 131.409 151.01 131.269 151.008L131.274 150.55C131.418 150.551 131.568 150.552 131.726 150.553C132.266 150.553 133.017 150.537 134.047 150.418L134.1 150.873C133.036 150.997 132.273 151.01 131.71 151.011V151.011ZM136.889 150.411L136.798 149.962C137.621 149.795 138.579 149.597 139.527 149.352L139.641 149.796C138.683 150.044 137.718 150.243 136.889 150.411ZM142.342 148.927L142.17 148.502C143.089 148.132 143.887 147.714 144.61 147.224L144.867 147.604C144.117 148.112 143.291 148.544 142.342 148.927V148.927ZM146.973 145.652L146.601 145.384C146.729 145.207 146.839 145.033 146.946 144.866C147.262 144.372 147.588 143.861 148.365 143.233L148.42 143.19L148.704 143.55L148.653 143.59C147.934 144.17 147.642 144.628 147.333 145.113C147.222 145.285 147.108 145.464 146.973 145.652V145.652ZM151.085 142.214L150.918 141.787C151.735 141.467 152.657 141.209 153.66 141.021L153.745 141.472C152.77 141.655 151.875 141.904 151.085 142.214V142.214Z" fill="#CCCCCC"/>
<path d="M156.546 141.135L156.518 140.678C156.963 140.65 157.429 140.631 157.902 140.623L157.91 141.081C157.444 141.089 156.985 141.108 156.546 141.135V141.135Z" fill="#CCCCCC"/>
<path d="M110.018 128.494H103.587C103.264 128.494 103 128.757 103 129.08C103 129.406 103.264 129.669 103.587 129.669H110.018C110.341 129.669 110.604 129.406 110.604 129.08C110.604 128.757 110.341 128.494 110.018 128.494V128.494Z" fill="#E6E6E6"/>
<path d="M120.789 128.494H114.358C114.035 128.494 113.772 128.757 113.772 129.08C113.772 129.406 114.035 129.669 114.358 129.669H120.789C121.113 129.669 121.376 129.406 121.376 129.08C121.376 128.757 121.113 128.494 120.789 128.494Z" fill="#E6E6E6"/>
<path d="M131.561 128.494H125.13C124.807 128.494 124.544 128.757 124.544 129.08C124.544 129.406 124.807 129.669 125.13 129.669H131.561C131.884 129.669 132.148 129.406 132.148 129.08C132.148 128.757 131.884 128.494 131.561 128.494Z" fill="#E6E6E6"/>
<path d="M161 164H102.558V164.458H161V164Z" fill="#E6E6E6"/>
<path d="M147.35 136.406C147.04 137.107 146.724 137.829 145.988 138.771C145.901 138.883 145.807 139 145.706 139.122C143.052 142.278 139.507 143.314 136.656 144.148C136.477 144.2 136.303 144.249 136.133 144.294C133.598 144.982 132.21 144.957 131.176 144.941C130.138 144.922 129.452 144.911 128.226 145.612C125.978 146.893 125.057 148.768 124.165 150.581C123.246 152.447 122.38 154.209 120.17 155.036C118.637 155.609 117.56 155.325 116.421 155.027C115.442 154.768 113.678 148.394 112.117 147.464C108.892 148.14 106.933 158.678 104.487 164.321L104.065 164.137C106.575 158.353 108.642 147.725 112.02 147.015C113.526 146.699 115.509 154.312 116.538 154.583C117.606 154.865 118.612 155.128 120.01 154.606C122.05 153.845 122.838 152.238 123.753 150.379C124.633 148.592 125.63 146.566 127.997 145.213C129.333 144.45 130.11 144.464 131.183 144.482C132.205 144.501 133.585 144.524 136.133 143.82C136.262 143.783 136.392 143.747 136.527 143.708C139.319 142.892 142.791 141.877 145.353 138.828C145.605 138.528 145.814 138.251 145.988 137.992C146.444 137.323 146.69 136.763 146.93 136.22C147.256 135.478 147.661 135.695 147.35 136.406V136.406Z" fill="#8CD351"/>
<path d="M101.856 118.16C103.434 118.16 104.713 116.908 104.713 115.363C104.713 113.819 103.434 112.567 101.856 112.567C100.279 112.567 99 113.819 99 115.363C99 116.908 100.279 118.16 101.856 118.16Z" fill="#8CD351"/>
<path d="M124.755 114.407H109.38C108.853 114.407 108.424 113.978 108.424 113.45C108.424 112.923 108.853 112.494 109.38 112.494H124.755C125.283 112.494 125.712 112.923 125.712 113.45C125.712 113.978 125.283 114.407 124.755 114.407Z" fill="#F2F2F2"/>
<path d="M136.754 117.645H109.38C108.853 117.645 108.424 117.215 108.424 116.688C108.424 116.161 108.853 115.731 109.38 115.731H136.754C137.281 115.731 137.71 116.161 137.71 116.688C137.71 117.215 137.281 117.645 136.754 117.645V117.645Z" fill="#F2F2F2"/>
<path d="M101.715 74.0876L101 73.3794L105.395 68.9437L106.803 70.3641L111.124 66.0034L113.345 68.2451L118.787 62.7526L119.502 63.461L113.345 69.6756L111.124 67.4337L106.803 71.7941L105.395 70.3734L101.715 74.0876Z" fill="#8CD351"/>
<path d="M101.715 74.0876L101 73.3794L105.395 68.9437L106.803 70.3641L111.124 66.0034L113.345 68.2451L118.787 62.7526L119.502 63.461L113.345 69.6756L111.124 67.4337L106.803 71.7941L105.395 70.3734L101.715 74.0876Z" fill="#8CD351"/>
<path d="M119.999 66.5257H118.993V63.5003H116V62.4937H119.999V66.5257Z" fill="#8CD351"/>
<path d="M192.86 123.544C192.5 123.544 192.18 123.494 191.9 123.394C191.627 123.287 191.407 123.11 191.24 122.864C191.08 122.61 190.99 122.26 190.97 121.814L190.81 118.334H191.62L191.78 121.634C191.8 121.947 191.857 122.184 191.95 122.344C192.043 122.497 192.173 122.6 192.34 122.654C192.513 122.7 192.72 122.724 192.96 122.724C193.1 122.724 193.2 122.764 193.26 122.844C193.327 122.917 193.36 123.007 193.36 123.114C193.36 123.22 193.313 123.32 193.22 123.414C193.127 123.5 193.007 123.544 192.86 123.544ZM191.35 122.444C190.97 122.564 190.6 122.624 190.24 122.624C189.88 122.624 189.553 122.57 189.26 122.464C188.967 122.357 188.733 122.204 188.56 122.004C188.387 121.797 188.3 121.55 188.3 121.264C188.3 120.984 188.37 120.72 188.51 120.474C188.657 120.227 188.853 120.007 189.1 119.814C189.353 119.62 189.643 119.46 189.97 119.334C190.303 119.2 190.657 119.11 191.03 119.064L191.17 119.904C190.837 119.917 190.54 119.964 190.28 120.044C190.027 120.117 189.81 120.214 189.63 120.334C189.457 120.454 189.323 120.584 189.23 120.724C189.137 120.864 189.09 121 189.09 121.134C189.09 121.28 189.143 121.4 189.25 121.494C189.357 121.587 189.493 121.66 189.66 121.714C189.827 121.76 190.01 121.79 190.21 121.804C190.41 121.81 190.603 121.804 190.79 121.784C190.977 121.757 191.137 121.72 191.27 121.674L191.35 122.444ZM191.14 117.184C191 117.184 190.88 117.137 190.78 117.044C190.687 116.944 190.64 116.827 190.64 116.694C190.64 116.56 190.687 116.444 190.78 116.344C190.88 116.244 191 116.194 191.14 116.194C191.273 116.194 191.387 116.244 191.48 116.344C191.58 116.444 191.63 116.56 191.63 116.694C191.63 116.827 191.58 116.944 191.48 117.044C191.387 117.137 191.273 117.184 191.14 117.184ZM189.77 117.184C189.63 117.184 189.51 117.137 189.41 117.044C189.317 116.944 189.27 116.827 189.27 116.694C189.27 116.56 189.317 116.444 189.41 116.344C189.51 116.244 189.63 116.194 189.77 116.194C189.903 116.194 190.017 116.244 190.11 116.344C190.21 116.444 190.26 116.56 190.26 116.694C190.26 116.827 190.21 116.944 190.11 117.044C190.017 117.137 189.903 117.184 189.77 117.184ZM192.863 123.544L192.963 122.724C193.177 122.724 193.35 122.71 193.483 122.684C193.617 122.65 193.727 122.574 193.813 122.454C193.907 122.327 193.993 122.13 194.073 121.864C194.153 121.597 194.247 121.224 194.353 120.744L195.103 120.954C195.077 121.067 195.047 121.197 195.013 121.344C194.98 121.484 194.95 121.63 194.923 121.784C194.897 121.93 194.883 122.067 194.883 122.194C194.883 122.36 194.947 122.49 195.073 122.584C195.2 122.677 195.43 122.724 195.763 122.724C195.963 122.724 196.127 122.707 196.253 122.674C196.38 122.64 196.483 122.56 196.563 122.434C196.65 122.307 196.727 122.104 196.793 121.824C196.86 121.544 196.93 121.16 197.003 120.674L197.763 120.814C197.743 120.934 197.72 121.08 197.693 121.254C197.667 121.427 197.64 121.6 197.613 121.774C197.593 121.94 197.583 122.08 197.583 122.194C197.583 122.287 197.603 122.377 197.643 122.464C197.69 122.544 197.777 122.607 197.903 122.654C198.037 122.7 198.233 122.724 198.493 122.724C198.687 122.724 198.853 122.7 198.993 122.654C199.14 122.607 199.25 122.52 199.323 122.394C199.403 122.267 199.443 122.09 199.443 121.864C199.443 121.61 199.383 121.294 199.263 120.914C199.15 120.527 199.02 120.144 198.873 119.764L199.683 119.464C199.77 119.677 199.85 119.92 199.923 120.194C200.003 120.467 200.07 120.737 200.123 121.004C200.177 121.27 200.203 121.504 200.203 121.704C200.203 122.01 200.163 122.28 200.083 122.514C200.003 122.747 199.89 122.94 199.743 123.094C199.597 123.24 199.417 123.354 199.203 123.434C198.99 123.507 198.75 123.544 198.483 123.544C198.17 123.544 197.913 123.507 197.713 123.434C197.513 123.36 197.36 123.25 197.253 123.104C197.147 122.95 197.077 122.757 197.043 122.524H197.383C197.257 122.81 197.123 123.027 196.983 123.174C196.843 123.32 196.67 123.42 196.463 123.474C196.257 123.52 195.983 123.544 195.643 123.544C195.477 123.544 195.297 123.517 195.103 123.464C194.917 123.41 194.753 123.307 194.613 123.154C194.473 122.994 194.39 122.757 194.363 122.444L194.663 122.384C194.55 122.724 194.41 122.977 194.243 123.144C194.083 123.304 193.89 123.41 193.663 123.464C193.437 123.517 193.17 123.544 192.863 123.544ZM201.625 123.494L201.425 116.354H202.235L202.435 123.494H201.625ZM202.874 125.794L202.584 125.034C203.257 124.82 203.774 124.564 204.134 124.264C204.501 123.97 204.751 123.664 204.884 123.344C205.024 123.024 205.094 122.717 205.094 122.424C205.094 122.237 205.074 122.057 205.034 121.884C204.994 121.71 204.924 121.514 204.824 121.294C204.724 121.074 204.584 120.8 204.404 120.474L205.134 120.104C205.387 120.537 205.567 120.947 205.674 121.334C205.787 121.72 205.844 122.06 205.844 122.354C205.844 122.774 205.774 123.154 205.634 123.494C205.501 123.834 205.321 124.134 205.094 124.394C204.874 124.66 204.631 124.887 204.364 125.074C204.104 125.26 203.841 125.414 203.574 125.534C203.314 125.654 203.081 125.74 202.874 125.794ZM206.856 123.044L207.256 122.354C207.389 122.44 207.576 122.524 207.816 122.604C208.056 122.684 208.336 122.724 208.656 122.724C208.989 122.724 209.253 122.69 209.446 122.624C209.646 122.557 209.789 122.46 209.876 122.334C209.969 122.2 210.016 122.047 210.016 121.874C210.016 121.74 209.986 121.577 209.926 121.384C209.873 121.184 209.753 120.917 209.566 120.584C209.379 120.244 209.093 119.8 208.706 119.254L209.396 118.804C209.749 119.29 210.029 119.73 210.236 120.124C210.449 120.517 210.599 120.864 210.686 121.164C210.779 121.457 210.826 121.71 210.826 121.924C210.826 122.19 210.759 122.45 210.626 122.704C210.493 122.95 210.269 123.154 209.956 123.314C209.643 123.474 209.209 123.554 208.656 123.554C208.416 123.554 208.183 123.534 207.956 123.494C207.736 123.454 207.533 123.397 207.346 123.324C207.159 123.244 206.996 123.15 206.856 123.044Z" fill="black" fill-opacity="0.4"/>
<path d="M185.3 138.504C185.3 138.344 185.313 138.174 185.34 137.994C185.373 137.807 185.42 137.61 185.48 137.404C185.547 137.19 185.627 136.967 185.72 136.734L186.44 137.014C186.373 137.2 186.313 137.377 186.26 137.544C186.213 137.71 186.177 137.867 186.15 138.014C186.13 138.16 186.12 138.3 186.12 138.434C186.12 138.774 186.21 139.06 186.39 139.294C186.57 139.527 186.803 139.7 187.09 139.814C187.383 139.934 187.697 139.994 188.03 139.994C188.683 139.994 189.193 139.877 189.56 139.644C189.927 139.417 190.183 139.114 190.33 138.734C190.477 138.36 190.54 137.95 190.52 137.504L190.3 131.354H191.13L191.29 136.424C191.303 136.764 191.357 137.03 191.45 137.224C191.55 137.41 191.683 137.54 191.85 137.614C192.017 137.687 192.2 137.724 192.4 137.724C192.54 137.724 192.64 137.764 192.7 137.844C192.767 137.917 192.8 138.007 192.8 138.114C192.8 138.22 192.753 138.32 192.66 138.414C192.567 138.5 192.447 138.544 192.3 138.544C192.093 138.544 191.917 138.517 191.77 138.464C191.623 138.404 191.503 138.33 191.41 138.244C191.317 138.15 191.243 138.047 191.19 137.934C191.137 137.814 191.097 137.694 191.07 137.574L191.35 137.854C191.323 138.207 191.247 138.557 191.12 138.904C191 139.257 190.813 139.577 190.56 139.864C190.307 140.15 189.967 140.38 189.54 140.554C189.12 140.727 188.6 140.814 187.98 140.814C187.633 140.814 187.297 140.76 186.97 140.654C186.65 140.554 186.363 140.404 186.11 140.204C185.863 140.004 185.667 139.76 185.52 139.474C185.373 139.194 185.3 138.87 185.3 138.504ZM192.305 138.544L192.405 137.724C192.738 137.724 192.998 137.7 193.185 137.654C193.371 137.6 193.511 137.504 193.605 137.364C193.705 137.217 193.785 137.007 193.845 136.734C193.905 136.46 193.978 136.104 194.065 135.664L194.845 135.814C194.818 135.934 194.788 136.067 194.755 136.214C194.721 136.36 194.691 136.507 194.665 136.654C194.645 136.794 194.635 136.917 194.635 137.024C194.635 137.124 194.641 137.217 194.655 137.304C194.668 137.39 194.718 137.464 194.805 137.524C194.891 137.584 195.038 137.634 195.245 137.674C195.451 137.707 195.748 137.724 196.135 137.724C196.275 137.724 196.375 137.764 196.435 137.844C196.501 137.917 196.535 138.007 196.535 138.114C196.535 138.22 196.488 138.32 196.395 138.414C196.301 138.5 196.181 138.544 196.035 138.544C195.628 138.544 195.305 138.524 195.065 138.484C194.825 138.437 194.641 138.37 194.515 138.284C194.395 138.197 194.308 138.09 194.255 137.964C194.208 137.83 194.171 137.677 194.145 137.504L194.445 137.524C194.338 137.737 194.221 137.91 194.095 138.044C193.975 138.177 193.835 138.28 193.675 138.354C193.515 138.427 193.321 138.477 193.095 138.504C192.875 138.53 192.611 138.544 192.305 138.544ZM194.825 140.434C194.685 140.434 194.565 140.384 194.465 140.284C194.371 140.19 194.325 140.077 194.325 139.944C194.325 139.81 194.371 139.694 194.465 139.594C194.565 139.494 194.685 139.444 194.825 139.444C194.958 139.444 195.071 139.494 195.165 139.594C195.265 139.694 195.315 139.81 195.315 139.944C195.315 140.077 195.265 140.19 195.165 140.284C195.071 140.384 194.958 140.434 194.825 140.434ZM193.455 140.434C193.315 140.434 193.195 140.384 193.095 140.284C193.001 140.19 192.955 140.077 192.955 139.944C192.955 139.81 193.001 139.694 193.095 139.594C193.195 139.494 193.315 139.444 193.455 139.444C193.588 139.444 193.701 139.494 193.795 139.594C193.895 139.694 193.945 139.81 193.945 139.944C193.945 140.077 193.895 140.19 193.795 140.284C193.701 140.384 193.588 140.434 193.455 140.434ZM196.035 138.544L196.125 137.724C196.505 137.724 196.772 137.687 196.925 137.614C197.078 137.54 197.165 137.41 197.185 137.224C197.212 137.037 197.218 136.777 197.205 136.444L197.035 131.354H197.865L198.025 136.424C198.038 136.764 198.092 137.03 198.185 137.224C198.285 137.41 198.418 137.54 198.585 137.614C198.752 137.687 198.935 137.724 199.135 137.724C199.275 137.724 199.375 137.764 199.435 137.844C199.502 137.917 199.535 138.007 199.535 138.114C199.535 138.22 199.488 138.32 199.395 138.414C199.302 138.5 199.182 138.544 199.035 138.544C198.755 138.544 198.522 138.5 198.335 138.414C198.155 138.32 198.012 138.204 197.905 138.064C197.805 137.917 197.738 137.764 197.705 137.604L197.915 137.624C197.848 137.824 197.738 137.994 197.585 138.134C197.438 138.267 197.238 138.37 196.985 138.444C196.732 138.51 196.415 138.544 196.035 138.544ZM205.403 138.544C205.123 138.544 204.867 138.527 204.633 138.494C204.4 138.454 204.19 138.384 204.003 138.284C203.817 138.184 203.66 138.04 203.533 137.854C203.407 137.66 203.31 137.407 203.243 137.094L203.833 136.744C203.92 137.01 204.027 137.214 204.153 137.354C204.28 137.494 204.45 137.59 204.663 137.644C204.883 137.697 205.163 137.724 205.503 137.724C205.643 137.724 205.743 137.764 205.803 137.844C205.87 137.917 205.903 138.007 205.903 138.114C205.903 138.22 205.857 138.32 205.763 138.414C205.67 138.5 205.55 138.544 205.403 138.544ZM199.033 138.544L199.123 137.724C199.47 137.724 199.81 137.697 200.143 137.644C200.477 137.59 200.803 137.514 201.123 137.414C201.443 137.314 201.75 137.194 202.043 137.054C202.343 136.907 202.627 136.74 202.893 136.554C202.72 136.4 202.52 136.267 202.293 136.154C202.067 136.04 201.817 135.954 201.543 135.894C201.277 135.827 200.993 135.794 200.693 135.794C200.587 135.794 200.487 135.797 200.393 135.804C200.3 135.81 200.207 135.824 200.113 135.844C200.02 135.857 199.913 135.877 199.793 135.904L199.633 135.144C199.813 135.09 199.993 135.05 200.173 135.024C200.353 134.99 200.527 134.974 200.693 134.974C201.04 134.974 201.353 135.017 201.633 135.104C201.913 135.184 202.167 135.284 202.393 135.404C202.627 135.524 202.843 135.644 203.043 135.764C203.25 135.884 203.45 135.987 203.643 136.074C203.837 136.154 204.037 136.194 204.243 136.194H204.453L204.523 136.914C204.237 136.914 203.973 136.954 203.733 137.034C203.493 137.114 203.257 137.217 203.023 137.344C202.797 137.464 202.557 137.594 202.303 137.734C202.05 137.867 201.77 137.997 201.463 138.124C201.157 138.244 200.803 138.344 200.403 138.424C200.01 138.504 199.553 138.544 199.033 138.544ZM205.4 138.544L205.5 137.724C205.894 137.724 206.2 137.71 206.42 137.684C206.64 137.65 206.797 137.574 206.89 137.454C206.984 137.327 207.03 137.13 207.03 136.864C207.03 136.697 207.004 136.5 206.95 136.274C206.897 136.04 206.827 135.794 206.74 135.534C206.654 135.274 206.56 135.017 206.46 134.764L207.27 134.464C207.357 134.677 207.437 134.92 207.51 135.194C207.59 135.467 207.657 135.737 207.71 136.004C207.764 136.27 207.79 136.504 207.79 136.704C207.79 137.037 207.744 137.32 207.65 137.554C207.564 137.787 207.424 137.977 207.23 138.124C207.037 138.27 206.787 138.377 206.48 138.444C206.18 138.51 205.82 138.544 205.4 138.544ZM207.58 133.424C207.44 133.424 207.32 133.377 207.22 133.284C207.127 133.184 207.08 133.067 207.08 132.934C207.08 132.8 207.127 132.684 207.22 132.584C207.32 132.484 207.44 132.434 207.58 132.434C207.714 132.434 207.827 132.484 207.92 132.584C208.02 132.684 208.07 132.8 208.07 132.934C208.07 133.067 208.02 133.184 207.92 133.284C207.827 133.377 207.714 133.424 207.58 133.424ZM206.21 133.424C206.07 133.424 205.95 133.377 205.85 133.284C205.757 133.184 205.71 133.067 205.71 132.934C205.71 132.8 205.757 132.684 205.85 132.584C205.95 132.484 206.07 132.434 206.21 132.434C206.344 132.434 206.457 132.484 206.55 132.584C206.65 132.684 206.7 132.8 206.7 132.934C206.7 133.067 206.65 133.184 206.55 133.284C206.457 133.377 206.344 133.424 206.21 133.424Z" fill="black" fill-opacity="0.4"/>
<circle cx="218" cy="121.494" r="2" fill="#D9D9D9"/>
<circle cx="213.5" cy="136.494" r="2" fill="#D9D9D9"/>
<path d="M185.02 152.494C184.693 152.494 184.4 152.437 184.14 152.324C183.88 152.21 183.673 152.037 183.52 151.804C183.373 151.57 183.3 151.274 183.3 150.914C183.3 150.627 183.41 150.27 183.63 149.844C183.85 149.41 184.233 148.954 184.78 148.474L184.97 149.014L184.29 148.404L184.81 147.784C185.157 148.057 185.477 148.35 185.77 148.664C186.063 148.977 186.3 149.31 186.48 149.664C186.66 150.017 186.75 150.39 186.75 150.784C186.75 150.937 186.723 151.11 186.67 151.304C186.617 151.497 186.527 151.687 186.4 151.874C186.273 152.054 186.097 152.204 185.87 152.324C185.643 152.437 185.36 152.494 185.02 152.494ZM185.02 151.674C185.247 151.674 185.433 151.637 185.58 151.564C185.733 151.484 185.847 151.374 185.92 151.234C186 151.094 186.04 150.93 186.04 150.744C186.04 150.577 186.01 150.404 185.95 150.224C185.897 150.037 185.783 149.837 185.61 149.624C185.443 149.404 185.187 149.157 184.84 148.884L185.28 148.864C185.033 149.077 184.82 149.304 184.64 149.544C184.46 149.777 184.323 150.007 184.23 150.234C184.137 150.454 184.09 150.654 184.09 150.834C184.09 151.114 184.177 151.324 184.35 151.464C184.53 151.604 184.753 151.674 185.02 151.674ZM185.78 146.894C185.64 146.894 185.52 146.847 185.42 146.754C185.327 146.654 185.28 146.537 185.28 146.404C185.28 146.27 185.327 146.154 185.42 146.054C185.52 145.954 185.64 145.904 185.78 145.904C185.913 145.904 186.027 145.954 186.12 146.054C186.22 146.154 186.27 146.27 186.27 146.404C186.27 146.537 186.22 146.654 186.12 146.754C186.027 146.847 185.913 146.894 185.78 146.894ZM184.41 146.894C184.27 146.894 184.15 146.847 184.05 146.754C183.957 146.654 183.91 146.537 183.91 146.404C183.91 146.27 183.957 146.154 184.05 146.054C184.15 145.954 184.27 145.904 184.41 145.904C184.543 145.904 184.657 145.954 184.75 146.054C184.85 146.154 184.9 146.27 184.9 146.404C184.9 146.537 184.85 146.654 184.75 146.754C184.657 146.847 184.543 146.894 184.41 146.894ZM186.692 154.814L186.402 154.054C186.889 153.894 187.292 153.71 187.612 153.504C187.939 153.297 188.196 153.077 188.382 152.844C188.576 152.61 188.712 152.374 188.792 152.134C188.872 151.887 188.912 151.65 188.912 151.424C188.912 151.097 188.839 150.767 188.692 150.434C188.552 150.094 188.396 149.774 188.222 149.474L188.952 149.104C189.079 149.337 189.189 149.567 189.282 149.794C189.382 150.02 189.469 150.234 189.542 150.434C189.622 150.634 189.686 150.817 189.732 150.984C189.826 151.27 189.946 151.467 190.092 151.574C190.246 151.674 190.452 151.724 190.712 151.724C190.852 151.724 190.952 151.764 191.012 151.844C191.079 151.917 191.112 152.007 191.112 152.114C191.112 152.22 191.066 152.32 190.972 152.414C190.879 152.5 190.759 152.544 190.612 152.544C190.319 152.544 190.079 152.494 189.892 152.394C189.712 152.287 189.576 152.15 189.482 151.984C189.389 151.81 189.326 151.63 189.292 151.444L189.612 151.624C189.612 152.064 189.512 152.464 189.312 152.824C189.119 153.19 188.869 153.507 188.562 153.774C188.256 154.047 187.936 154.27 187.602 154.444C187.269 154.617 186.966 154.74 186.692 154.814ZM190.617 152.544L190.717 151.724C190.997 151.724 191.217 151.7 191.377 151.654C191.537 151.6 191.657 151.504 191.737 151.364C191.824 151.217 191.897 151.007 191.957 150.734C192.017 150.46 192.091 150.104 192.177 149.664L192.957 149.814C192.931 149.934 192.901 150.067 192.867 150.214C192.834 150.36 192.804 150.507 192.777 150.654C192.757 150.794 192.747 150.917 192.747 151.024C192.747 151.157 192.777 151.277 192.837 151.384C192.897 151.49 193.027 151.574 193.227 151.634C193.427 151.694 193.734 151.724 194.147 151.724C194.287 151.724 194.387 151.764 194.447 151.844C194.514 151.917 194.547 152.007 194.547 152.114C194.547 152.22 194.501 152.32 194.407 152.414C194.314 152.5 194.194 152.544 194.047 152.544C193.614 152.544 193.274 152.507 193.027 152.434C192.781 152.354 192.601 152.237 192.487 152.084C192.374 151.924 192.297 151.73 192.257 151.504L192.557 151.524C192.451 151.737 192.334 151.91 192.207 152.044C192.087 152.177 191.954 152.28 191.807 152.354C191.661 152.427 191.491 152.477 191.297 152.504C191.104 152.53 190.877 152.544 190.617 152.544ZM192.317 154.404C192.177 154.404 192.057 154.354 191.957 154.254C191.864 154.16 191.817 154.047 191.817 153.914C191.817 153.78 191.864 153.664 191.957 153.564C192.057 153.464 192.177 153.414 192.317 153.414C192.451 153.414 192.564 153.464 192.657 153.564C192.757 153.664 192.807 153.78 192.807 153.914C192.807 154.047 192.757 154.16 192.657 154.254C192.564 154.354 192.451 154.404 192.317 154.404ZM194.045 152.544L194.135 151.724C194.482 151.724 194.822 151.697 195.155 151.644C195.488 151.59 195.815 151.514 196.135 151.414C196.455 151.314 196.762 151.194 197.055 151.054C197.355 150.907 197.638 150.74 197.905 150.554C197.732 150.4 197.532 150.267 197.305 150.154C197.078 150.04 196.828 149.954 196.555 149.894C196.288 149.827 196.005 149.794 195.705 149.794C195.598 149.794 195.498 149.797 195.405 149.804C195.312 149.81 195.218 149.824 195.125 149.844C195.032 149.857 194.925 149.877 194.805 149.904L194.645 149.144C194.825 149.09 195.005 149.05 195.185 149.024C195.365 148.99 195.538 148.974 195.705 148.974C196.052 148.974 196.365 149.017 196.645 149.104C196.925 149.184 197.178 149.284 197.405 149.404C197.638 149.524 197.855 149.644 198.055 149.764C198.262 149.884 198.462 149.987 198.655 150.074C198.848 150.154 199.048 150.194 199.255 150.194H199.465L199.535 150.914C199.248 150.914 198.985 150.954 198.745 151.034C198.505 151.114 198.268 151.217 198.035 151.344C197.808 151.464 197.568 151.594 197.315 151.734C197.062 151.867 196.782 151.997 196.475 152.124C196.168 152.244 195.815 152.344 195.415 152.424C195.022 152.504 194.565 152.544 194.045 152.544ZM195.715 147.944C195.575 147.944 195.455 147.897 195.355 147.804C195.262 147.704 195.215 147.587 195.215 147.454C195.215 147.32 195.262 147.204 195.355 147.104C195.455 147.004 195.575 146.954 195.715 146.954C195.848 146.954 195.962 147.004 196.055 147.104C196.155 147.204 196.205 147.32 196.205 147.454C196.205 147.587 196.155 147.704 196.055 147.804C195.962 147.897 195.848 147.944 195.715 147.944Z" fill="black" fill-opacity="0.4"/>
<circle cx="208" cy="151.494" r="2" fill="#D9D9D9"/>
<path d="M183.027 118.98H182.201C182.14 118.785 182.061 118.595 181.966 118.414L182.55 117.829C182.629 117.751 182.672 117.646 182.672 117.535C182.672 117.423 182.629 117.319 182.55 117.24L181.705 116.394C181.626 116.316 181.521 116.272 181.41 116.272C181.299 116.272 181.194 116.316 181.115 116.394L180.531 116.979C180.35 116.883 180.16 116.804 179.965 116.743C179.965 115.32 180.109 115.501 178.352 115.501C178.122 115.501 177.936 115.688 177.936 115.918V116.743C177.741 116.804 177.55 116.883 177.369 116.979C176.754 116.363 176.713 116.272 176.49 116.272C176.379 116.272 176.274 116.316 176.196 116.394C175.282 117.308 175.228 117.311 175.228 117.535C175.228 117.646 175.271 117.751 175.35 117.829L175.934 118.414C175.839 118.595 175.76 118.785 175.699 118.98H174.873C174.644 118.98 174.457 119.167 174.457 119.397V120.593C174.457 120.822 174.644 121.009 174.873 121.009H175.699C175.76 121.204 175.839 121.394 175.934 121.576L175.35 122.16C175.271 122.239 175.228 122.343 175.228 122.455C175.228 122.566 175.271 122.671 175.35 122.749L176.196 123.595C176.358 123.758 176.622 123.758 176.785 123.595L177.369 123.01C177.55 123.106 177.741 123.185 177.935 123.246V124.071C177.935 124.301 178.122 124.488 178.352 124.488C180.139 124.488 179.965 124.648 179.965 123.246C180.16 123.185 180.35 123.106 180.531 123.01L181.115 123.595C181.194 123.674 181.299 123.717 181.41 123.717C181.635 123.717 181.64 123.659 182.55 122.749C182.629 122.671 182.672 122.566 182.672 122.455C182.672 122.343 182.629 122.239 182.55 122.16L181.966 121.576C182.061 121.394 182.14 121.204 182.201 121.009H183.027C183.257 121.009 183.444 120.822 183.444 120.593V119.397C183.444 119.167 183.257 118.98 183.027 118.98ZM180.951 119.995C180.951 121.098 180.054 121.996 178.95 121.996C177.847 121.996 176.949 121.098 176.949 119.995C176.949 118.891 177.847 117.994 178.95 117.994C180.054 117.994 180.951 118.891 180.951 119.995Z" fill="black" fill-opacity="0.4"/>
<path d="M173.016 117.198C172.969 117.046 172.907 116.899 172.833 116.758C173.311 116.281 173.382 116.249 173.382 116.076C173.382 115.99 173.348 115.908 173.287 115.847L172.631 115.191C172.57 115.13 172.488 115.096 172.402 115.096C172.316 115.096 172.234 115.13 172.173 115.191L171.72 115.645C171.579 115.571 171.432 115.509 171.28 115.462V114.821C171.28 114.643 171.135 114.498 170.957 114.498C169.57 114.498 169.706 114.374 169.706 115.462C169.554 115.509 169.407 115.571 169.266 115.645C168.788 115.167 168.756 115.096 168.584 115.096C168.498 115.096 168.416 115.13 168.355 115.191C167.655 115.891 167.604 115.9 167.604 116.076C167.604 116.162 167.638 116.244 167.699 116.305L168.152 116.758C168.079 116.899 168.017 117.046 167.97 117.198C166.866 117.198 167.006 117.086 167.006 118.449C167.006 118.627 167.151 118.773 167.329 118.773H167.97C168.017 118.924 168.079 119.071 168.152 119.212C167.675 119.69 167.604 119.722 167.604 119.894C167.604 119.98 167.638 120.062 167.699 120.123L168.355 120.779C168.416 120.84 168.497 120.874 168.584 120.874C168.67 120.874 168.752 120.84 168.813 120.779L169.266 120.325C169.407 120.399 169.554 120.461 169.706 120.508V121.149C169.706 121.327 169.851 121.472 170.029 121.472C171.416 121.472 171.28 121.596 171.28 120.508C171.432 120.461 171.579 120.399 171.72 120.325L172.173 120.779C172.3 120.905 172.504 120.905 172.631 120.779C173.331 120.079 173.382 120.07 173.382 119.894C173.382 119.722 173.312 119.691 172.833 119.212C172.907 119.071 172.969 118.924 173.016 118.772H173.657C173.835 118.772 173.98 118.627 173.98 118.449C173.98 117.062 174.104 117.198 173.016 117.198ZM172.046 117.985C172.046 118.841 171.349 119.538 170.493 119.538C169.637 119.538 168.94 118.841 168.94 117.985C168.94 117.129 169.637 116.432 170.493 116.432C171.349 116.432 172.046 117.129 172.046 117.985Z" fill="black" fill-opacity="0.4"/>
<path d="M170 130.494V139.278H178.214L177.737 138.807L177.368 138.06L177.084 138.25C176.65 138.539 176.122 138.667 175.597 138.611C175.147 138.563 174.711 138.371 174.37 138.072C173.878 137.641 173.599 137.02 173.604 136.367C173.609 135.715 173.898 135.098 174.396 134.675C174.752 134.373 175.203 134.187 175.668 134.152C176.333 134.102 176.957 134.333 177.426 134.802C178.179 135.554 178.297 136.742 177.707 137.627L177.517 137.91L178.264 138.28L178.598 138.609V130.494H170ZM178.474 138.314L178.337 138.179L177.698 137.862L177.81 137.695C178.432 136.762 178.307 135.509 177.513 134.715C177.019 134.22 176.36 133.976 175.658 134.029C175.168 134.066 174.692 134.262 174.316 134.581C173.791 135.027 173.486 135.678 173.481 136.366C173.476 137.055 173.77 137.71 174.288 138.164C174.649 138.481 175.109 138.683 175.584 138.734C176.138 138.793 176.695 138.657 177.152 138.352L177.319 138.24L177.636 138.88L177.914 139.155H170.123V130.617H178.474V138.314Z" fill="#4A555F"/>
<path d="M170.267 130.761V139.011H177.565L177.518 138.965L177.263 138.451L177.232 138.472C176.821 138.746 176.34 138.891 175.843 138.891C175.752 138.891 175.659 138.886 175.569 138.877C175.064 138.822 174.576 138.608 174.194 138.273C173.644 137.791 173.332 137.096 173.337 136.365C173.343 135.635 173.666 134.945 174.223 134.471C174.228 134.467 174.232 134.464 174.237 134.46H170.883V131.268H177.767V134.46H177.448C177.506 134.508 177.561 134.559 177.615 134.613C178.025 135.023 178.267 135.549 178.331 136.095V130.761H170.267ZM171.945 134.886L172.751 135.699H172.346V138.411H171.551V135.699H171.138L171.945 134.886ZM177.908 137.806L178.331 138.015V136.682C178.286 137.064 178.153 137.439 177.929 137.775L177.908 137.806Z" fill="#DFDFDF"/>
<path d="M174.001 136.666L173.879 136.685C173.885 136.726 173.893 136.769 173.902 136.81L174.022 136.783C174.014 136.745 174.007 136.705 174.001 136.666ZM173.98 136.429L173.857 136.432C173.858 136.474 173.86 136.517 173.864 136.558L173.987 136.548C173.983 136.508 173.981 136.468 173.98 136.429ZM174.051 136.899L173.933 136.933C173.945 136.974 173.958 137.014 173.972 137.054L174.088 137.013C174.075 136.975 174.062 136.937 174.051 136.899ZM174.029 135.956L173.909 135.927C173.9 135.968 173.891 136.01 173.884 136.052L174.006 136.072C174.012 136.033 174.02 135.994 174.029 135.956ZM173.989 136.191L173.867 136.178C173.863 136.22 173.859 136.262 173.858 136.305L173.981 136.309C173.982 136.27 173.985 136.23 173.989 136.191ZM174.24 137.336L174.134 137.399C174.156 137.435 174.179 137.471 174.203 137.506L174.304 137.436C174.282 137.404 174.26 137.37 174.24 137.336ZM174.664 134.785L174.738 134.884C174.769 134.861 174.802 134.838 174.836 134.816L174.769 134.713C174.734 134.736 174.698 134.76 174.664 134.785ZM174.638 137.965C174.672 137.99 174.707 138.015 174.742 138.039L174.81 137.936C174.777 137.914 174.745 137.891 174.713 137.867L174.638 137.965ZM174.447 137.798C174.477 137.828 174.508 137.857 174.54 137.884L174.621 137.791C174.591 137.765 174.562 137.738 174.533 137.71L174.447 137.798ZM174.375 137.532L174.278 137.608C174.304 137.642 174.331 137.674 174.359 137.706L174.451 137.624C174.425 137.594 174.399 137.563 174.375 137.532ZM174.132 137.123L174.018 137.172C174.035 137.211 174.053 137.25 174.073 137.287L174.182 137.231C174.164 137.196 174.147 137.16 174.132 137.123ZM174.321 135.308L174.221 135.237C174.197 135.271 174.173 135.307 174.151 135.343L174.256 135.407C174.277 135.374 174.299 135.34 174.321 135.308ZM177.508 135.549L177.618 135.494C177.599 135.456 177.579 135.418 177.557 135.382L177.451 135.444C177.471 135.478 177.49 135.514 177.508 135.549ZM177.601 135.768L177.717 135.728C177.703 135.688 177.688 135.648 177.671 135.609L177.558 135.657C177.573 135.693 177.588 135.731 177.601 135.768ZM177.387 135.343L177.49 135.274C177.466 135.239 177.441 135.205 177.415 135.171L177.318 135.247C177.342 135.278 177.365 135.31 177.387 135.343ZM177.242 135.155L177.334 135.073C177.306 135.042 177.277 135.01 177.247 134.981L177.229 134.963L177.143 135.051L177.16 135.068C177.188 135.096 177.215 135.125 177.242 135.155ZM177.699 136.234L177.822 136.224C177.819 136.182 177.814 136.139 177.808 136.097L177.686 136.115C177.692 136.154 177.696 136.194 177.699 136.234ZM177.665 135.998L177.786 135.972C177.777 135.931 177.767 135.89 177.755 135.849L177.637 135.882C177.647 135.92 177.657 135.959 177.665 135.998ZM174.472 135.123L174.381 135.039C174.352 135.07 174.324 135.103 174.298 135.136L174.393 135.213C174.419 135.182 174.445 135.152 174.472 135.123ZM174.85 138.106C174.886 138.127 174.924 138.147 174.962 138.166L175.016 138.055C174.981 138.038 174.946 138.019 174.911 137.999L174.85 138.106ZM174.196 135.511L174.088 135.453C174.068 135.49 174.049 135.529 174.032 135.567L174.144 135.618C174.16 135.582 174.178 135.546 174.196 135.511ZM174.644 134.958L174.565 134.864C174.532 134.891 174.5 134.92 174.47 134.949L174.555 135.038C174.584 135.01 174.614 134.984 174.644 134.958ZM174.099 135.728L173.983 135.684C173.968 135.724 173.955 135.764 173.942 135.805L174.06 135.841C174.072 135.803 174.085 135.765 174.099 135.728ZM177.136 134.877C177.104 134.85 177.07 134.823 177.037 134.798L176.962 134.896C176.994 134.92 177.025 134.945 177.055 134.971L177.136 134.877ZM176.324 134.585C176.362 134.595 176.4 134.607 176.438 134.619L176.477 134.502C176.437 134.489 176.396 134.477 176.355 134.466L176.324 134.585ZM176.938 137.892L177.011 137.992C177.045 137.967 177.078 137.941 177.111 137.914L177.032 137.819C177.002 137.845 176.97 137.869 176.938 137.892ZM177.284 137.566L177.379 137.644C177.406 137.611 177.432 137.577 177.457 137.543L177.357 137.471C177.334 137.503 177.309 137.535 177.284 137.566ZM176.521 138.121L176.566 138.236C176.605 138.22 176.644 138.203 176.682 138.186L176.63 138.074C176.595 138.091 176.558 138.107 176.521 138.121ZM176.764 134.765C176.798 134.785 176.832 134.806 176.865 134.827L176.933 134.724C176.898 134.701 176.861 134.679 176.825 134.658L176.764 134.765ZM176.737 138.02L176.796 138.128C176.833 138.108 176.87 138.086 176.905 138.064L176.839 137.96C176.806 137.981 176.771 138.001 176.737 138.02ZM174.878 134.648L174.938 134.755C174.973 134.736 175.008 134.718 175.044 134.701L174.991 134.589C174.953 134.607 174.915 134.627 174.878 134.648ZM177.16 137.703C177.147 137.715 177.134 137.728 177.121 137.74L177.206 137.83C177.22 137.817 177.234 137.803 177.247 137.79C177.264 137.773 177.28 137.756 177.296 137.739L177.206 137.655C177.191 137.671 177.175 137.687 177.16 137.703ZM177.677 136.709L177.799 136.73C177.806 136.689 177.812 136.647 177.817 136.604L177.694 136.591C177.69 136.63 177.684 136.67 177.677 136.709ZM177.829 136.351L177.705 136.353C177.706 136.364 177.706 136.374 177.706 136.385C177.706 136.414 177.705 136.443 177.704 136.472L177.827 136.478C177.828 136.447 177.829 136.416 177.829 136.385C177.829 136.374 177.829 136.362 177.829 136.351ZM177.621 136.94L177.739 136.977C177.752 136.937 177.763 136.896 177.773 136.855L177.653 136.826C177.644 136.864 177.633 136.903 177.621 136.94ZM177.536 137.163L177.648 137.214C177.666 137.176 177.682 137.137 177.697 137.097L177.582 137.053C177.568 137.09 177.553 137.127 177.536 137.163ZM177.423 137.372L177.527 137.438C177.55 137.402 177.571 137.365 177.591 137.328L177.483 137.27C177.464 137.304 177.444 137.339 177.423 137.372ZM176.549 134.661C176.586 134.676 176.623 134.692 176.658 134.709L176.712 134.599C176.674 134.58 176.635 134.563 176.596 134.547L176.549 134.661ZM176.294 138.193L176.323 138.313C176.364 138.302 176.405 138.291 176.446 138.278L176.408 138.161C176.371 138.173 176.332 138.184 176.294 138.193ZM175.318 138.301C175.358 138.312 175.4 138.322 175.441 138.33L175.466 138.21C175.427 138.202 175.388 138.192 175.35 138.182L175.318 138.301ZM175.35 134.46L175.38 134.58C175.418 134.57 175.458 134.561 175.496 134.554L175.474 134.433C175.432 134.441 175.39 134.45 175.35 134.46ZM175.108 134.539L175.153 134.653C175.19 134.639 175.228 134.625 175.265 134.613L175.227 134.496C175.187 134.509 175.147 134.523 175.108 134.539ZM175.077 138.218C175.116 138.235 175.156 138.25 175.196 138.263L175.236 138.147C175.199 138.134 175.161 138.12 175.125 138.105L175.077 138.218ZM175.566 138.352C175.608 138.358 175.65 138.362 175.693 138.366L175.702 138.243C175.662 138.24 175.622 138.235 175.583 138.23L175.566 138.352ZM175.599 134.413L175.614 134.536C175.654 134.531 175.694 134.527 175.733 134.525L175.726 134.402C175.684 134.404 175.641 134.408 175.599 134.413ZM176.09 134.538C176.129 134.543 176.169 134.55 176.208 134.558L176.232 134.437C176.19 134.429 176.148 134.422 176.106 134.416L176.09 134.538ZM176.059 138.236L176.073 138.358C176.115 138.353 176.157 138.347 176.199 138.339L176.177 138.218C176.138 138.225 176.098 138.231 176.059 138.236ZM175.852 134.522C175.892 134.522 175.932 134.523 175.971 134.526L175.98 134.403C175.938 134.4 175.895 134.399 175.853 134.399L175.852 134.522ZM175.843 138.248L175.821 138.248L175.82 138.371L175.843 138.371C175.878 138.371 175.912 138.37 175.947 138.369L175.94 138.245C175.908 138.247 175.876 138.248 175.843 138.248Z" fill="#4A555F"/>
<path d="M177.021 135.206C176.706 134.891 176.288 134.718 175.842 134.718C175.397 134.718 174.979 134.891 174.664 135.206C174.014 135.856 174.014 136.913 174.664 137.563C174.979 137.878 175.398 138.052 175.843 138.052C176.288 138.052 176.706 137.878 177.021 137.564C177.336 137.249 177.509 136.831 177.509 136.385C177.509 135.94 177.336 135.521 177.021 135.206Z" fill="black" fill-opacity="0.4"/>
<path d="M176.848 135.379C176.58 135.11 176.222 134.962 175.842 134.962C175.463 134.962 175.105 135.11 174.837 135.379C174.569 135.647 174.421 136.004 174.421 136.385C174.421 136.765 174.569 137.122 174.837 137.39C175.106 137.659 175.463 137.807 175.843 137.807C176.223 137.807 176.58 137.659 176.848 137.391C177.117 137.122 177.265 136.765 177.265 136.385C177.265 136.005 177.117 135.648 176.848 135.379ZM176.761 137.304C176.516 137.549 176.19 137.684 175.843 137.684C175.496 137.684 175.169 137.549 174.924 137.303C174.679 137.058 174.544 136.732 174.544 136.385C174.544 136.037 174.679 135.711 174.924 135.466C175.169 135.221 175.495 135.086 175.842 135.086C176.19 135.086 176.516 135.221 176.761 135.466C177.007 135.712 177.142 136.038 177.142 136.385C177.142 136.732 177.007 137.058 176.761 137.304Z" fill="#4A555F"/>
<path d="M179.823 139.646L178.337 138.179L177.698 137.862L177.809 137.695C178.432 136.762 178.307 135.509 177.513 134.714C177.019 134.22 176.36 133.976 175.659 134.029C175.168 134.066 174.692 134.262 174.316 134.581C173.791 135.027 173.486 135.678 173.481 136.366C173.476 137.055 173.77 137.71 174.288 138.164C174.649 138.481 175.109 138.683 175.584 138.734C176.137 138.793 176.695 138.657 177.152 138.352L177.319 138.24L177.636 138.88L179.126 140.351C179.222 140.446 179.348 140.494 179.474 140.494C179.601 140.494 179.728 140.445 179.825 140.349C179.919 140.255 179.97 140.13 179.97 139.997C179.97 139.864 179.917 139.739 179.823 139.646ZM179.738 140.262C179.593 140.406 179.358 140.407 179.212 140.263L177.737 138.807L177.368 138.06L177.084 138.249C176.65 138.539 176.122 138.667 175.597 138.611C175.147 138.563 174.712 138.371 174.37 138.072C173.878 137.641 173.599 137.02 173.604 136.367C173.609 135.715 173.898 135.098 174.396 134.675C174.752 134.372 175.203 134.187 175.668 134.152C176.333 134.102 176.957 134.333 177.426 134.801C178.179 135.554 178.297 136.743 177.707 137.627L177.517 137.91L178.264 138.28L179.736 139.733C179.807 139.804 179.846 139.897 179.847 139.997C179.847 140.097 179.808 140.191 179.738 140.262Z" fill="#4A555F"/>
<path d="M179.612 139.859L178.161 138.426L177.611 138.154L177.882 138.702L179.337 140.138C179.374 140.174 179.422 140.194 179.474 140.194C179.527 140.194 179.576 140.174 179.613 140.137C179.65 140.1 179.67 140.05 179.67 139.998C179.67 139.945 179.649 139.896 179.612 139.859Z" fill="black" fill-opacity="0.4"/>
<path d="M177.564 137.842L177.3 138.106L177.387 138.193L177.651 137.929L177.564 137.842Z" fill="#4A555F"/>
<path d="M173.286 132.534L173.197 132.62L173.929 133.373L174.017 133.288L173.286 132.534Z" fill="#4A555F"/>
<path d="M176.046 132.093L175.956 132.177L176.361 132.615L176.452 132.531L176.046 132.093Z" fill="#4A555F"/>
<path d="M177.21 132.013L176.677 132.519L176.762 132.608L177.295 132.102L177.21 132.013Z" fill="#4A555F"/>
<path d="M175.63 132.07L174.248 133.298L174.33 133.39L175.712 132.162L175.63 132.07Z" fill="#4A555F"/>
<path d="M172.927 132.525L171.416 133.927L171.5 134.018L173.011 132.616L172.927 132.525Z" fill="#4A555F"/>
<path d="M171.945 134.798L170.99 135.76H171.489V138.472H172.408V135.76H172.899L171.945 134.798ZM172.284 135.637V138.349H171.613V135.637H171.286L171.945 134.973L172.603 135.637H172.284Z" fill="#4A555F"/>
<path d="M171.945 135.177L171.631 135.494H171.757V138.206H172.141V135.494H172.258L171.945 135.177Z" fill="black" fill-opacity="0.4"/>
<path d="M172.772 138.477H172.895V138.354H172.772V138.477ZM172.772 137.984H172.895V137.861H172.772V137.984ZM172.772 138.23H172.895V138.107H172.772V138.23ZM172.772 137.368V137.491H172.895V137.368H172.772ZM172.772 137.738H172.895V137.615H172.772V137.738Z" fill="#4A555F"/>
<path d="M170.938 137.949H171.061V137.826H170.938V137.949ZM170.938 137.703H171.061V137.58H170.938V137.703ZM170.938 138.196H171.061V138.073H170.938V138.196ZM170.938 138.442H171.061V138.319H170.938V138.442ZM170.938 136.841V136.964H171.061V136.841H170.938ZM170.938 137.457H171.061V137.334H170.938V137.457ZM170.938 137.21H171.061V137.087H170.938V137.21Z" fill="#4A555F"/>
<path d="M171.001 136.473L170.707 136.8L170.799 136.882L170.998 136.661L171.181 136.88L171.276 136.801L171.001 136.473Z" fill="#4A555F"/>
<path d="M172.844 136.966L172.55 137.292L172.641 137.375L172.84 137.154L173.024 137.373L173.118 137.294L172.844 136.966Z" fill="#4A555F"/>
<path d="M173.109 132.166C172.964 132.166 172.847 132.283 172.847 132.427C172.847 132.572 172.964 132.689 173.109 132.689C173.253 132.689 173.371 132.572 173.371 132.427C173.371 132.283 173.253 132.166 173.109 132.166ZM173.109 132.566C173.032 132.566 172.97 132.504 172.97 132.427C172.97 132.351 173.032 132.289 173.109 132.289C173.185 132.289 173.247 132.351 173.247 132.427C173.247 132.504 173.185 132.566 173.109 132.566Z" fill="#4A555F"/>
<path d="M174.126 133.197C173.982 133.197 173.864 133.315 173.864 133.459C173.864 133.603 173.982 133.721 174.126 133.721C174.27 133.721 174.388 133.603 174.388 133.459C174.388 133.315 174.27 133.197 174.126 133.197ZM174.126 133.598C174.05 133.598 173.987 133.535 173.987 133.459C173.987 133.382 174.05 133.32 174.126 133.32C174.202 133.32 174.265 133.382 174.265 133.459C174.265 133.535 174.202 133.598 174.126 133.598Z" fill="#4A555F"/>
<path d="M175.843 131.751C175.698 131.751 175.581 131.868 175.581 132.013C175.581 132.157 175.698 132.275 175.843 132.275C175.987 132.275 176.104 132.157 176.104 132.013C176.104 131.868 175.987 131.751 175.843 131.751ZM175.843 132.151C175.766 132.151 175.704 132.089 175.704 132.013C175.704 131.936 175.766 131.874 175.843 131.874C175.919 131.874 175.981 131.936 175.981 132.013C175.981 132.089 175.919 132.151 175.843 132.151Z" fill="#4A555F"/>
<path d="M176.566 132.43C176.422 132.43 176.305 132.548 176.305 132.692C176.305 132.837 176.422 132.954 176.566 132.954C176.711 132.954 176.828 132.837 176.828 132.692C176.828 132.548 176.711 132.43 176.566 132.43ZM176.566 132.831C176.49 132.831 176.428 132.769 176.428 132.692C176.428 132.616 176.49 132.554 176.566 132.554C176.643 132.554 176.705 132.616 176.705 132.692C176.705 132.769 176.643 132.831 176.566 132.831Z" fill="#4A555F"/>
<path d="M172.039 134.294H172.162V134.171H172.039V134.294ZM171.793 134.294H171.916V134.171H171.793V134.294ZM171.054 134.294H171.177V134.171H171.054V134.294ZM172.286 134.294H172.409V134.171H172.286V134.294ZM171.3 134.294H171.423V134.171H171.3V134.294ZM171.546 134.294H171.67V134.171H171.546V134.294ZM172.778 134.294H172.901V134.171H172.778V134.294ZM173.517 134.294H173.64V134.171H173.517V134.294ZM173.764 134.171V134.294H173.887V134.171H173.764ZM173.271 134.294H173.394V134.171H173.271V134.294ZM173.025 134.294H173.148V134.171H173.025V134.294ZM172.532 134.294H172.655V134.171H172.532V134.294Z" fill="#4A555F"/>
<path d="M171.051 133.071H171.175V132.947H171.051V133.071ZM171.051 133.563H171.175V133.44H171.051V133.563ZM171.051 133.81H171.175V133.687H171.051V133.81ZM171.051 134.056H171.175V133.933H171.051V134.056ZM171.051 133.317H171.175V133.194H171.051V133.317ZM171.051 132.085H171.175V131.962H171.051V132.085ZM171.051 131.716V131.839H171.175V131.716H171.051ZM171.051 132.824H171.175V132.701H171.051V132.824ZM171.051 132.578H171.175V132.455H171.051V132.578ZM171.051 132.332H171.175V132.208H171.051V132.332Z" fill="#4A555F"/>
<path d="M177.461 133.092H177.584V132.969H177.461V133.092ZM177.461 133.338H177.584V133.215H177.461V133.338ZM177.461 133.831H177.584V133.708H177.461V133.831ZM177.461 134.078H177.584V133.954H177.461V134.078ZM177.461 133.585H177.584V133.462H177.461V133.585ZM177.461 132.107H177.584V131.983H177.461V132.107ZM177.461 132.846H177.584V132.723H177.461V132.846ZM177.461 131.737V131.86H177.584V131.737H177.461V131.737ZM177.461 132.353H177.584V132.23H177.461V132.353ZM177.461 132.599H177.584V132.476H177.461V132.599Z" fill="#4A555F"/>
<path d="M174.256 131.614H174.379V131.491H174.256V131.614ZM173.27 131.614H173.394V131.491H173.27V131.614ZM172.531 131.614H172.654V131.491H172.531V131.614ZM172.778 131.614H172.901V131.491H172.778V131.614ZM173.763 131.614H173.886V131.491H173.763V131.614ZM173.517 131.614H173.64V131.491H173.517V131.614ZM173.024 131.614H173.147V131.491H173.024V131.614ZM172.285 131.614H172.408V131.491H172.285V131.614ZM171.299 131.614H171.423V131.491H171.299V131.614ZM171.053 131.614H171.176V131.491H171.053V131.614ZM171.546 131.614H171.669V131.491H171.546V131.614ZM172.039 131.614H172.162V131.491H172.039V131.614ZM171.792 131.614H171.915V131.491H171.792V131.614ZM174.009 131.614H174.133V131.491H174.009V131.614ZM176.719 131.614H176.843V131.491H176.719V131.614ZM176.227 131.614H176.35V131.491H176.227V131.614ZM176.473 131.614H176.596V131.491H176.473V131.614ZM176.966 131.614H177.089V131.491H176.966V131.614ZM177.212 131.614H177.335V131.491H177.212V131.614ZM177.458 131.491V131.614H177.582V131.491H177.458ZM175.488 131.614H175.611V131.491H175.488V131.614ZM174.995 131.614H175.118V131.491H174.995V131.614ZM175.98 131.614H176.103V131.491H175.98V131.614ZM174.748 131.614H174.872V131.491H174.748V131.614ZM175.241 131.614H175.364V131.491H175.241V131.614ZM175.734 131.614H175.857V131.491H175.734V131.614ZM174.502 131.614H174.625V131.491H174.502V131.614Z" fill="#4A555F"/>
<path d="M146.271 81.5086H108.234C108.128 81.5086 108.026 81.4665 107.951 81.3915C107.876 81.3165 107.834 81.2148 107.834 81.1088C107.836 81.0034 107.879 80.9029 107.953 80.8284C108.028 80.7538 108.128 80.711 108.234 80.709H146.271C146.377 80.709 146.479 80.7511 146.554 80.8261C146.629 80.9011 146.671 81.0028 146.671 81.1088C146.671 81.2148 146.629 81.3165 146.554 81.3915C146.479 81.4665 146.377 81.5086 146.271 81.5086Z" fill="#D1D3D4"/>
<path d="M146.271 84.2112H108.234C108.128 84.2112 108.026 84.1691 107.951 84.0941C107.876 84.0192 107.834 83.9175 107.834 83.8114C107.836 83.706 107.879 83.6055 107.953 83.531C108.028 83.4564 108.128 83.4137 108.234 83.4116H146.271C146.377 83.4116 146.479 83.4537 146.554 83.5287C146.629 83.6037 146.671 83.7054 146.671 83.8114C146.671 83.9175 146.629 84.0192 146.554 84.0941C146.479 84.1691 146.377 84.2112 146.271 84.2112Z" fill="#D1D3D4"/>
<path d="M142.361 86.9458H108.234C108.128 86.9458 108.026 86.9037 107.951 86.8287C107.876 86.7538 107.834 86.6521 107.834 86.546C107.836 86.4407 107.879 86.3401 107.953 86.2656C108.028 86.1911 108.128 86.1483 108.234 86.1462H142.361C142.466 86.1483 142.567 86.1911 142.642 86.2656C142.716 86.3401 142.759 86.4407 142.761 86.546C142.761 86.6521 142.719 86.7538 142.644 86.8287C142.569 86.9037 142.467 86.9458 142.361 86.9458Z" fill="#D1D3D4"/>

</svg>
