<svg width="240" height="282" fill="none" xmlns="http://www.w3.org/2000/svg"><defs><linearGradient id="a" x1="202.977" y1="144.08" x2="112.432" y2="179.152" gradientUnits="userSpaceOnUse"><stop stop-color="#2FD6DB" stop-opacity=".684"/><stop stop-color="#4CDB2F" stop-opacity=".684"/><stop stop-color="#4CDB2F" stop-opacity=".684"/><stop offset="0" stop-color="#4CDB2F" stop-opacity=".684"/><stop offset=".063" stop-color="#4CDB2F" stop-opacity=".684"/><stop offset=".109" stop-color="#4CDB2F" stop-opacity=".684"/><stop offset=".135" stop-color="#4CDB2F" stop-opacity=".967"/><stop offset=".172" stop-color="#4CDB2F" stop-opacity=".86"/><stop offset=".172" stop-color="#4CDB2F" stop-opacity=".818"/><stop offset=".245" stop-color="#4CDB2F"/><stop offset=".294" stop-color="#4CDB2F" stop-opacity=".979"/><stop offset=".347" stop-color="#4CDB2F" stop-opacity=".956"/><stop offset=".417" stop-color="#4CDB2F" stop-opacity=".926"/><stop offset=".453" stop-color="#4CDB2F" stop-opacity=".937"/><stop offset=".453" stop-color="#4CDB2F" stop-opacity=".819"/><stop offset=".537" stop-color="#4CDB2F" stop-opacity=".712"/><stop offset=".615" stop-color="#4CDB2F" stop-opacity=".613"/><stop offset=".656" stop-color="#4CDB2F" stop-opacity=".56"/><stop offset=".708" stop-color="#4CDB2F" stop-opacity=".524"/><stop offset=".758" stop-color="#4CDB2F" stop-opacity=".467"/><stop offset=".789" stop-color="#4CDB2F" stop-opacity=".43"/><stop offset=".826" stop-color="#4CDB2F" stop-opacity=".388"/><stop offset=".861" stop-color="#4CDB2F" stop-opacity=".347"/><stop offset=".911" stop-color="#4CDB2F" stop-opacity=".289"/><stop offset="1" stop-color="#4CDB2F" stop-opacity=".857"/><stop offset="1" stop-color="#4CDB2F" stop-opacity=".436"/><stop offset="1" stop-color="#4CDB2F" stop-opacity=".55"/><stop offset="1" stop-color="#4CDB2F" stop-opacity=".128"/><stop offset="1" stop-color="#4CDB2F" stop-opacity="0"/></linearGradient><linearGradient id="b" x1="150.881" y1="177.827" x2="84.817" y2="206.658" gradientUnits="userSpaceOnUse"><stop stop-color="#2FD6DB" stop-opacity=".684"/><stop stop-color="#4CDB2F" stop-opacity=".684"/><stop stop-color="#4CDB2F" stop-opacity=".684"/><stop offset="0" stop-color="#4CDB2F" stop-opacity=".684"/><stop offset=".063" stop-color="#4CDB2F" stop-opacity=".684"/><stop offset=".109" stop-color="#4CDB2F" stop-opacity=".684"/><stop offset=".135" stop-color="#4CDB2F" stop-opacity=".967"/><stop offset=".172" stop-color="#4CDB2F" stop-opacity=".86"/><stop offset=".172" stop-color="#4CDB2F" stop-opacity=".818"/><stop offset=".245" stop-color="#4CDB2F"/><stop offset=".294" stop-color="#4CDB2F" stop-opacity=".979"/><stop offset=".347" stop-color="#4CDB2F" stop-opacity=".956"/><stop offset=".417" stop-color="#4CDB2F" stop-opacity=".926"/><stop offset=".453" stop-color="#4CDB2F" stop-opacity=".937"/><stop offset=".453" stop-color="#4CDB2F" stop-opacity=".819"/><stop offset=".537" stop-color="#4CDB2F" stop-opacity=".712"/><stop offset=".615" stop-color="#4CDB2F" stop-opacity=".613"/><stop offset=".656" stop-color="#4CDB2F" stop-opacity=".56"/><stop offset=".708" stop-color="#4CDB2F" stop-opacity=".524"/><stop offset=".758" stop-color="#4CDB2F" stop-opacity=".467"/><stop offset=".789" stop-color="#4CDB2F" stop-opacity=".43"/><stop offset=".826" stop-color="#4CDB2F" stop-opacity=".388"/><stop offset=".861" stop-color="#4CDB2F" stop-opacity=".347"/><stop offset=".911" stop-color="#4CDB2F" stop-opacity=".289"/><stop offset="1" stop-color="#4CDB2F" stop-opacity=".857"/><stop offset="1" stop-color="#4CDB2F" stop-opacity=".436"/><stop offset="1" stop-color="#4CDB2F" stop-opacity=".55"/><stop offset="1" stop-color="#4CDB2F" stop-opacity=".128"/><stop offset="1" stop-color="#4CDB2F" stop-opacity="0"/></linearGradient><linearGradient id="c" x1="163.513" y1="179.636" x2="112.255" y2="205.379" gradientUnits="userSpaceOnUse"><stop stop-color="#2FD6DB" stop-opacity=".684"/><stop stop-color="#4CDB2F" stop-opacity=".684"/><stop stop-color="#4CDB2F" stop-opacity=".684"/><stop offset="0" stop-color="#4CDB2F" stop-opacity=".684"/><stop offset=".063" stop-color="#4CDB2F" stop-opacity=".684"/><stop offset=".109" stop-color="#4CDB2F" stop-opacity=".684"/><stop offset=".135" stop-color="#4CDB2F" stop-opacity=".967"/><stop offset=".172" stop-color="#4CDB2F" stop-opacity=".86"/><stop offset=".172" stop-color="#4CDB2F" stop-opacity=".818"/><stop offset=".245" stop-color="#4CDB2F"/><stop offset=".294" stop-color="#4CDB2F" stop-opacity=".979"/><stop offset=".347" stop-color="#4CDB2F" stop-opacity=".956"/><stop offset=".417" stop-color="#4CDB2F" stop-opacity=".926"/><stop offset=".453" stop-color="#4CDB2F" stop-opacity=".937"/><stop offset=".453" stop-color="#4CDB2F" stop-opacity=".819"/><stop offset=".537" stop-color="#4CDB2F" stop-opacity=".712"/><stop offset=".615" stop-color="#4CDB2F" stop-opacity=".613"/><stop offset=".656" stop-color="#4CDB2F" stop-opacity=".56"/><stop offset=".708" stop-color="#4CDB2F" stop-opacity=".524"/><stop offset=".758" stop-color="#4CDB2F" stop-opacity=".467"/><stop offset=".789" stop-color="#4CDB2F" stop-opacity=".43"/><stop offset=".826" stop-color="#4CDB2F" stop-opacity=".388"/><stop offset=".861" stop-color="#4CDB2F" stop-opacity=".347"/><stop offset=".911" stop-color="#4CDB2F" stop-opacity=".289"/><stop offset="1" stop-color="#4CDB2F" stop-opacity=".857"/><stop offset="1" stop-color="#4CDB2F" stop-opacity=".436"/><stop offset="1" stop-color="#4CDB2F" stop-opacity=".55"/><stop offset="1" stop-color="#4CDB2F" stop-opacity=".128"/><stop offset="1" stop-color="#4CDB2F" stop-opacity="0"/></linearGradient><linearGradient id="d" x1="178.102" y1="173.162" x2="119.739" y2="200.665" gradientUnits="userSpaceOnUse"><stop stop-color="#2FD6DB" stop-opacity=".684"/><stop stop-color="#4CDB2F" stop-opacity=".684"/><stop stop-color="#4CDB2F" stop-opacity=".684"/><stop offset="0" stop-color="#4CDB2F" stop-opacity=".684"/><stop offset=".063" stop-color="#4CDB2F" stop-opacity=".684"/><stop offset=".109" stop-color="#4CDB2F" stop-opacity=".684"/><stop offset=".135" stop-color="#4CDB2F" stop-opacity=".967"/><stop offset=".172" stop-color="#4CDB2F" stop-opacity=".86"/><stop offset=".172" stop-color="#4CDB2F" stop-opacity=".818"/><stop offset=".245" stop-color="#4CDB2F"/><stop offset=".294" stop-color="#4CDB2F" stop-opacity=".979"/><stop offset=".347" stop-color="#4CDB2F" stop-opacity=".956"/><stop offset=".417" stop-color="#4CDB2F" stop-opacity=".926"/><stop offset=".453" stop-color="#4CDB2F" stop-opacity=".937"/><stop offset=".453" stop-color="#4CDB2F" stop-opacity=".819"/><stop offset=".537" stop-color="#4CDB2F" stop-opacity=".712"/><stop offset=".615" stop-color="#4CDB2F" stop-opacity=".613"/><stop offset=".656" stop-color="#4CDB2F" stop-opacity=".56"/><stop offset=".708" stop-color="#4CDB2F" stop-opacity=".524"/><stop offset=".758" stop-color="#4CDB2F" stop-opacity=".467"/><stop offset=".789" stop-color="#4CDB2F" stop-opacity=".43"/><stop offset=".826" stop-color="#4CDB2F" stop-opacity=".388"/><stop offset=".861" stop-color="#4CDB2F" stop-opacity=".347"/><stop offset=".911" stop-color="#4CDB2F" stop-opacity=".289"/><stop offset="1" stop-color="#4CDB2F" stop-opacity=".857"/><stop offset="1" stop-color="#4CDB2F" stop-opacity=".436"/><stop offset="1" stop-color="#4CDB2F" stop-opacity=".55"/><stop offset="1" stop-color="#4CDB2F" stop-opacity=".128"/><stop offset="1" stop-color="#4CDB2F" stop-opacity="0"/></linearGradient></defs><path d="M200.833 36.503h-41.538v3.776h41.538v-3.776Z" fill="#F1F2F2"/><path d="M91.855 176.853c1.361 2.636 1.106 5.475-.572 6.341-1.677.866-4.14-.568-5.502-3.203-.595-1.154-.881-2.347-.874-3.396l-5.629-11.24 5.331-2.529 4.983 11.349c.86.601 1.667 1.525 2.263 2.678ZM49.966 278.27l4.8-.001 2.283-18.511h-7.084l.001 18.512Z" fill="#FFB6B6"/><path d="M66.41 278.161c.148.252.227 1.064.227 1.357a1.63 1.63 0 0 1-1.629 1.629H50.146a1.112 1.112 0 0 1-1.111-1.112v-.618s-.736-1.86.778-4.152c0 0 1.881 1.794 4.693-1.017l.829-1.502 6 4.389 3.327.41c.728.089 1.373-.014 1.747.616Z" fill="#2F2E41"/><path d="m27.45 278.27 4.8-.001 2.283-18.511H27.45v18.512Z" fill="#FFB6B6"/><path d="M43.894 278.161c.149.252.228 1.064.228 1.357a1.63 1.63 0 0 1-1.63 1.629H27.63a1.112 1.112 0 0 1-1.111-1.112v-.618s-.735-1.86.778-4.152c0 0 1.882 1.794 4.693-1.017l.829-1.502 6.001 4.389 3.326.41c.728.089 1.373-.014 1.748.616ZM20.658 169.048l-2.022 12.355 6.29 39.987 1.573 48.299h8.492l4.312-45.603-.449-30.103 10.11 76.155h8.824l.835-95.474-37.965-5.616Z" fill="#2F2E41"/><path d="M31.216 105.024h15.898l13.755 8.087c-2.14-.544-3.794 19.317-3.85 36.866-.005 1.166-1.16 2.507-1.15 3.646.01.981 1.183 1.765 1.204 2.717.019.89.043 1.765.072 2.622.024.711-1.307 1.654-1.275 2.338.04.874 1.444 1.482 1.497 2.305.32 5.058.873 9.066 1.705 11.059 0 0-35.494 9.884-38.19-5.392 0 0 .154-5.49.133-13.073-.003-.672-.575-1.283-.58-1.986-.004-.523.561-1.132.556-1.67-.005-.442-.55-.832-.556-1.283-.004-.268.533-.594.529-.866-.216-14.418-1.184-32.588-4.575-37.283l14.827-8.087Z" fill="#8CD351"/><path d="M46.941 105.024s10.302 3.743 13.571 6.726c1.737 1.585 13.387 31.463 13.387 31.463l16.18 28.18-8.41 3.194-17.206-25.982-7.637-17.073-9.885-26.508Z" fill="#8CD351"/><path d="M25.573 177.919c1.502 2.558 1.401 5.407-.227 6.363-1.627.956-4.165-.342-5.667-2.9-.658-1.12-1.008-2.295-1.058-3.343l-6.23-10.918 5.185-2.814 5.592 11.061c.891.554 1.747 1.432 2.405 2.551Z" fill="#FFB6B6"/><path d="m28.97 118.952-4.493-10.334s-10.559 3.37-10.559 8.312c0 0-6.29 37.74-5.391 47.175l5.84 10.334 8.312-6.515-5.166-11.906 11.456-37.066Z" fill="#8CD351"/><path d="m19.73 186.087 5.3-10.525 6.186 8.537-5.568 5.391-5.919-3.403Z" fill="#2F2E41"/><path d="M39.015 104.494c5.68 0 10.283-7.043 10.283-12.721 0-5.68-4.604-10.283-10.283-10.283-5.678 0-10.282 4.604-10.282 10.283 0 5.678 4.604 12.721 10.282 12.721Z" fill="#FFB6B6"/><path d="M47.033 80.286c-1.787-.572-2.632-2.698-4.266-3.619-1.808-1.019-3.97-1.655-5.964-1.078-1.223.353-2.288 1.135-3.512 1.486a3.712 3.712 0 0 1-.668.125c-1.316.126-2.446.915-3.104 2.062l-.017.03c-.386.66-.935 1.208-1.422 1.798-1.778 2.154-2.74 4.954-2.72 7.747a12.547 12.547 0 0 0 3.184 8.215l.512-.236 3.718 3.211c-.674-2.433-1.355-4.952-.998-7.452s2.038-4.993 4.517-5.476c.938-.183 1.926-.072 2.837-.362.91-.29 1.748-1.226 1.436-2.129.564 1.49 2.666 1.402 4.113 2.069 3.238 1.492 2.053-.814 4.864 1.38.95-5.263 4.587-5.498-2.51-7.77Z" fill="#2F2E41"/><path d="M0 280.791a.7.7 0 0 0 .703.703h238.176a.7.7 0 0 0 .702-.703.7.7 0 0 0-.702-.703H.703a.7.7 0 0 0-.703.703Z" fill="#CCC"/><path d="M207.721 281.494H103.527c-12.704 0-23.04-10.336-23.04-23.041V34.534c0-12.704 10.336-23.04 23.04-23.04h104.194c12.704 0 23.04 10.336 23.04 23.04v223.919c0 12.705-10.336 23.041-23.04 23.041Z" fill="#3F3D56"/><path d="M228.568 34.535v223.914c0 11.058-8.607 20.104-19.49 20.806h-.004c-.161.009-.322.019-.488.024-.287.015-.575.02-.867.02 0 0-1.073-.078-3.032-.225a1360.86 1360.86 0 0 1-8.451-.653 747.33 747.33 0 0 1-3.411-.273c-2.388-.195-5.01-.409-7.822-.653-1.121-.092-2.281-.195-3.466-.297a1894.461 1894.461 0 0 1-19.981-1.823 552.494 552.494 0 0 1-3.656-.351c-.321-.034-.648-.063-.974-.097-5.098-.502-74.246-13.866-74.246-16.478V34.534c0-11.516 9.333-20.849 20.85-20.849h12.447c1.988 0 3.587 1.55 3.757 3.533.015.132.03.264.054.395.361 1.994 2.188 3.383 4.216 3.383h63.24c2.028 0 3.856-1.39 4.216-3.383.025-.131.039-.263.054-.395.17-1.983 1.769-3.533 3.757-3.533h12.448c11.516 0 20.849 9.333 20.849 20.85Z" fill="#fff"/><path d="M176.608 149.774c0 .574-1.168 1.04-2.608 1.04-1.441 0-2.609-.466-2.609-1.04v-1.224h5.217v1.224Z" fill="#000" fill-opacity=".4"/><path d="M174 150.813c-1.441 0-2.609-.465-2.609-1.04v1.638c0 .574 1.168 1.04 2.609 1.04 1.44 0 2.608-.466 2.608-1.04v-1.638c0 .575-1.168 1.04-2.608 1.04Z" fill="#000" fill-opacity=".4"/><path d="M174 152.45c-1.441 0-2.609-.466-2.609-1.04v1.638c0 .574 1.168 1.04 2.609 1.04 1.44 0 2.608-.466 2.608-1.04v-1.638c0 .574-1.168 1.04-2.608 1.04ZM171.679 148.55h-.288v1.224c0 .17.105.331.288.473v-1.697Z" fill="#000" fill-opacity=".4"/><path d="M171.679 151.883c-.183-.142-.288-.302-.288-.473v1.638c0 .171.105.331.288.473v-1.638ZM174 150.901c-1.512 0-2.696-.495-2.696-1.128v-1.223c0-.048.039-.087.087-.087h5.217c.048 0 .088.039.088.087v1.223c0 .633-1.185 1.128-2.696 1.128Zm-2.521-2.263v1.135c0 .517 1.154.953 2.521.953 1.366 0 2.521-.436 2.521-.953v-1.135h-5.042Z" fill="#000" fill-opacity=".4"/><path d="M174.088 149.351h-.175v.473h.175v-.473Z" fill="#000" fill-opacity=".4"/><path d="M174 152.539c-1.512 0-2.696-.495-2.696-1.128v-1.638c0-.048.039-.087.087-.087.049 0 .088.039.088.087 0 .517 1.154.953 2.521.953 1.366 0 2.521-.436 2.521-.953 0-.048.039-.087.087-.087.048 0 .088.039.088.087v1.638c0 .633-1.185 1.128-2.696 1.128Zm-2.521-2.358v1.23c0 .516 1.154.953 2.521.953 1.366 0 2.521-.436 2.521-.953v-1.23c-.384.425-1.355.72-2.521.72-1.167 0-2.138-.295-2.521-.72Z" fill="#000" fill-opacity=".4"/><path d="M174 154.175c-1.512 0-2.696-.495-2.696-1.127v-1.638c0-.048.039-.087.087-.087.049 0 .088.039.088.087 0 .516 1.154.952 2.521.952 1.366 0 2.521-.435 2.521-.952 0-.048.039-.087.087-.087.048 0 .088.039.088.087v1.638c0 .632-1.185 1.127-2.696 1.127Zm-2.521-2.357v1.23c0 .516 1.154.952 2.521.952 1.366 0 2.521-.436 2.521-.952v-1.23c-.384.425-1.355.72-2.521.72-1.167 0-2.138-.295-2.521-.72ZM177.912 147.466 174 149.351l-3.913-1.885 3.913-1.885 3.912 1.885Z" fill="#000" fill-opacity=".4"/><path d="m170.701 147.466 3.605-1.737-.306-.148-3.913 1.885 3.913 1.885.306-.147-3.605-1.738Z" fill="#000" fill-opacity=".4"/><path d="M174 149.439a.085.085 0 0 1-.038-.009l-3.912-1.885a.086.086 0 0 1-.05-.079c0-.033.019-.064.05-.078l3.912-1.886a.092.092 0 0 1 .076 0l3.912 1.885c.031.015.05.046.05.079a.086.086 0 0 1-.05.079l-3.912 1.885a.085.085 0 0 1-.038.009Zm-3.711-1.973 3.711 1.788 3.711-1.788-3.711-1.788-3.711 1.788Z" fill="#000" fill-opacity=".4"/><path d="m174 149.351-3.913-1.885v.473l3.913 1.885 3.912-1.885v-.473L174 149.351Z" fill="#000" fill-opacity=".4"/><path d="m170.354 147.595-.267-.129v.473l.267.128v-.472Z" fill="#000" fill-opacity=".4"/><path d="M174 149.911a.1.1 0 0 1-.038-.008l-3.912-1.886a.086.086 0 0 1-.05-.078v-.473c0-.03.016-.058.041-.074a.087.087 0 0 1 .084-.005l3.875 1.867 3.874-1.867a.089.089 0 0 1 .085.005.089.089 0 0 1 .041.074v.472a.086.086 0 0 1-.05.079l-3.912 1.886a.084.084 0 0 1-.038.008Zm-3.825-2.028 3.825 1.844 3.825-1.843v-.278l-3.787 1.824a.085.085 0 0 1-.076 0l-3.787-1.824v.277Z" fill="#000" fill-opacity=".4"/><path d="M170.678 149.383h-.176v-1.681c0-.033.019-.064.049-.078l1.146-.564.078.158-1.098.539v1.626h.001Z" fill="#000" fill-opacity=".4"/><path d="M170.59 149.865a.277.277 0 1 0 0-.554.277.277 0 0 0 0 .554Z" fill="#000" fill-opacity=".4"/><path d="M170.59 149.952a.365.365 0 1 1 0-.73.365.365 0 0 1 0 .73Zm0-.554a.19.19 0 1 0 0 .38.19.19 0 0 0 0-.38Z" fill="#000" fill-opacity=".4"/><path d="M170.955 151.222h-.73v-.992a.364.364 0 1 1 .73 0v.992Z" fill="#000" fill-opacity=".4"/><path d="M170.955 151.31h-.73a.087.087 0 0 1-.088-.088v-.992a.453.453 0 0 1 .905 0v.992a.087.087 0 0 1-.087.088Zm-.643-.175h.555v-.905a.278.278 0 1 0-.555 0v.905Z" fill="#000" fill-opacity=".4"/><path d="M80 70.465a.976.976 0 0 0-.976.975v7.797a.976.976 0 0 0 1.95 0V71.44a.976.976 0 0 0-.975-.975ZM80 93.858a.976.976 0 0 0-.976.975v15.108a.976.976 0 0 0 1.95 0V94.833a.976.976 0 0 0-.975-.975ZM80 115.302a.976.976 0 0 0-.976.975v15.108a.976.976 0 0 0 1.95 0v-15.108a.976.976 0 0 0-.975-.975Z" fill="#3F3D56"/><path d="M115.637 17.098h-18.64a.183.183 0 0 0-.183.184v2.07c0 .101.082.183.183.183h18.64a.183.183 0 0 0 .184-.183v-2.07a.183.183 0 0 0-.184-.184ZM198.351 19.535a1.95 1.95 0 1 0 0-3.899 1.95 1.95 0 0 0 0 3.9ZM203.712 19.535a1.95 1.95 0 1 0 0-3.899 1.95 1.95 0 0 0 0 3.9ZM209.073 19.535a1.95 1.95 0 1 0 0-3.899 1.95 1.95 0 0 0 0 3.9ZM210.867 254.612h-30.71a2.365 2.365 0 0 1-2.363-2.362 2.366 2.366 0 0 1 2.363-2.363h30.71a2.365 2.365 0 0 1 2.362 2.363 2.365 2.365 0 0 1-2.362 2.362ZM128.776 254.612h-30.71a2.365 2.365 0 0 1-2.362-2.362 2.365 2.365 0 0 1 2.362-2.363h30.71a2.366 2.366 0 0 1 2.363 2.363 2.365 2.365 0 0 1-2.363 2.362Z" fill="#E6E6E6"/><path d="M167.848 216.526c-.083-.178.054-.659.133-.877l2.701-6.748 2.243-5.99 6.826-17.528 2.569-5.871-3.343 1.783c-.185.069-.378-.201-.955-1.344-.732-1.448-1.039-2.336-1.039-2.336-.409-1.22-.516-1.318.044-1.743l5.448-2.404 5.442-2.169 3.22-1.237.825 2.11 1.129 3.108 1.115 3.658 1.219 3.879c.032.184.116.641.195.995s-.054.658-.13.766l-1 .415c-.629.24-2.087.804-2.887 1.135-.8.331-1.133-.103-1.2-.361l-.695-2.877s-1.607 3.722-2.448 5.799c-1.923 4.747-4.794 11.609-4.794 11.609l-1.893 5.229-2.108 5.004s-.835 2.139-1.625 3.367c-.516.801-1.479 1.941-1.479 1.941s-2.08 2.696-6.535 1.152c0 0-.894-.287-.978-.465Z" fill="url(#a)"/><path d="m137.829 220.554 1.464-3.869.836-2.196 2.301-6.066 1.255-3.242.941-2.51c.419-1.29 1.426-3.845 1.464-4.079.105-.627.105-.523 0-.836-.209-.314-.569-.447-1.045-.732-.523-.314-1.255-.419-2.197-.419-.522 0-1.568.209-2.196.523-.847.424-1.568.941-1.987 1.464-.314.314-1.359 2.162-1.882 3.242-.523 1.081-3.347 8.576-3.347 8.576l-3.346 9.099-2.72 7.216c-.313.941-1.004 2.97-1.255 3.556-.251.585-.034.592.105.522l3.765-3.242 2.928-2.719 4.916-4.288Z" fill="url(#b)"/><path d="m154.492 209.036 2.269-6.287 1.756-4.401.721-2.096c.137-.558.514-1.698.513-1.885l-.002-.523c-.001-.209-.003-.627-1.991-.722-.77-.036-2.404.222-2.404.222s-.912.241-1.462.53c-.55.289-.605.275-1.355.948-.749.673-1.421 1.611-1.663 1.996-.242.384-.929 2.305-.929 2.305l-2.787 7.335c-.721 2.061-2.289 6.475-2.785 7.649a35.86 35.86 0 0 0-.929 2.41c.071.209.412.873 1.354 1.039 1.256.222 3.464.296 4.923-.652 1.168-.759 2.29-2.104 3.015-3.572l1.756-4.296Z" fill="url(#c)"/><path d="M167.174 207.926c1.062-2.839 2.755-7.332 2.755-7.332s1.262-3.105 1.967-5.133c.33-.949.477-1.495.81-2.444.39-1.114.913-2.373 1.122-3.315 0 0-.365-.283-.627-.418-.642-.329-1.813-.351-1.813-.351s-1.581-.017-2.545.244c-1.343.364-2.291.929-3.124 1.711-.833.782-1.581 1.874-1.851 2.322l-1.042 2.689-3.123 8.554c-.81 2.403-2.569 7.552-3.124 8.92a43.127 43.127 0 0 0-1.042 2.811c.077.244.864.694 1.504.978 1.95.862 3.819.611 5.438-.489 1.296-.88 2.128-2.444 2.937-4.155.81-1.711 1.022-2.623 1.758-4.592Z" fill="url(#d)"/><path d="m138.303 229.436 3.613-8.552h.068l3.613 8.552h-1.37l-2.628-6.695.849-.555-2.967 7.25h-1.178Zm2.186-3.081h2.945l.408 1.019h-3.704l.351-1.019Zm6.323-5.721h1.144v8.802h-1.144v-8.802Zm2.931 0h1.144v8.802h-1.144v-8.802Zm2.931 4.067h1.144v4.735h-1.144v-4.735Zm-.056-1.699a.57.57 0 0 1 .204-.442.705.705 0 0 1 .464-.181c.166 0 .317.06.453.181a.57.57 0 0 1 .204.442c0 .189-.068.34-.204.453a.692.692 0 0 1-.453.17.735.735 0 0 1-.464-.17.559.559 0 0 1-.204-.453Zm4.97 6.547c-.446 0-.85-.094-1.212-.283a2.108 2.108 0 0 1-.861-.827c-.211-.37-.317-.827-.317-1.371 0-.528.109-.981.328-1.359.227-.385.521-.68.884-.883.37-.212.77-.318 1.201-.318.453 0 .826.095 1.121.284.294.188.521.415.68.679l-.068.181.113-.951h1.053v4.735h-1.144v-1.201l.114.283a1.518 1.518 0 0 1-.193.261c-.098.113-.227.23-.385.351a2.439 2.439 0 0 1-.578.294 2.062 2.062 0 0 1-.736.125Zm.306-.94c.377 0 .694-.098.951-.295.264-.204.438-.479.521-.827v-.974a1.433 1.433 0 0 0-.555-.77 1.541 1.541 0 0 0-.951-.306c-.272 0-.521.068-.748.204a1.424 1.424 0 0 0-.544.555 1.604 1.604 0 0 0-.203.816c0 .302.068.574.203.815.144.242.333.434.567.578.234.136.487.204.759.204Zm15.201-2.968a.916.916 0 0 1-.623-.226c-.174-.159-.261-.386-.261-.68v-.487h.872v.158c0 .129.031.212.091.25.06.03.159.045.295.045h3.024l-2.798 4.032-.226-.237h2.979v.94h-4.441l2.855-4.123.181.328h-1.948Z" fill="#000"/><path d="M168.277 220.298c.117-.162.434-.571.703-.909.566-.709.637-.731.949-.299.127.175.304.414.394.531.089.117.268.364.396.549.128.184.321.441.428.569.413.498.34.583-.497.583h-.549v6.7c0 2.591.23 2.441-.552 2.439l-.559-.001s-.292-.124-.435-.312c-.142-.187-2.311-3.153-2.311-3.153s-.482-.692-.84-1.155c-.368-.476-.457-.636-.814-1.051-.356-.415-.562-.733-.562-.733V231.057h.562c.463 0 .185.432.185.432s-1.331 2.082-1.368 2.02c-1.408-1.883-1.408-2.02-1.408-2.02s-.225-.501.185-.432c.202.035.382 0 .382 0h.389v-5.859s.01-1.306.007-1.75l-.007-.808.613-.025.612-.025.594.729.735.872.562.744s.359.491.594.801c.235.312.61.794.61.794s.376.532 1.049 1.492l.666.947-.019-1.557-.018-6.111-.481-.004c-.632-.006-.831-.178-.575-.497.092-.115.263-.341.38-.502Z" fill="#4CDB2F"/><path d="M173.264 47.718h49.471v58.381a2.402 2.402 0 0 1-2.403 2.403h-44.67a2.407 2.407 0 0 1-2.403-2.403V47.717h.005Z" fill="#fff"/><path d="M184.26 63.716h-3.922V91.98h3.922V63.716ZM191.498 70.334h-3.922v21.64h3.922v-21.64ZM198.73 66.023h-3.921v25.956h3.921V66.023ZM205.968 73.842h-3.922v18.132h3.922V73.842ZM213.206 66.023h-3.922v25.956h3.922V66.023Z" fill="#8CD351"/><path d="M213.114 52.826h-6.646a.24.24 0 1 1 0-.48h6.637a.245.245 0 0 1 .24.24.24.24 0 0 1-.231.24ZM210.793 55.301h-4.325a.24.24 0 1 1 0-.48h4.325a.24.24 0 1 1 0 .48Z" fill="#231F20"/><path d="M204.492 66.316c-2.095 0-3.921-2.336-5.392-4.22-.961-1.22-1.86-2.402-2.46-2.402-.683 0-1.625.562-2.62 1.139-1.355.783-2.883 1.672-4.325 1.59-2.696-.144-7.761-6.093-7.973-6.348a.214.214 0 0 1-.044-.078.205.205 0 0 1-.011-.088c.002-.03.01-.06.024-.086a.215.215 0 0 1 .055-.07.237.237 0 0 1 .327 0c.048.062 5.147 6.055 7.646 6.19 1.317.077 2.788-.779 4.085-1.533 1.048-.606 2.038-1.178 2.836-1.202.797-.024 1.725 1.115 2.849 2.562 1.442 1.84 3.22 4.128 5.148 4.037 1.667-.082 2.465-1.533 3.311-3.071.846-1.538 1.648-3.009 3.335-3.33a.23.23 0 0 1 .214.351.229.229 0 0 1-.132.1c-1.471.279-2.221 1.648-3.018 3.1-.865 1.581-1.764 3.215-3.686 3.311l-.169.048ZM216.56 92.205h-39.408a.22.22 0 0 1-.161-.068.226.226 0 0 1-.065-.162.23.23 0 0 1 .226-.221h39.408a.23.23 0 0 1 .231.23.232.232 0 0 1-.019.086.236.236 0 0 1-.125.12.227.227 0 0 1-.087.015Z" fill="#D1D3D4"/><path d="M181.958 56.81a.883.883 0 0 1-.625-1.51.883.883 0 0 1 1.509.626.884.884 0 0 1-.884.884Zm0-1.307a.426.426 0 0 0-.419.513.43.43 0 0 0 .339.335.426.426 0 0 0 .508-.425.415.415 0 0 0-.126-.3.424.424 0 0 0-.302-.123ZM211.274 60.563a.882.882 0 0 1-.862-1.06.878.878 0 0 1 .696-.691.883.883 0 0 1 .792 1.493.888.888 0 0 1-.626.258Zm0-1.312a.427.427 0 1 0-.001.855.427.427 0 0 0 .001-.855Z" fill="#D1D3D4"/><path d="M175.663 42.734h44.67a2.404 2.404 0 0 1 2.403 2.403v2.57h-49.471v-2.57a2.401 2.401 0 0 1 2.398-2.403Z" fill="#fff"/><path d="M176.263 46.098a.807.807 0 1 0 0-1.614.807.807 0 0 0 0 1.614Z" fill="#8CD351"/><path d="M179.065 46.098a.807.807 0 1 0 0-1.614.807.807 0 0 0 0 1.614ZM181.867 46.098a.807.807 0 1 0 0-1.614.807.807 0 0 0 0 1.614ZM197.337 57.964a.226.226 0 0 1-.149-.058.23.23 0 0 1-.029-.322l2.076-2.46a.23.23 0 0 1 .178-.082h5.195a.24.24 0 1 1 0 .48h-5.099l-2.009 2.403a.23.23 0 0 1-.163.039Z" fill="#D1D3D4"/><path d="M101.846 52.66a.976.976 0 1 0-.001-1.952.976.976 0 0 0 .001 1.952Z" fill="#8CD351"/><path d="M105.284 52.66a.976.976 0 1 0 0-1.952.976.976 0 0 0 0 1.952ZM108.722 52.66a.976.976 0 1 0 0-1.952.976.976 0 0 0 0 1.952Z" fill="#D1D3D4"/><path d="m104.47 164.351-.388-.244c.253-.401.513-.789.773-1.155l.374.267a23.69 23.69 0 0 0-.759 1.132ZM106.998 161.085l-.328-.32a13.34 13.34 0 0 1 2.187-1.829l.253.382a12.9 12.9 0 0 0-2.112 1.767Zm11.435-2.894c-.547 0-1.046-.07-1.419-.131l.074-.452c.378.062.834.125 1.345.125.452 0 .896-.05 1.357-.152l.099.448a6.684 6.684 0 0 1-1.456.162Zm-6.859-.06-.137-.437a9.629 9.629 0 0 1 1.516-.347 9.015 9.015 0 0 1 1.288-.094h.029v.458h-.029c-.404 0-.804.029-1.223.09a9.212 9.212 0 0 0-1.444.33Zm10.926-1.325-.293-.352c.633-.526 1.086-1.161 1.566-1.834l.191-.267.372.268-.19.265c-.498.698-.968 1.357-1.646 1.92Zm3.676-4.203-.282-.361a8.407 8.407 0 0 1 2.134-1.194c.139-.055.272-.104.4-.148l.148.434a9.79 9.79 0 0 0-.38.14 7.978 7.978 0 0 0-2.02 1.129Zm5.534-1.592c-.155 0-.301-.001-.441-.003l.005-.458.452.003c.54 0 1.291-.016 2.321-.135l.053.455a19.846 19.846 0 0 1-2.39.138Zm5.179-.6-.091-.449a53.288 53.288 0 0 0 2.729-.61l.114.444c-.958.248-1.923.447-2.752.615Zm5.453-1.484-.172-.425c.919-.37 1.717-.788 2.44-1.278l.257.38c-.75.508-1.576.94-2.525 1.323Zm4.631-3.275-.372-.268c.128-.177.238-.351.345-.518.316-.494.642-1.005 1.419-1.633l.055-.043.284.36-.051.04c-.719.58-1.011 1.038-1.32 1.523-.111.172-.225.351-.36.539Zm4.112-3.438-.167-.427a15.26 15.26 0 0 1 2.742-.766l.085.451c-.975.183-1.87.432-2.66.742ZM156.546 141.135l-.028-.457a30.31 30.31 0 0 1 1.384-.055l.008.458c-.466.008-.925.027-1.364.054Z" fill="#CCC"/><path d="M110.018 128.494h-6.431a.588.588 0 0 0 0 1.175h6.431a.587.587 0 0 0 0-1.175ZM120.789 128.494h-6.431a.587.587 0 0 0 0 1.175h6.431a.588.588 0 0 0 0-1.175ZM131.561 128.494h-6.431a.587.587 0 0 0 0 1.175h6.431a.588.588 0 0 0 0-1.175ZM161 164h-58.442v.458H161V164Z" fill="#E6E6E6"/><path d="M147.35 136.406c-.31.701-.626 1.423-1.362 2.365a14.52 14.52 0 0 1-.282.351c-2.654 3.156-6.199 4.192-9.05 5.026-.179.052-.353.101-.523.146-2.535.688-3.923.663-4.957.647-1.038-.019-1.724-.03-2.95.671-2.248 1.281-3.169 3.156-4.061 4.969-.919 1.866-1.785 3.628-3.995 4.455-1.533.573-2.61.289-3.749-.009-.979-.259-2.743-6.633-4.304-7.563-3.225.676-5.184 11.214-7.63 16.857l-.422-.184c2.51-5.784 4.577-16.412 7.955-17.122 1.506-.316 3.489 7.297 4.518 7.568 1.068.282 2.074.545 3.472.023 2.04-.761 2.828-2.368 3.743-4.227.88-1.787 1.877-3.813 4.244-5.166 1.336-.763 2.113-.749 3.186-.731 1.022.019 2.402.042 4.95-.662l.394-.112c2.792-.816 6.264-1.831 8.826-4.88.252-.3.461-.577.635-.836.456-.669.702-1.229.942-1.772.326-.742.731-.525.42.186ZM101.856 118.16c1.578 0 2.857-1.252 2.857-2.797 0-1.544-1.279-2.796-2.857-2.796-1.577 0-2.856 1.252-2.856 2.796 0 1.545 1.279 2.797 2.856 2.797Z" fill="#8CD351"/><path d="M124.755 114.407H109.38a.957.957 0 0 1 0-1.913h15.375a.957.957 0 0 1 0 1.913ZM136.754 117.645H109.38a.958.958 0 0 1 0-1.914h27.374a.958.958 0 0 1 0 1.914Z" fill="#F2F2F2"/><path d="m101.715 74.088-.715-.709 4.395-4.435 1.408 1.42 4.321-4.36 2.221 2.241 5.442-5.492.715.708-6.157 6.215-2.221-2.242-4.321 4.36-1.408-1.42-3.68 3.714Z" fill="#8CD351"/><path d="m101.715 74.088-.715-.709 4.395-4.435 1.408 1.42 4.321-4.36 2.221 2.241 5.442-5.492.715.708-6.157 6.215-2.221-2.242-4.321 4.36-1.408-1.42-3.68 3.714Z" fill="#8CD351"/><path d="M119.999 66.526h-1.006V63.5H116v-1.006h3.999v4.032Z" fill="#8CD351"/><path d="M192.86 123.544c-.36 0-.68-.05-.96-.15a1.4 1.4 0 0 1-.66-.53c-.16-.254-.25-.604-.27-1.05l-.16-3.48h.81l.16 3.3c.02.313.077.55.17.71a.693.693 0 0 0 .39.31c.173.046.38.07.62.07.14 0 .24.04.3.12.067.073.1.163.1.27a.424.424 0 0 1-.14.3.51.51 0 0 1-.36.13Zm-1.51-1.1c-.38.12-.75.18-1.11.18-.36 0-.687-.054-.98-.16a1.652 1.652 0 0 1-.7-.46 1.118 1.118 0 0 1-.26-.74c0-.28.07-.544.21-.79.147-.247.343-.467.59-.66a3.47 3.47 0 0 1 .87-.48 4.209 4.209 0 0 1 1.06-.27l.14.84c-.333.013-.63.06-.89.14-.253.073-.47.17-.65.29a1.49 1.49 0 0 0-.4.39.74.74 0 0 0-.14.41c0 .146.053.266.16.36.107.093.243.166.41.22.167.046.35.076.55.09.2.006.393 0 .58-.02.187-.027.347-.064.48-.11l.08.77Zm-.21-5.26a.51.51 0 0 1-.36-.14.499.499 0 0 1-.14-.35.497.497 0 0 1 .5-.5c.133 0 .247.05.34.15a.48.48 0 0 1 0 .7.464.464 0 0 1-.34.14Zm-1.37 0a.51.51 0 0 1-.36-.14.499.499 0 0 1-.14-.35.497.497 0 0 1 .5-.5c.133 0 .247.05.34.15a.48.48 0 0 1 0 .7.464.464 0 0 1-.34.14Zm3.093 6.36.1-.82c.214 0 .387-.014.52-.04a.569.569 0 0 0 .33-.23c.094-.127.18-.324.26-.59.08-.267.174-.64.28-1.12l.75.21-.09.39a7.74 7.74 0 0 0-.09.44c-.026.146-.04.283-.04.41a.46.46 0 0 0 .19.39c.127.093.357.14.69.14.2 0 .364-.017.49-.05a.523.523 0 0 0 .31-.24c.087-.127.164-.33.23-.61.067-.28.137-.664.21-1.15l.76.14-.07.44-.08.52c-.02.166-.03.306-.03.42 0 .093.02.183.06.27a.48.48 0 0 0 .26.19c.134.046.33.07.59.07.194 0 .36-.024.5-.07a.566.566 0 0 0 .33-.26c.08-.127.12-.304.12-.53 0-.254-.06-.57-.18-.95-.113-.387-.243-.77-.39-1.15l.81-.3c.087.213.167.456.24.73.08.273.147.543.2.81.054.266.08.5.08.7 0 .306-.04.576-.12.81-.08.233-.193.426-.34.58a1.49 1.49 0 0 1-.54.34c-.213.073-.453.11-.72.11a2.28 2.28 0 0 1-.77-.11.967.967 0 0 1-.46-.33 1.354 1.354 0 0 1-.21-.58h.34c-.126.286-.26.503-.4.65-.14.146-.313.246-.52.3a3.9 3.9 0 0 1-.82.07 2.06 2.06 0 0 1-.54-.08 1.055 1.055 0 0 1-.49-.31c-.14-.16-.223-.397-.25-.71l.3-.06c-.113.34-.253.593-.42.76-.16.16-.353.266-.58.32-.226.053-.493.08-.8.08Zm8.762-.05-.2-7.14h.81l.2 7.14h-.81Zm1.249 2.3-.29-.76c.673-.214 1.19-.47 1.55-.77.367-.294.617-.6.75-.92.14-.32.21-.627.21-.92 0-.187-.02-.367-.06-.54a3.17 3.17 0 0 0-.21-.59c-.1-.22-.24-.494-.42-.82l.73-.37c.253.433.433.843.54 1.23.113.386.17.726.17 1.02 0 .42-.07.8-.21 1.14-.133.34-.313.64-.54.9-.22.266-.463.493-.73.68a4.61 4.61 0 0 1-.79.46c-.26.12-.493.206-.7.26Zm3.982-2.75.4-.69a2.66 2.66 0 0 0 1.4.37c.333 0 .597-.034.79-.1.2-.067.343-.164.43-.29a.787.787 0 0 0 .14-.46c0-.134-.03-.297-.09-.49-.053-.2-.173-.467-.36-.8-.187-.34-.473-.784-.86-1.33l.69-.45c.353.486.633.926.84 1.32.213.393.363.74.45 1.04.093.293.14.546.14.76 0 .266-.067.526-.2.78-.133.246-.357.45-.67.61-.313.16-.747.24-1.3.24-.24 0-.473-.02-.7-.06a3.294 3.294 0 0 1-.61-.17 2.319 2.319 0 0 1-.49-.28ZM185.3 138.504c0-.16.013-.33.04-.51a5.6 5.6 0 0 1 .14-.59 9.34 9.34 0 0 1 .24-.67l.72.28c-.067.186-.127.363-.18.53a5.125 5.125 0 0 0-.11.47c-.02.146-.03.286-.03.42 0 .34.09.626.27.86.18.233.413.406.7.52.293.12.607.18.94.18.653 0 1.163-.117 1.53-.35.367-.227.623-.53.77-.91.147-.374.21-.784.19-1.23l-.22-6.15h.83l.16 5.07c.013.34.067.606.16.8.1.186.233.316.4.39.167.073.35.11.55.11.14 0 .24.04.3.12.067.073.1.163.1.27a.424.424 0 0 1-.14.3.51.51 0 0 1-.36.13c-.207 0-.383-.027-.53-.08a1.184 1.184 0 0 1-.36-.22 1.112 1.112 0 0 1-.22-.31 1.95 1.95 0 0 1-.12-.36l.28.28a3.91 3.91 0 0 1-.23 1.05c-.12.353-.307.673-.56.96-.253.286-.593.516-1.02.69-.42.173-.94.26-1.56.26-.347 0-.683-.054-1.01-.16-.32-.1-.607-.25-.86-.45a2.252 2.252 0 0 1-.59-.73 2.058 2.058 0 0 1-.22-.97Zm7.005.04.1-.82c.333 0 .593-.024.78-.07a.728.728 0 0 0 .42-.29c.1-.147.18-.357.24-.63.06-.274.133-.63.22-1.07l.78.15-.09.4a8.366 8.366 0 0 0-.09.44c-.02.14-.03.263-.03.37 0 .1.006.193.02.28.013.086.063.16.15.22.086.06.233.11.44.15.206.033.503.05.89.05.14 0 .24.04.3.12.066.073.1.163.1.27a.424.424 0 0 1-.14.3.513.513 0 0 1-.36.13c-.407 0-.73-.02-.97-.06-.24-.047-.424-.114-.55-.2a.754.754 0 0 1-.26-.32 2.527 2.527 0 0 1-.11-.46l.3.02a2.19 2.19 0 0 1-.35.52c-.12.133-.26.236-.42.31-.16.073-.354.123-.58.15-.22.026-.484.04-.79.04Zm2.52 1.89c-.14 0-.26-.05-.36-.15a.462.462 0 0 1-.14-.34.493.493 0 0 1 .5-.5.45.45 0 0 1 .34.15c.1.1.15.216.15.35a.45.45 0 0 1-.15.34.45.45 0 0 1-.34.15Zm-1.37 0c-.14 0-.26-.05-.36-.15a.462.462 0 0 1-.14-.34.493.493 0 0 1 .5-.5.45.45 0 0 1 .34.15c.1.1.15.216.15.35a.45.45 0 0 1-.15.34.45.45 0 0 1-.34.15Zm2.58-1.89.09-.82c.38 0 .647-.037.8-.11a.456.456 0 0 0 .26-.39 4.56 4.56 0 0 0 .02-.78l-.17-5.09h.83l.16 5.07c.013.34.067.606.16.8.1.186.233.316.4.39.167.073.35.11.55.11.14 0 .24.04.3.12.067.073.1.163.1.27a.424.424 0 0 1-.14.3.51.51 0 0 1-.36.13c-.28 0-.513-.044-.7-.13a1.267 1.267 0 0 1-.43-.35 1.27 1.27 0 0 1-.2-.46l.21.02c-.067.2-.177.37-.33.51a1.515 1.515 0 0 1-.6.31c-.253.066-.57.1-.95.1Zm9.368 0c-.28 0-.536-.017-.77-.05a2.069 2.069 0 0 1-.63-.21 1.329 1.329 0 0 1-.47-.43 2.264 2.264 0 0 1-.29-.76l.59-.35c.087.266.194.47.32.61.127.14.297.236.51.29.22.053.5.08.84.08.14 0 .24.04.3.12.067.073.1.163.1.27a.42.42 0 0 1-.14.3.51.51 0 0 1-.36.13Zm-6.37 0 .09-.82a6.48 6.48 0 0 0 1.02-.08 7.048 7.048 0 0 0 1.9-.59c.3-.147.584-.314.85-.5a2.716 2.716 0 0 0-.6-.4 3.157 3.157 0 0 0-.75-.26c-.266-.067-.55-.1-.85-.1-.106 0-.206.003-.3.01-.093.006-.186.02-.28.04-.093.013-.2.033-.32.06l-.16-.76c.18-.054.36-.094.54-.12a3.16 3.16 0 0 1 1.46.08c.28.08.534.18.76.3.234.12.45.24.65.36.207.12.407.223.6.31.194.08.394.12.6.12h.21l.07.72c-.286 0-.55.04-.79.12-.24.08-.476.183-.71.31-.226.12-.466.25-.72.39-.253.133-.533.263-.84.39-.306.12-.66.22-1.06.3-.393.08-.85.12-1.37.12Zm6.367 0 .1-.82c.394 0 .7-.014.92-.04.22-.034.377-.11.47-.23.094-.127.14-.324.14-.59 0-.167-.026-.364-.08-.59a7.698 7.698 0 0 0-.21-.74c-.086-.26-.18-.517-.28-.77l.81-.3c.087.213.167.456.24.73.08.273.147.543.2.81.054.266.08.5.08.7 0 .333-.046.616-.14.85a1.237 1.237 0 0 1-.42.57 1.901 1.901 0 0 1-.75.32c-.3.066-.66.1-1.08.1Zm2.18-5.12a.51.51 0 0 1-.36-.14.499.499 0 0 1-.14-.35.497.497 0 0 1 .5-.5c.134 0 .247.05.34.15a.48.48 0 0 1 0 .7.463.463 0 0 1-.34.14Zm-1.37 0a.51.51 0 0 1-.36-.14.499.499 0 0 1-.14-.35.497.497 0 0 1 .5-.5c.134 0 .247.05.34.15a.48.48 0 0 1 0 .7.463.463 0 0 1-.34.14Z" fill="#000" fill-opacity=".4"/><circle cx="218" cy="121.494" r="2" fill="#D9D9D9"/><circle cx="213.5" cy="136.494" r="2" fill="#D9D9D9"/><path d="M185.02 152.494c-.327 0-.62-.057-.88-.17a1.395 1.395 0 0 1-.62-.52c-.147-.234-.22-.53-.22-.89 0-.287.11-.644.33-1.07.22-.434.603-.89 1.15-1.37l.19.54-.68-.61.52-.62c.347.273.667.566.96.88.293.313.53.646.71 1 .18.353.27.726.27 1.12a1.998 1.998 0 0 1-.35 1.09c-.127.18-.303.33-.53.45-.227.113-.51.17-.85.17Zm0-.82c.227 0 .413-.037.56-.11a.776.776 0 0 0 .34-.33c.08-.14.12-.304.12-.49 0-.167-.03-.34-.09-.52a1.735 1.735 0 0 0-.34-.6c-.167-.22-.423-.467-.77-.74l.44-.02a4.33 4.33 0 0 0-.64.68 3 3 0 0 0-.41.69c-.093.22-.14.42-.14.6 0 .28.087.49.26.63.18.14.403.21.67.21Zm.76-4.78a.51.51 0 0 1-.36-.14.499.499 0 0 1-.14-.35.497.497 0 0 1 .5-.5c.133 0 .247.05.34.15a.48.48 0 0 1 0 .7.464.464 0 0 1-.34.14Zm-1.37 0a.51.51 0 0 1-.36-.14.499.499 0 0 1-.14-.35.497.497 0 0 1 .5-.5c.133 0 .247.05.34.15a.48.48 0 0 1 0 .7.464.464 0 0 1-.34.14Zm2.282 7.92-.29-.76c.487-.16.89-.344 1.21-.55.327-.207.584-.427.77-.66.194-.234.33-.47.41-.71.08-.247.12-.484.12-.71 0-.327-.073-.657-.22-.99a7.92 7.92 0 0 0-.47-.96l.73-.37c.127.233.237.463.33.69.1.226.187.44.26.64.08.2.144.383.19.55.094.286.214.483.36.59.154.1.36.15.62.15.14 0 .24.04.3.12.067.073.1.163.1.27a.42.42 0 0 1-.14.3.51.51 0 0 1-.36.13c-.293 0-.533-.05-.72-.15a1.112 1.112 0 0 1-.41-.41 1.843 1.843 0 0 1-.19-.54l.32.18c0 .44-.1.84-.3 1.2a3.266 3.266 0 0 1-.75.95 4.716 4.716 0 0 1-.96.67 4.62 4.62 0 0 1-.91.37Zm3.925-2.27.1-.82c.28 0 .5-.024.66-.07a.63.63 0 0 0 .36-.29c.087-.147.16-.357.22-.63.06-.274.134-.63.22-1.07l.78.15-.09.4c-.033.146-.063.293-.09.44-.02.14-.03.263-.03.37 0 .133.03.253.09.36.06.106.19.19.39.25s.507.09.92.09c.14 0 .24.04.3.12.067.073.1.163.1.27a.42.42 0 0 1-.14.3.51.51 0 0 1-.36.13c-.433 0-.773-.037-1.02-.11-.246-.08-.426-.197-.54-.35a1.423 1.423 0 0 1-.23-.58l.3.02a2.131 2.131 0 0 1-.35.52c-.12.133-.253.236-.4.31a1.64 1.64 0 0 1-.51.15c-.193.026-.42.04-.68.04Zm1.7 1.86c-.14 0-.26-.05-.36-.15a.497.497 0 0 1 .36-.84c.134 0 .247.05.34.15.1.1.15.216.15.35a.45.45 0 0 1-.15.34.446.446 0 0 1-.34.15Zm1.728-1.86.09-.82a6.48 6.48 0 0 0 1.02-.08 7.082 7.082 0 0 0 1.9-.59c.3-.147.583-.314.85-.5a2.716 2.716 0 0 0-.6-.4 3.189 3.189 0 0 0-.75-.26 3.48 3.48 0 0 0-.85-.1c-.107 0-.207.003-.3.01-.093.006-.187.02-.28.04-.093.013-.2.033-.32.06l-.16-.76c.18-.054.36-.094.54-.12a3.16 3.16 0 0 1 1.46.08c.28.08.533.18.76.3.233.12.45.24.65.36.207.12.407.223.6.31.193.08.393.12.6.12h.21l.07.72c-.287 0-.55.04-.79.12a4.37 4.37 0 0 0-.71.31c-.227.12-.467.25-.72.39-.253.133-.533.263-.84.39-.307.12-.66.22-1.06.3-.393.08-.85.12-1.37.12Zm1.67-4.6a.51.51 0 0 1-.36-.14.499.499 0 0 1-.14-.35.497.497 0 0 1 .5-.5c.133 0 .247.05.34.15a.48.48 0 0 1 0 .7.464.464 0 0 1-.34.14Z" fill="#000" fill-opacity=".4"/><circle cx="208" cy="151.494" r="2" fill="#D9D9D9"/><path d="M183.027 118.98h-.826a3.412 3.412 0 0 0-.235-.566l.584-.585a.41.41 0 0 0 .122-.294.413.413 0 0 0-.122-.295l-.845-.846a.419.419 0 0 0-.59 0l-.584.585a3.333 3.333 0 0 0-.566-.236c0-1.423.144-1.242-1.613-1.242a.417.417 0 0 0-.416.417v.825c-.195.061-.386.14-.567.236-.615-.616-.656-.707-.879-.707a.415.415 0 0 0-.294.122c-.914.914-.968.917-.968 1.141a.41.41 0 0 0 .122.294l.584.585a3.412 3.412 0 0 0-.235.566h-.826a.417.417 0 0 0-.416.417v1.196c0 .229.187.416.416.416h.826c.061.195.14.385.235.567l-.584.584a.413.413 0 0 0-.122.295.41.41 0 0 0 .122.294l.846.846a.416.416 0 0 0 .589 0l.584-.585c.181.096.372.175.566.236v.825c0 .23.187.417.417.417 1.787 0 1.613.16 1.613-1.242.195-.061.385-.14.566-.236l.584.585a.415.415 0 0 0 .295.122c.225 0 .23-.058 1.14-.968a.41.41 0 0 0 .122-.294.413.413 0 0 0-.122-.295l-.584-.584c.095-.182.174-.372.235-.567h.826c.23 0 .417-.187.417-.416v-1.196a.417.417 0 0 0-.417-.417Zm-2.076 1.015a2.003 2.003 0 0 1-2.001 2.001 2.004 2.004 0 0 1-2.001-2.001c0-1.104.898-2.001 2.001-2.001 1.104 0 2.001.897 2.001 2.001ZM173.016 117.198a2.602 2.602 0 0 0-.183-.44c.478-.477.549-.509.549-.682a.323.323 0 0 0-.095-.229l-.656-.656a.323.323 0 0 0-.458 0l-.453.454a2.602 2.602 0 0 0-.44-.183v-.641a.323.323 0 0 0-.323-.323c-1.387 0-1.251-.124-1.251.964a2.602 2.602 0 0 0-.44.183c-.478-.478-.51-.549-.682-.549a.323.323 0 0 0-.229.095c-.7.7-.751.709-.751.885 0 .086.034.168.095.229l.453.453a2.682 2.682 0 0 0-.182.44c-1.104 0-.964-.112-.964 1.251 0 .178.145.324.323.324h.641c.047.151.109.298.182.439-.477.478-.548.51-.548.682 0 .086.034.168.095.229l.656.656a.321.321 0 0 0 .458 0l.453-.454c.141.074.288.136.44.183v.641c0 .178.145.323.323.323 1.387 0 1.251.124 1.251-.964.152-.047.299-.109.44-.183l.453.454a.325.325 0 0 0 .458 0c.7-.7.751-.709.751-.885 0-.172-.07-.203-.549-.682.074-.141.136-.288.183-.44h.641a.323.323 0 0 0 .323-.323c0-1.387.124-1.251-.964-1.251Zm-.97.787c0 .856-.697 1.553-1.553 1.553a1.555 1.555 0 0 1-1.553-1.553c0-.856.697-1.553 1.553-1.553s1.553.697 1.553 1.553Z" fill="#000" fill-opacity=".4"/><path d="M170 130.494v8.784h8.214l-.477-.471-.369-.747-.284.19a2.24 2.24 0 1 1-1.416-4.098 2.215 2.215 0 0 1 1.758.65c.753.752.871 1.94.281 2.825l-.19.283.747.37.334.329v-8.115H170Zm8.474 7.82-.137-.135-.639-.317.112-.167a2.368 2.368 0 0 0-.297-2.98 2.365 2.365 0 0 0-4.032 1.651 2.366 2.366 0 0 0 2.103 2.368 2.376 2.376 0 0 0 1.568-.382l.167-.112.317.64.278.275h-7.791v-8.538h8.351v7.697Z" fill="#4A555F"/><path d="M170.267 130.761v8.25h7.298l-.047-.046-.255-.514-.031.021a2.497 2.497 0 0 1-1.663.405 2.511 2.511 0 0 1-1.346-4.406l.014-.011h-3.354v-3.192h6.884v3.192h-.319a2.505 2.505 0 0 1 .883 1.635v-5.334h-8.064Zm1.678 4.125.806.813h-.405v2.712h-.795v-2.712h-.413l.807-.813Zm5.963 2.92.423.209v-1.333a2.493 2.493 0 0 1-.402 1.093l-.021.031Z" fill="#DFDFDF"/><path d="m174.001 136.666-.122.019c.006.041.014.084.023.125l.12-.027a2.196 2.196 0 0 1-.021-.117Zm-.021-.237-.123.003c.001.042.003.085.007.126l.123-.01a1.614 1.614 0 0 1-.007-.119Zm.071.47-.118.034c.012.041.025.081.039.121l.116-.041a2.517 2.517 0 0 1-.037-.114Zm-.022-.943-.12-.029a2.511 2.511 0 0 0-.025.125l.122.02c.006-.039.014-.078.023-.116Zm-.04.235-.122-.013a1.764 1.764 0 0 0-.009.127l.123.004c.001-.039.004-.079.008-.118Zm.251 1.145-.106.063c.022.036.045.072.069.107l.101-.07a1.701 1.701 0 0 1-.064-.1Zm.424-2.551.074.099c.031-.023.064-.046.098-.068l-.067-.103a2.44 2.44 0 0 0-.105.072Zm-.026 3.18.104.074.068-.103a2.138 2.138 0 0 1-.097-.069l-.075.098Zm-.191-.167c.03.03.061.059.093.086l.081-.093a2.22 2.22 0 0 1-.088-.081l-.086.088Zm-.072-.266-.097.076c.026.034.053.066.081.098l.092-.082a2.179 2.179 0 0 1-.076-.092Zm-.243-.409-.114.049c.017.039.035.078.055.115l.109-.056a1.326 1.326 0 0 1-.05-.108Zm.189-1.815-.1-.071c-.024.034-.048.07-.07.106l.105.064.065-.099Zm3.187.241.11-.055a1.51 1.51 0 0 0-.061-.112l-.106.062c.02.034.039.07.057.105Zm.093.219.116-.04a1.718 1.718 0 0 0-.046-.119l-.113.048c.015.036.03.074.043.111Zm-.214-.425.103-.069a2.454 2.454 0 0 0-.075-.103l-.097.076c.024.031.047.063.069.096Zm-.145-.188.092-.082a1.89 1.89 0 0 0-.087-.092l-.018-.018-.086.088.017.017c.028.028.055.057.082.087Zm.457 1.079.123-.01a1.825 1.825 0 0 0-.014-.127l-.122.018c.006.039.01.079.013.119Zm-.034-.236.121-.026a1.844 1.844 0 0 0-.031-.123l-.118.033c.01.038.02.077.028.116Zm-3.193-.875-.091-.084a1.518 1.518 0 0 0-.083.097l.095.077c.026-.031.052-.061.079-.09Zm.378 2.983c.036.021.074.041.112.06l.054-.111a1.784 1.784 0 0 1-.105-.056l-.061.107Zm-.654-2.595-.108-.058c-.02.037-.039.076-.056.114l.112.051a2.11 2.11 0 0 1 .052-.107Zm.448-.553-.079-.094a1.552 1.552 0 0 0-.095.085l.085.089c.029-.028.059-.054.089-.08Zm-.545.77-.116-.044c-.015.04-.028.08-.041.121l.118.036a2.15 2.15 0 0 1 .039-.113Zm3.037-.851a2.445 2.445 0 0 0-.099-.079l-.075.098c.032.024.063.049.093.075l.081-.094Zm-.812-.292c.038.01.076.022.114.034l.039-.117a2.45 2.45 0 0 0-.122-.036l-.031.119Zm.614 3.307.073.1c.034-.025.067-.051.1-.078l-.079-.095c-.03.026-.062.05-.094.073Zm.346-.326.095.078c.027-.033.053-.067.078-.101l-.1-.072a2.18 2.18 0 0 1-.073.095Zm-.763.555.045.115.116-.05-.052-.112a1.325 1.325 0 0 1-.109.047Zm.243-3.356.101.062.068-.103a2.397 2.397 0 0 0-.108-.066l-.061.107Zm-.027 3.255.059.108c.037-.02.074-.042.109-.064l-.066-.104a2.093 2.093 0 0 1-.102.06Zm-1.859-3.372.06.107a2.11 2.11 0 0 1 .106-.054l-.053-.112a1.735 1.735 0 0 0-.113.059Zm2.282 3.055-.039.037.085.09.041-.04.049-.051-.09-.084-.046.048Zm.517-.994.122.021c.007-.041.013-.083.018-.126l-.123-.013c-.004.039-.01.079-.017.118Zm.152-.358-.124.002a2.525 2.525 0 0 1-.001.119l.123.006.002-.093v-.034Zm-.208.589.118.037c.013-.04.024-.081.034-.122l-.12-.029a1.48 1.48 0 0 1-.032.114Zm-.085.223.112.051c.018-.038.034-.077.049-.117l-.115-.044a1.503 1.503 0 0 1-.046.11Zm-.113.209.104.066c.023-.036.044-.073.064-.11l-.108-.058a2.093 2.093 0 0 1-.06.102Zm-.874-2.711c.037.015.074.031.109.048l.054-.11a1.712 1.712 0 0 0-.116-.052l-.047.114Zm-.255 3.532.029.12c.041-.011.082-.022.123-.035l-.038-.117a1.48 1.48 0 0 1-.114.032Zm-.976.108c.04.011.082.021.123.029l.025-.12a2.179 2.179 0 0 1-.116-.028l-.032.119Zm.032-3.841.03.12a1.61 1.61 0 0 1 .116-.026l-.022-.121a2.256 2.256 0 0 0-.124.027Zm-.242.079.045.114c.037-.014.075-.028.112-.04l-.038-.117c-.04.013-.08.027-.119.043Zm-.031 3.679c.039.017.079.032.119.045l.04-.116a2.111 2.111 0 0 1-.111-.042l-.048.113Zm.489.134c.042.006.084.01.127.014l.009-.123a2.278 2.278 0 0 1-.119-.013l-.017.122Zm.033-3.939.015.123c.04-.005.08-.009.119-.011l-.007-.123a1.813 1.813 0 0 0-.127.011Zm.491.125c.039.005.079.012.118.02l.024-.121a2.757 2.757 0 0 0-.126-.021l-.016.122Zm-.031 3.698.014.122c.042-.005.084-.011.126-.019l-.022-.121a2.402 2.402 0 0 1-.118.018Zm-.207-3.714c.04 0 .08.001.119.004l.009-.123a1.795 1.795 0 0 0-.127-.004l-.001.123Zm-.009 3.726h-.022l-.001.123h.023l.104-.002-.007-.124a1.547 1.547 0 0 1-.097.003Z" fill="#4A555F"/><path d="M177.021 135.206a1.655 1.655 0 0 0-1.179-.488 1.668 1.668 0 1 0 1.179 2.846c.315-.315.488-.733.488-1.179 0-.445-.173-.864-.488-1.179Z" fill="#000" fill-opacity=".4"/><path d="M176.848 135.379a1.411 1.411 0 0 0-1.006-.417 1.41 1.41 0 0 0-1.005.417 1.413 1.413 0 0 0-.416 1.006c0 .38.148.737.416 1.005.269.269.626.417 1.006.417s.737-.148 1.005-.416c.269-.269.417-.626.417-1.006s-.148-.737-.417-1.006Zm-.087 1.925a1.29 1.29 0 0 1-.918.38c-.347 0-.674-.135-.919-.381a1.29 1.29 0 0 1-.38-.918c0-.348.135-.674.38-.919a1.29 1.29 0 0 1 .918-.38c.348 0 .674.135.919.38.246.246.381.572.381.919 0 .347-.135.673-.381.919Z" fill="#4A555F"/><path d="m179.823 139.646-1.486-1.467-.639-.317.111-.167a2.368 2.368 0 0 0-.296-2.981 2.365 2.365 0 0 0-3.197-.133 2.364 2.364 0 0 0 2.836 3.771l.167-.112.317.64 1.49 1.471a.494.494 0 0 0 .699-.002.494.494 0 0 0-.002-.703Zm-.085.616a.374.374 0 0 1-.526.001l-1.475-1.456-.369-.747-.284.189a2.242 2.242 0 0 1-3.48-1.882 2.242 2.242 0 0 1 2.064-2.215 2.217 2.217 0 0 1 1.758.649c.753.753.871 1.942.281 2.826l-.19.283.747.37 1.472 1.453a.375.375 0 0 1 .002.529Z" fill="#4A555F"/><path d="m179.612 139.859-1.451-1.433-.55-.272.271.548 1.455 1.436a.195.195 0 0 0 .137.056.194.194 0 0 0 .196-.196.195.195 0 0 0-.058-.139Z" fill="#000" fill-opacity=".4"/><path d="m177.564 137.842-.264.264.087.087.264-.264-.087-.087ZM173.286 132.534l-.089.086.732.753.088-.085-.731-.754ZM176.046 132.093l-.09.084.405.438.091-.084-.406-.438ZM177.21 132.013l-.533.506.085.089.533-.506-.085-.089ZM175.63 132.07l-1.382 1.228.082.092 1.382-1.228-.082-.092ZM172.927 132.525l-1.511 1.402.084.091 1.511-1.402-.084-.091ZM171.945 134.798l-.955.962h.499v2.712h.919v-2.712h.491l-.954-.962Zm.339.839v2.712h-.671v-2.712h-.327l.659-.664.658.664h-.319Z" fill="#4A555F"/><path d="m171.945 135.177-.314.317h.126v2.712h.384v-2.712h.117l-.313-.317Z" fill="#000" fill-opacity=".4"/><path d="M172.772 138.477h.123v-.123h-.123v.123Zm0-.493h.123v-.123h-.123v.123Zm0 .246h.123v-.123h-.123v.123Zm0-.862v.123h.123v-.123h-.123Zm0 .37h.123v-.123h-.123v.123ZM170.938 137.949h.123v-.123h-.123v.123Zm0-.246h.123v-.123h-.123v.123Zm0 .493h.123v-.123h-.123v.123Zm0 .246h.123v-.123h-.123v.123Zm0-1.601v.123h.123v-.123h-.123Zm0 .616h.123v-.123h-.123v.123Zm0-.247h.123v-.123h-.123v.123Z" fill="#4A555F"/><path d="m171.001 136.473-.294.327.092.082.199-.221.183.219.095-.079-.275-.328ZM172.844 136.966l-.294.326.091.083.199-.221.184.219.094-.079-.274-.328ZM173.109 132.166a.261.261 0 1 0-.001.523.261.261 0 0 0 .001-.523Zm0 .4a.139.139 0 1 1 0-.277.139.139 0 0 1 0 .277ZM174.126 133.197a.263.263 0 0 0-.262.262c0 .144.118.262.262.262a.263.263 0 0 0 .262-.262.263.263 0 0 0-.262-.262Zm0 .401a.14.14 0 0 1-.139-.139.14.14 0 0 1 .278 0 .14.14 0 0 1-.139.139ZM175.843 131.751a.262.262 0 1 0 0 .523.262.262 0 0 0 0-.523Zm0 .4a.138.138 0 1 1-.001-.277.138.138 0 0 1 .001.277ZM176.566 132.43a.262.262 0 1 0 .002.524.262.262 0 0 0-.002-.524Zm0 .401a.138.138 0 1 1 .001-.277.138.138 0 0 1-.001.277ZM172.039 134.294h.123v-.123h-.123v.123Zm-.246 0h.123v-.123h-.123v.123Zm-.739 0h.123v-.123h-.123v.123Zm1.232 0h.123v-.123h-.123v.123Zm-.986 0h.123v-.123h-.123v.123Zm.246 0h.124v-.123h-.124v.123Zm1.232 0h.123v-.123h-.123v.123Zm.739 0h.123v-.123h-.123v.123Zm.247-.123v.123h.123v-.123h-.123Zm-.493.123h.123v-.123h-.123v.123Zm-.246 0h.123v-.123h-.123v.123Zm-.493 0h.123v-.123h-.123v.123ZM171.051 133.071h.124v-.124h-.124v.124Zm0 .492h.124v-.123h-.124v.123Zm0 .247h.124v-.123h-.124v.123Zm0 .246h.124v-.123h-.124v.123Zm0-.739h.124v-.123h-.124v.123Zm0-1.232h.124v-.123h-.124v.123Zm0-.369v.123h.124v-.123h-.124Zm0 1.108h.124v-.123h-.124v.123Zm0-.246h.124v-.123h-.124v.123Zm0-.246h.124v-.124h-.124v.124ZM177.461 133.092h.123v-.123h-.123v.123Zm0 .246h.123v-.123h-.123v.123Zm0 .493h.123v-.123h-.123v.123Zm0 .247h.123v-.124h-.123v.124Zm0-.493h.123v-.123h-.123v.123Zm0-1.478h.123v-.124h-.123v.124Zm0 .739h.123v-.123h-.123v.123Zm0-1.109v.123h.123v-.123h-.123Zm0 .616h.123v-.123h-.123v.123Zm0 .246h.123v-.123h-.123v.123ZM174.256 131.614h.123v-.123h-.123v.123Zm-.986 0h.124v-.123h-.124v.123Zm-.739 0h.123v-.123h-.123v.123Zm.247 0h.123v-.123h-.123v.123Zm.985 0h.123v-.123h-.123v.123Zm-.246 0h.123v-.123h-.123v.123Zm-.493 0h.123v-.123h-.123v.123Zm-.739 0h.123v-.123h-.123v.123Zm-.986 0h.124v-.123h-.124v.123Zm-.246 0h.123v-.123h-.123v.123Zm.493 0h.123v-.123h-.123v.123Zm.493 0h.123v-.123h-.123v.123Zm-.247 0h.123v-.123h-.123v.123Zm2.217 0h.124v-.123h-.124v.123Zm2.71 0h.124v-.123h-.124v.123Zm-.492 0h.123v-.123h-.123v.123Zm.246 0h.123v-.123h-.123v.123Zm.493 0h.123v-.123h-.123v.123Zm.246 0h.123v-.123h-.123v.123Zm.246-.123v.123h.124v-.123h-.124Zm-1.97.123h.123v-.123h-.123v.123Zm-.493 0h.123v-.123h-.123v.123Zm.985 0h.123v-.123h-.123v.123Zm-1.232 0h.124v-.123h-.124v.123Zm.493 0h.123v-.123h-.123v.123Zm.493 0h.123v-.123h-.123v.123Zm-1.232 0h.123v-.123h-.123v.123Z" fill="#4A555F"/><path d="M146.271 81.509h-38.037a.4.4 0 0 1-.4-.4.41.41 0 0 1 .4-.4h38.037a.4.4 0 1 1 0 .8ZM146.271 84.211h-38.037a.4.4 0 0 1-.4-.4.41.41 0 0 1 .4-.4h38.037a.4.4 0 1 1 0 .8ZM142.361 86.946h-34.127a.4.4 0 0 1-.4-.4.41.41 0 0 1 .4-.4h34.127a.41.41 0 0 1 .4.4.4.4 0 0 1-.4.4Z" fill="#D1D3D4"/></svg>