<svg width="41" height="41" viewBox="0 0 41 41" fill="none" xmlns="http://www.w3.org/2000/svg">
<path d="M38.4401 5.68726L33.3694 7.02617L34.603 8.21974L28.3731 14.7907L22.9705 7.59606L15.0012 15.3755L7.58565 12.2067L2 18.2375L3.32174 19.462L8.04455 14.3627L15.3982 17.5051L22.7611 10.3185L28.2129 17.5772L35.8973 9.47397L37.2179 10.7511L38.4401 5.68726Z" fill="#F1F2F2"/>
<path opacity="0.45" d="M19.6658 27.3456C28.6423 27.3456 35.9192 26.6042 35.9192 25.6897C35.9192 24.7752 28.6423 24.0338 19.6658 24.0338C10.6893 24.0338 3.41235 24.7752 3.41235 25.6897C3.41235 26.6042 10.6893 27.3456 19.6658 27.3456Z" fill="#E6E6E6"/>
<path d="M31.4962 23.5337H24.8989V25.2708H31.4962V23.5337Z" fill="#E6E6E6"/>
<path opacity="0.43" d="M30.0541 21.8354H23.4568V23.5726H30.0541V21.8354Z" fill="#E6E6E6"/>
<path d="M26.7552 1.8468H13.6946V25.2708H26.7552V1.8468Z" fill="#AFAFAF"/>
<path d="M25.5855 4.51672H14.7747V21.0013H25.5855V4.51672Z" fill="#F1F2F2"/>
<path opacity="0.56" d="M20.2641 24.3909C20.9701 24.3909 21.5424 23.8186 21.5424 23.1126C21.5424 22.4066 20.9701 21.8344 20.2641 21.8344C19.5581 21.8344 18.9858 22.4066 18.9858 23.1126C18.9858 23.8186 19.5581 24.3909 20.2641 24.3909Z" fill="white"/>
<path opacity="0.12" d="M22.7818 2.76221H19.1199V3.29663H22.7818V2.76221Z" fill="black"/>
<path d="M17.7937 3.68364C18.123 3.68364 18.3899 3.41671 18.3899 3.08743C18.3899 2.75815 18.123 2.49121 17.7937 2.49121C17.4644 2.49121 17.1975 2.75815 17.1975 3.08743C17.1975 3.41671 17.4644 3.68364 17.7937 3.68364Z" fill="white"/>
<path opacity="0.08" d="M16.2359 19.4622H18.1447L18.3393 25.271L14.8718 25.3053L16.2359 19.4622Z" fill="black"/>
<path d="M20.277 13.6452C21.9922 13.6452 23.3828 12.2547 23.3828 10.5394C23.3828 8.82411 21.9922 7.43359 20.277 7.43359C18.5617 7.43359 17.1711 8.82411 17.1711 10.5394C17.1711 12.2547 18.5617 13.6452 20.277 13.6452Z" fill="#FFD200"/>
<path opacity="0.08" d="M20.277 13.6452C21.9922 13.6452 23.3828 12.2547 23.3828 10.5394C23.3828 8.82411 21.9922 7.43359 20.277 7.43359C18.5617 7.43359 17.1711 8.82411 17.1711 10.5394C17.1711 12.2547 18.5617 13.6452 20.277 13.6452Z" fill="black"/>
<path d="M9.01636 21.9969V23.3553C9.01636 23.9709 10.7329 24.4676 12.8511 24.4641C14.9694 24.4607 16.6836 23.9583 16.6825 23.3427V21.9832L9.01636 21.9969Z" fill="#FFD200"/>
<path d="M20.277 12.6713C21.9922 12.6713 23.3828 11.2808 23.3828 9.56553C23.3828 7.85024 21.9922 6.45972 20.277 6.45972C18.5617 6.45972 17.1711 7.85024 17.1711 9.56553C17.1711 11.2808 18.5617 12.6713 20.277 12.6713Z" fill="#FFD200"/>
<path d="M20.4413 8.07214C20.5214 8.07214 20.5466 8.10075 20.5466 8.18658V8.35824C20.688 8.37295 20.8226 8.42605 20.936 8.51177C21.0493 8.59749 21.1371 8.71259 21.1898 8.84459C21.2321 8.92813 21.2149 8.9739 21.1199 9.01625L20.9483 9.09292C20.8682 9.13183 20.8339 9.11352 20.7846 9.02998C20.7486 8.9429 20.6856 8.86968 20.6048 8.82107C20.5241 8.77246 20.4299 8.75102 20.3361 8.75991C20.0385 8.75991 19.9023 8.84802 19.9023 9.04714C19.9103 9.10718 19.9386 9.16267 19.9825 9.20433C20.0265 9.24599 20.0834 9.2713 20.1438 9.27602C20.2269 9.2939 20.311 9.30689 20.3956 9.31493C20.5544 9.32213 20.7113 9.35259 20.8613 9.40533C20.9364 9.43051 21.0062 9.4693 21.0673 9.51977C21.1293 9.58491 21.1777 9.6618 21.2095 9.74592C21.2413 9.83004 21.256 9.91968 21.2527 10.0096C21.2527 10.3906 20.9975 10.6504 20.5466 10.7168V10.8987C20.5466 10.9788 20.5214 11.0074 20.4413 11.0074H20.2491C20.169 11.0074 20.1404 10.9788 20.1404 10.8987V10.7202C19.9836 10.709 19.8337 10.6519 19.7091 10.556C19.5846 10.4602 19.491 10.3298 19.44 10.1812C19.4325 10.1655 19.4288 10.1482 19.429 10.1308C19.4292 10.1134 19.4333 10.0962 19.4412 10.0807C19.449 10.0651 19.4603 10.0515 19.4742 10.041C19.4881 10.0305 19.5042 10.0232 19.5213 10.0199L19.6929 9.95692C19.7799 9.92602 19.8188 9.94662 19.8566 10.0336C19.8921 10.1277 19.9576 10.2076 20.043 10.2607C20.1285 10.3139 20.229 10.3374 20.3292 10.3277C20.6519 10.3277 20.8121 10.227 20.8121 10.0199C20.815 9.97222 20.8018 9.92499 20.7746 9.88577C20.7474 9.84654 20.7078 9.8176 20.6622 9.80357C20.5517 9.76438 20.436 9.74201 20.3189 9.7372C20.1582 9.72725 20 9.69291 19.8497 9.63535C19.776 9.60934 19.7075 9.57061 19.6471 9.52091C19.5845 9.45893 19.5353 9.38462 19.5028 9.30268C19.4703 9.22074 19.4552 9.13295 19.4583 9.04486C19.4583 8.66721 19.6964 8.41545 20.1449 8.35824V8.18658C20.1449 8.10647 20.1736 8.07214 20.2537 8.07214H20.4413Z" fill="white"/>
<path d="M9.02197 23.6343V24.9927C9.02197 25.6095 10.7385 26.105 12.8567 26.1015C14.975 26.0981 16.6892 25.5957 16.6881 24.9801V23.6217L9.02197 23.6343Z" fill="#FFD200"/>
<path opacity="0.08" d="M9.02197 23.6343V24.9927C9.02197 25.6095 10.7385 26.105 12.8567 26.1015C14.975 26.0981 16.6892 25.5957 16.6881 24.9801V23.6217L9.02197 23.6343Z" fill="black"/>
<path d="M12.8975 24.6878C14.9951 24.6841 16.6947 24.1862 16.6937 23.5757C16.6926 22.9652 14.9913 22.4732 12.8936 22.4769C10.7959 22.4806 9.09632 22.9784 9.09739 23.589C9.09845 24.1995 10.7998 24.6915 12.8975 24.6878Z" fill="#FFD200"/>
<path opacity="0.08" d="M9.01636 21.9969V23.3553C9.01636 23.9709 10.7329 24.4676 12.8511 24.4641C14.9694 24.4607 16.6836 23.9583 16.6825 23.3427V21.9832L9.01636 21.9969Z" fill="black"/>
<path d="M9.29541 20.3718V21.7313C9.29541 22.347 11.012 22.8437 13.1302 22.8402C15.2484 22.8368 16.9627 22.3344 16.9615 21.7176V20.3593L9.29541 20.3718Z" fill="#FFD200"/>
<path d="M9.01636 18.7343V20.0949C9.01636 20.7106 10.7329 21.2072 12.8511 21.2038C14.9694 21.2004 16.6836 20.698 16.6825 20.0823L16.6836 18.7217L9.01636 18.7343Z" fill="#FFD200"/>
<path d="M12.8933 23.0651C14.991 23.0615 16.6906 22.5636 16.6895 21.953C16.6885 21.3425 14.9871 20.8505 12.8895 20.8542C10.7918 20.8579 9.09217 21.3558 9.09324 21.9663C9.0943 22.5768 10.7957 23.0688 12.8933 23.0651Z" fill="#FFD200"/>
<path opacity="0.08" d="M9.29541 20.3718V21.7313C9.29541 22.347 11.012 22.8437 13.1302 22.8402C15.2484 22.8368 16.9627 22.3344 16.9615 21.7176V20.3593L9.29541 20.3718Z" fill="black"/>
<path d="M13.1665 21.4545C15.2642 21.4509 16.9638 20.953 16.9627 20.3424C16.9617 19.7319 15.2603 19.24 13.1626 19.2436C11.065 19.2473 9.36537 19.7452 9.36643 20.3557C9.3675 20.9662 11.0688 21.4582 13.1665 21.4545Z" fill="#FFD200"/>
<path opacity="0.08" d="M9.01636 18.7343V20.0949C9.01636 20.7106 10.7329 21.2072 12.8511 21.2038C14.9694 21.2004 16.6836 20.698 16.6825 20.0823L16.6836 18.7217L9.01636 18.7343Z" fill="black"/>
<path opacity="0.08" d="M9.16489 26.3569C10.7367 26.3569 12.0109 25.0827 12.0109 23.5108C12.0109 21.939 10.7367 20.6648 9.16489 20.6648C7.59306 20.6648 6.31885 21.939 6.31885 23.5108C6.31885 25.0827 7.59306 26.3569 9.16489 26.3569Z" fill="black"/>
<path opacity="0.08" d="M11.0578 20.6671C11.0578 20.6671 14.0331 21.5826 13.5594 26.088C13.5594 26.088 11.6139 26.1532 10.6984 25.9163C9.86991 25.7023 11.0578 20.6671 11.0578 20.6671Z" fill="black"/>
<path d="M12.8521 19.8324C14.9699 19.8287 16.686 19.3308 16.6849 18.7202C16.6838 18.1097 14.9661 17.6178 12.8482 17.6215C10.7303 17.6252 9.01429 18.1231 9.01536 18.7336C9.01642 19.3442 10.7342 19.8361 12.8521 19.8324Z" fill="#FFD200"/>
<path d="M9.16489 26.3569C10.7367 26.3569 12.0109 25.0827 12.0109 23.5108C12.0109 21.939 10.7367 20.6648 9.16489 20.6648C7.59306 20.6648 6.31885 21.939 6.31885 23.5108C6.31885 25.0827 7.59306 26.3569 9.16489 26.3569Z" fill="#FFD200"/>
<path opacity="0.08" d="M9.16489 26.3569C10.7367 26.3569 12.0109 25.0827 12.0109 23.5108C12.0109 21.939 10.7367 20.6648 9.16489 20.6648C7.59306 20.6648 6.31885 21.939 6.31885 23.5108C6.31885 25.0827 7.59306 26.3569 9.16489 26.3569Z" fill="black"/>
<g opacity="0.08">
<path d="M9.0267 25.4998C10.5985 25.4998 11.8727 24.2256 11.8727 22.6538C11.8727 21.082 10.5985 19.8077 9.0267 19.8077C7.45488 19.8077 6.18066 21.082 6.18066 22.6538C6.18066 24.2256 7.45488 25.4998 9.0267 25.4998Z" fill="black"/>
</g>
<path d="M9.0267 25.4998C10.5985 25.4998 11.8727 24.2256 11.8727 22.6538C11.8727 21.082 10.5985 19.8077 9.0267 19.8077C7.45488 19.8077 6.18066 21.082 6.18066 22.6538C6.18066 24.2256 7.45488 25.4998 9.0267 25.4998Z" fill="#FFD200"/>
<path d="M22.7485 15.0013H18.0441C17.6528 15.0013 17.3357 15.3185 17.3357 15.7097V17.3313C17.3357 17.7225 17.6528 18.0396 18.0441 18.0396H22.7485C23.1398 18.0396 23.4569 17.7225 23.4569 17.3313V15.7097C23.4569 15.3185 23.1398 15.0013 22.7485 15.0013Z" fill="#353535"/>
<path opacity="0.58" d="M33.3914 23.9856C33.3914 23.9856 32.4175 23.7201 32.2058 22.8126C32.2058 22.8126 33.7152 22.5082 33.7576 24.0657L33.3914 23.9856Z" fill="#F1F2F2"/>
<path opacity="0.73" d="M33.5137 23.8862C33.5137 23.8862 32.8328 22.8094 33.4313 21.8035C33.4313 21.8035 34.5756 22.5324 34.0698 23.8885L33.5137 23.8862Z" fill="#F1F2F2"/>
<path d="M33.6887 23.8873C33.6887 23.8873 34.0481 22.7498 35.1352 22.5347C35.1352 22.5347 35.34 23.2728 34.4314 23.8896L33.6887 23.8873Z" fill="#F1F2F2"/>
<path d="M32.9827 23.861L33.1795 25.2125L34.4234 25.2182L34.6065 23.8678L32.9827 23.861Z" fill="#353535"/>
<path d="M9.14442 21.1591C9.22453 21.1591 9.24856 21.1865 9.24856 21.2666V21.4383C9.39 21.4532 9.52472 21.5063 9.63823 21.592C9.75174 21.6777 9.83976 21.7927 9.89284 21.9246C9.93518 22.0093 9.91687 22.054 9.82303 22.0963L9.65137 22.173C9.57127 22.2119 9.53694 22.1947 9.48659 22.11C9.45085 22.023 9.38802 21.9499 9.30741 21.9014C9.22681 21.853 9.13273 21.8318 9.03914 21.8411C8.7416 21.8411 8.60542 21.9281 8.60542 22.1283C8.61337 22.1884 8.64168 22.2439 8.68563 22.2855C8.72959 22.3272 8.78651 22.3525 8.84688 22.3572C8.92976 22.3762 9.0139 22.3892 9.09865 22.3961C9.25753 22.4038 9.41443 22.4346 9.5644 22.4877C9.63951 22.5128 9.70933 22.5516 9.77039 22.6021C9.83244 22.6675 9.8808 22.7446 9.91264 22.8289C9.94447 22.9132 9.95914 23.003 9.95578 23.093C9.95578 23.4741 9.70058 23.7327 9.24856 23.7991V23.9856C9.24856 24.0669 9.22453 24.0944 9.14442 24.0944H8.95217C8.87092 24.0944 8.83773 24.0669 8.83773 23.9856V23.8071C8.68073 23.7968 8.53035 23.74 8.40566 23.644C8.28097 23.5481 8.18759 23.4172 8.13738 23.2681C8.13012 23.2525 8.12648 23.2355 8.12672 23.2183C8.12697 23.201 8.13109 23.1841 8.13879 23.1687C8.14649 23.1533 8.15757 23.1398 8.17119 23.1293C8.18482 23.1188 8.20064 23.1115 8.21748 23.1079L8.38914 23.045C8.47725 23.0129 8.51502 23.0347 8.55393 23.1216C8.58943 23.2158 8.65496 23.2956 8.7404 23.3488C8.82583 23.402 8.9264 23.4255 9.02655 23.4157C9.34812 23.4157 9.50947 23.3139 9.50947 23.1079C9.51214 23.06 9.49872 23.0126 9.47135 22.9732C9.44398 22.9338 9.40423 22.9047 9.35842 22.8905C9.24783 22.8517 9.13217 22.8294 9.01511 22.8241C8.85435 22.8149 8.69604 22.7805 8.54592 22.7223C8.47179 22.6972 8.40306 22.6584 8.34336 22.6078C8.28051 22.5462 8.23116 22.4721 8.19846 22.3903C8.16576 22.3086 8.15041 22.2209 8.1534 22.1329C8.1534 21.7541 8.39143 21.5024 8.84002 21.4463V21.2746C8.84002 21.1945 8.86748 21.1671 8.95445 21.1671L9.14442 21.1591Z" fill="white"/>
<path opacity="0.16" d="M22.6444 15.4681H19.7732V16.3253H22.6444V15.4681Z" fill="white"/>
<g clip-path="url(#clip0_109_744)">
<path d="M10.9818 39.5929C10.5356 39.5929 10.1187 39.5371 9.73123 39.4256C9.34373 39.314 9.00612 39.1466 8.71843 38.9236C8.43073 38.7005 8.20468 38.4245 8.04028 38.0957C7.88175 37.7669 7.80249 37.3882 7.80249 36.9596C7.80249 36.5603 7.86414 36.1905 7.98744 35.8499C8.11661 35.5094 8.29275 35.2011 8.51586 34.9252C8.74485 34.6492 9.01493 34.4026 9.32611 34.1854C9.63729 33.9681 9.97783 33.7832 10.3477 33.6305C10.7235 33.4779 11.1169 33.3575 11.5279 33.2695L11.5455 33.428C11.4046 33.3869 11.249 33.3399 11.0787 33.2871C10.9084 33.2342 10.7235 33.1843 10.5239 33.1374C10.3301 33.0904 10.1217 33.0522 9.89856 33.0229C9.68133 32.9876 9.45234 32.97 9.21162 32.97C9.00025 32.97 8.80062 32.9847 8.61274 33.014C8.43073 33.0375 8.26926 33.0669 8.12835 33.1021L7.9434 31.9044C8.11367 31.8515 8.29568 31.8075 8.48944 31.7723C8.68906 31.737 8.89457 31.7194 9.10594 31.7194C9.42299 31.7194 9.71656 31.7488 9.98664 31.8075C10.2567 31.8603 10.5092 31.9279 10.744 32.01C10.9848 32.0922 11.2137 32.1774 11.431 32.2655C11.6541 32.3476 11.8713 32.4181 12.0827 32.4768C12.2941 32.5297 12.5113 32.5561 12.7344 32.5561H13.0867L13.2012 33.8771C12.9781 33.8771 12.7198 33.9065 12.4262 33.9652C12.1385 34.0239 11.839 34.1091 11.5279 34.2206C11.2167 34.3322 10.9114 34.4701 10.6119 34.6345C10.3184 34.7989 10.0512 34.9898 9.8105 35.207C9.57564 35.4242 9.38776 35.665 9.24684 35.9292C9.10594 36.1934 9.03547 36.4811 9.03547 36.7923C9.03547 37.0741 9.08831 37.3148 9.194 37.5144C9.29968 37.7141 9.44647 37.8755 9.63436 37.9988C9.82224 38.1221 10.0395 38.2131 10.2861 38.2719C10.5385 38.3305 10.8086 38.3599 11.0963 38.3599C11.4193 38.3599 11.7451 38.3247 12.0739 38.2543C12.4086 38.1838 12.7432 38.0839 13.0779 37.9548L13.439 39.0293C13.0104 39.2289 12.5847 39.3728 12.162 39.4608C11.7392 39.5489 11.3459 39.5929 10.9818 39.5929ZM16.5877 36.167C16.0417 36.167 15.6189 36.1112 15.3195 35.9996C15.0259 35.8881 14.8204 35.7149 14.703 35.48C14.5856 35.2393 14.5181 34.9369 14.5005 34.5729L14.3155 29.6762H15.5485L15.7334 33.9828C15.7452 34.2529 15.7745 34.4555 15.8215 34.5905C15.8685 34.7255 15.9565 34.8166 16.0857 34.8635C16.2208 34.9105 16.4175 34.934 16.6758 34.934C16.8989 34.934 17.0574 34.9927 17.1514 35.1101C17.2512 35.2217 17.301 35.3626 17.301 35.5329C17.301 35.7149 17.2394 35.8675 17.1161 35.9908C16.9928 36.1083 16.8167 36.167 16.5877 36.167ZM16.6878 36.167L16.7758 34.934C17.0342 34.934 17.2367 34.9164 17.3835 34.8811C17.5362 34.8459 17.6448 34.7813 17.7093 34.6874C17.774 34.5876 17.8063 34.4467 17.8063 34.2647C17.8063 34.1003 17.7827 33.9036 17.7358 33.6746C17.6947 33.4456 17.6389 33.2078 17.5684 32.9612C17.498 32.7146 17.4275 32.4886 17.3571 32.2831L18.5725 31.9484C18.6429 32.148 18.7134 32.3799 18.7838 32.6442C18.8543 32.9084 18.913 33.1814 18.96 33.4632C19.0128 33.7392 19.0393 34.0063 19.0393 34.2647C19.0393 34.5876 18.9982 34.8606 18.9159 35.0837C18.8337 35.3009 18.7193 35.483 18.5725 35.6297C18.4316 35.7707 18.2613 35.8822 18.0617 35.9644C17.8679 36.0407 17.6536 36.0936 17.4188 36.1229C17.1839 36.1523 16.9402 36.167 16.6878 36.167ZM17.771 38.1926C17.6008 38.1926 17.454 38.1339 17.3307 38.0164C17.2133 37.8991 17.1545 37.7552 17.1545 37.5849C17.1545 37.4146 17.2133 37.2649 17.3307 37.1357C17.454 37.0124 17.6008 36.9508 17.771 36.9508C17.9413 36.9508 18.0851 37.0124 18.2026 37.1357C18.3259 37.2649 18.3875 37.4146 18.3875 37.5849C18.3875 37.7552 18.3259 37.8991 18.2026 38.0164C18.0851 38.1339 17.9413 38.1926 17.771 38.1926ZM19.7119 38.1486L19.2628 37.0213C19.7677 36.8451 20.1758 36.6514 20.487 36.44C20.804 36.2286 21.0359 36.0026 21.1828 35.7618C21.3354 35.5211 21.4117 35.2716 21.4117 35.0132C21.4117 34.8489 21.3882 34.6786 21.3413 34.5024C21.2942 34.3204 21.2267 34.1296 21.1387 33.93C21.0565 33.7304 20.9566 33.5219 20.8393 33.3047L21.993 32.7498C22.1984 33.1432 22.357 33.519 22.4685 33.8771C22.586 34.2353 22.6447 34.57 22.6447 34.8811C22.6447 35.1688 22.6066 35.4448 22.5302 35.709C22.4598 35.9732 22.3482 36.2198 22.1956 36.4488C22.0488 36.6837 21.858 36.9038 21.6231 37.1093C21.3882 37.3148 21.1123 37.5027 20.7952 37.673C20.4781 37.8492 20.1171 38.0077 19.7119 38.1486ZM26.7328 31.4024C26.7328 31.2086 26.721 31.0149 26.6976 30.8211C26.6799 30.6273 26.6564 30.4453 26.6271 30.2751C26.5977 30.0989 26.5713 29.9463 26.5478 29.8171L27.7808 29.6409C27.8042 29.7584 27.8278 29.914 27.8513 30.1077C27.8747 30.3015 27.8953 30.507 27.9129 30.7242C27.9305 30.9356 27.9393 31.1381 27.9393 31.3319C27.9393 31.6372 27.9129 31.9249 27.86 32.195C27.8072 32.4651 27.728 32.7205 27.6223 32.9612C27.5166 33.1961 27.3845 33.4221 27.226 33.6394L27.0674 33.8507C26.9147 34.0386 26.7356 34.2235 26.5302 34.4056C26.3305 34.5876 26.1104 34.7637 25.8696 34.934H26.4421C26.6418 34.934 26.7944 34.9222 26.9001 34.8988C27.0057 34.8753 27.0762 34.843 27.1114 34.8019C27.1525 34.7549 27.1731 34.7021 27.1731 34.6434C27.1731 34.5377 27.0821 34.3821 26.9001 34.1766C26.718 33.9652 26.4656 33.7245 26.1427 33.4544C25.8197 33.1785 25.441 32.8878 25.0066 32.5825C24.578 32.2713 24.1141 31.9601 23.615 31.649L24.258 30.7066C24.9508 31.1352 25.535 31.5286 26.0105 31.8868C26.492 32.2449 26.8854 32.5708 27.1907 32.8643C27.5019 33.1579 27.7426 33.425 27.9129 33.6658C28.0832 33.9065 28.2006 34.1237 28.2651 34.3175C28.3298 34.5054 28.3621 34.6757 28.3621 34.8283C28.3621 34.9986 28.3356 35.163 28.2827 35.3215C28.2299 35.4742 28.1448 35.6121 28.0274 35.7354C27.9099 35.8529 27.7573 35.9468 27.5695 36.0173C27.3815 36.0877 27.1496 36.1229 26.8737 36.1229H24.2844V34.9428C24.8891 34.5083 25.3677 34.0973 25.72 33.7098C26.0781 33.3223 26.3364 32.9407 26.495 32.5649C26.6535 32.1891 26.7328 31.8016 26.7328 31.4024ZM23.5358 30.5745L23.3861 29.958C23.5916 29.9228 23.7442 29.8934 23.844 29.8699C23.9497 29.8465 24.0613 29.82 24.1787 29.7907L24.0906 30.0108C23.938 29.958 23.7912 29.8553 23.6503 29.7026C23.5153 29.5441 23.4478 29.365 23.4478 29.1654C23.4478 28.954 23.4947 28.7837 23.5887 28.6546C23.6825 28.5254 23.803 28.4315 23.9497 28.3727C24.0965 28.314 24.2492 28.2847 24.4077 28.2847C24.4958 28.2847 24.578 28.2905 24.6543 28.3023C24.7365 28.314 24.8099 28.3316 24.8744 28.3551L24.804 28.9892C24.7453 28.9775 24.6866 28.9657 24.6278 28.954C24.5691 28.9423 24.5046 28.9364 24.4341 28.9364C24.3577 28.9364 24.2873 28.9628 24.2227 29.0157C24.164 29.0626 24.1347 29.1213 24.1347 29.1918C24.1347 29.2916 24.1699 29.3797 24.2404 29.456C24.3108 29.5323 24.393 29.594 24.4869 29.6409C24.5867 29.6821 24.669 29.7055 24.7335 29.7114L24.2492 29.7643C24.4077 29.7232 24.5574 29.6821 24.6983 29.6409C24.8392 29.594 24.9714 29.547 25.0946 29.5L25.2708 30.0901C25.124 30.143 24.9508 30.2017 24.7511 30.2663C24.5574 30.325 24.3549 30.3807 24.1434 30.4336C23.938 30.4864 23.7354 30.5334 23.5358 30.5745ZM29.8867 36.1229L29.7017 29.6762H30.9347L31.1196 36.1229H29.8867Z" fill="#FEFEFE"/>
</g>
<defs>
<clipPath id="clip0_109_744">
<rect width="24.0455" height="11.5419" fill="white" transform="translate(7.66162 28.1434)"/>
</clipPath>
</defs>
</svg>
