<svg width="23" height="23" viewBox="0 0 23 23" fill="none" xmlns="http://www.w3.org/2000/svg">
<path d="M20.0322 13.7978C19.9472 13.8564 19.849 13.8864 19.7493 13.884C19.6496 13.8816 19.5526 13.8471 19.4699 13.7845L18.1789 12.807L13.2416 21.014C13.1646 21.1421 13.0454 21.2305 12.9102 21.26C12.775 21.2894 12.635 21.2574 12.5209 21.171L9.9389 19.2161C9.82477 19.1297 9.74592 18.9959 9.71968 18.8443C9.69344 18.6926 9.72198 18.5355 9.79901 18.4075L14.7363 10.2005L13.4453 9.22301C13.3627 9.1604 13.2979 9.07242 13.2587 8.9696C13.2194 8.86677 13.2074 8.75344 13.2241 8.64316C13.2407 8.53288 13.2853 8.43031 13.3525 8.3477C13.4197 8.2651 13.5067 8.20595 13.6031 8.17734L18.9388 6.59596C19.0102 6.57759 19.0842 6.57588 19.1562 6.59093C19.2283 6.60598 19.2967 6.63747 19.3575 6.68344C19.4182 6.72941 19.4698 6.78889 19.5092 6.85818C19.5486 6.92747 19.5749 7.0051 19.5864 7.08625L20.2752 13.2291C20.2877 13.3401 20.2715 13.4528 20.2283 13.5536C20.1852 13.6545 20.1171 13.7393 20.0322 13.7978Z" fill="#8CD351"/>
<path d="M2.86548 8.8525C2.9517 8.79625 3.05054 8.76904 3.15018 8.77414C3.24982 8.77925 3.34604 8.81644 3.42733 8.88128L4.69662 9.89386L9.8113 1.82474C9.89109 1.69885 10.0122 1.61368 10.148 1.58797C10.2837 1.56225 10.423 1.59809 10.5353 1.68761L13.0738 3.71277C13.1861 3.80229 13.262 3.93815 13.2849 4.09046C13.3078 4.24277 13.2759 4.39906 13.1961 4.52495L8.08139 12.5941L9.35068 13.6067C9.43191 13.6715 9.49477 13.7612 9.53175 13.8651C9.56874 13.969 9.57828 14.0826 9.55923 14.1924C9.54019 14.3022 9.49337 14.4035 9.42437 14.4842C9.35537 14.565 9.2671 14.6217 9.17013 14.6477L3.80154 16.0822C3.72977 16.0986 3.65575 16.0983 3.58409 16.0813C3.51243 16.0643 3.44464 16.0309 3.38495 15.9833C3.32525 15.9357 3.27491 15.8748 3.23705 15.8044C3.1992 15.7341 3.17463 15.6558 3.16487 15.5743L2.6101 9.4144C2.60003 9.30311 2.61876 9.19093 2.66406 9.09127C2.70935 8.99162 2.77928 8.90872 2.86548 8.8525Z" fill="#DB4929"/>
</svg>
