<svg width="63" height="24" viewBox="0 0 63 24" fill="none" xmlns="http://www.w3.org/2000/svg">
<path d="M30.56 17V13.64C30.56 12.744 30.6907 12.03 30.952 11.498C31.2133 10.966 31.6053 10.5833 32.128 10.35C32.66 10.1167 33.3133 10 34.088 10C34.872 10 35.5253 10.1167 36.048 10.35C36.5707 10.5833 36.9627 10.966 37.224 11.498C37.4853 12.03 37.616 12.744 37.616 13.64V17H30.56ZM31.652 16.482L31.078 16.006H37.098L36.538 16.482V13.64C36.538 12.968 36.4633 12.4407 36.314 12.058C36.1647 11.666 35.908 11.3907 35.544 11.232C35.1893 11.0733 34.704 10.994 34.088 10.994C33.472 10.994 32.9867 11.0733 32.632 11.232C32.2773 11.3907 32.0253 11.666 31.876 12.058C31.7267 12.4407 31.652 12.968 31.652 13.64V16.482ZM32.59 8.74V7.48H33.682V8.74H32.59ZM34.508 8.74V7.48H35.6V8.74H34.508ZM39.1013 17V16.006H44.3233L43.4273 16.804V13.752C43.4273 13.0613 43.348 12.5153 43.1893 12.114C43.0306 11.7127 42.7693 11.428 42.4053 11.26C42.0506 11.0827 41.57 10.994 40.9633 10.994H39.8293V10H40.9633C41.71 10 42.3493 10.1167 42.8813 10.35C43.4133 10.5833 43.8193 10.9753 44.0993 11.526C44.3793 12.0673 44.5193 12.8093 44.5193 13.752V17H39.1013ZM48.0964 17V16.006H49.8044V17H48.0964ZM47.0184 17V6.962H48.0964V17H47.0184ZM49.8044 17V16.006C49.9257 16.006 50.0004 16.0527 50.0284 16.146C50.0657 16.23 50.0844 16.3467 50.0844 16.496C50.0844 16.6453 50.0657 16.7667 50.0284 16.86C50.0004 16.9533 49.9257 17 49.8044 17ZM53.2068 16.958C52.7028 16.5287 52.3155 16.0387 52.0448 15.488C51.7835 14.928 51.6528 14.3353 51.6528 13.71C51.6528 13.178 51.7462 12.688 51.9328 12.24C52.1195 11.7827 52.3762 11.386 52.7028 11.05C53.0295 10.714 53.4168 10.4573 53.8648 10.28C54.3128 10.0933 54.7935 10 55.3068 10C55.5775 10 55.8668 10.028 56.1748 10.084C56.4922 10.14 56.7955 10.2193 57.0848 10.322L56.7068 11.26C56.4735 11.176 56.2355 11.1107 55.9928 11.064C55.7595 11.0173 55.5355 10.994 55.3208 10.994C54.8262 10.994 54.3828 11.1107 53.9908 11.344C53.5988 11.5773 53.2908 11.8993 53.0668 12.31C52.8522 12.7113 52.7448 13.178 52.7448 13.71C52.7448 14.718 53.1368 15.5487 53.9208 16.202L53.2068 16.958ZM50.1688 17V16.006H57.2528V17H50.1688ZM50.1688 17C50.0475 17 49.9728 16.9533 49.9448 16.86C49.9075 16.7667 49.8888 16.6453 49.8888 16.496C49.8888 16.3467 49.9075 16.23 49.9448 16.146C49.9728 16.0527 50.0475 16.006 50.1688 16.006V17ZM60.1635 17V6.962H61.2415V17H60.1635Z" fill="white"/>
<path d="M20 3.04761H0V5.5238H20V3.04761Z" fill="#EDEFF1"/>
<path d="M1.2381 5.5238L2.19048 23.4286H17.8095L18.7619 5.5238H1.2381Z" fill="#EDEFF1"/>
<path d="M18.7011 6.66666L18.7619 5.5238H1.2381L1.29891 6.66666H18.7011Z" fill="#D3D3D3"/>
<path d="M10 21.2857C9.36881 21.2857 8.85715 20.7741 8.85715 20.1429V10.0476C8.85715 9.41645 9.36881 8.90479 10 8.90479C10.6312 8.90479 11.1429 9.41645 11.1429 10.0476V20.1429C11.1429 20.7741 10.6312 21.2857 10 21.2857Z" fill="#D3D3D3"/>
<path d="M14.4762 21.2857C13.845 21.2857 13.3333 20.7741 13.3333 20.1429V10.0476C13.3333 9.41645 13.845 8.90479 14.4762 8.90479C15.1074 8.90479 15.6191 9.41645 15.6191 10.0476V20.1429C15.6191 20.7741 15.1074 21.2857 14.4762 21.2857Z" fill="#D3D3D3"/>
<path d="M5.52381 21.2857C6.155 21.2857 6.66667 20.7741 6.66667 20.1429V10.0476C6.66667 9.41645 6.155 8.90479 5.52381 8.90479C4.89262 8.90479 4.38095 9.41645 4.38095 10.0476V20.1429C4.38095 20.7741 4.89262 21.2857 5.52381 21.2857Z" fill="#D3D3D3"/>
<path d="M5.80951 0V3.04762H7.33332V1.52381H12.6667V3.04762H14.1905V0H5.80951Z" fill="#D3D3D3"/>
</svg>
