<svg width="41" height="41" viewBox="0 0 41 41" fill="none" xmlns="http://www.w3.org/2000/svg">
<path d="M24.8321 9.107C24.7702 9.107 24.7103 9.09668 24.6546 9.07604C24.3615 9.07604 24.1221 8.83663 24.1221 8.54356V7.49099H18.9418V8.54356C18.9418 8.82012 18.7313 9.04715 18.4609 9.07398C18.4031 9.09462 18.3412 9.107 18.2772 9.107H16.3289V11.2803H26.5575V9.107H24.8321ZM25.5648 31.6466C25.4698 31.7333 25.3439 31.7869 25.2057 31.7869C25.1768 31.7869 25.1499 31.7849 25.1231 31.7807H12.1847V31.7828C11.8627 31.7828 11.5655 31.6487 11.3488 31.434V31.4319H11.3467L11.3447 31.4299C11.1321 31.2152 11 30.9201 11 30.5981V10.6033C11 10.2772 11.1342 9.98002 11.3488 9.76538C11.5634 9.55073 11.8606 9.41658 12.1867 9.41658H15.266V8.83457C15.266 8.61786 15.3548 8.41973 15.4993 8.27526L15.5013 8.27319L15.5034 8.27113C15.6478 8.12872 15.846 8.03998 16.0627 8.03998H17.881V7.3073C17.881 7.06583 17.98 6.84706 18.1389 6.68607L18.141 6.68401C18.2979 6.52509 18.5166 6.42603 18.7581 6.42603H24.3079C24.5493 6.42603 24.7681 6.52509 24.9291 6.68607L24.9312 6.68401C25.0901 6.84293 25.1891 7.06376 25.1891 7.3073V8.04204H26.8279C27.0446 8.04204 27.2427 8.13079 27.3872 8.27526L27.3892 8.27732L27.3913 8.27939L27.3934 8.28145C27.5358 8.42592 27.6245 8.62405 27.6245 8.84076V9.42277H30.7038C31.0279 9.42277 31.3251 9.55693 31.5397 9.77157L31.5418 9.7695C31.7564 9.98415 31.8906 10.2813 31.8906 10.6074V24.8853C31.9009 24.9287 31.9071 24.972 31.9071 25.0174C31.9071 25.1784 31.8369 25.3208 31.7234 25.4199L25.6102 31.6115C25.5957 31.6218 25.5792 31.6342 25.5648 31.6466ZM24.6732 30.7199V26.0886C24.6732 25.6469 24.8548 25.2444 25.1458 24.9534C25.4368 24.6624 25.8393 24.4808 26.2809 24.4808H30.8235V10.6033C30.8235 10.5703 30.8091 10.5414 30.7884 10.5187L30.7905 10.5166H30.7884C30.7678 10.496 30.7368 10.4836 30.7038 10.4836H27.6245V11.5506C27.6245 11.7673 27.5358 11.9655 27.3913 12.1099H27.3892L27.3872 12.112L27.3851 12.1141C27.2406 12.2565 27.0425 12.3452 26.8258 12.3452H16.0606C15.8419 12.3452 15.6417 12.2565 15.4993 12.112C15.4827 12.0955 15.4662 12.0769 15.4538 12.0583C15.3383 11.9201 15.266 11.7405 15.266 11.5486V10.4815H12.1847C12.1516 10.4815 12.1227 10.496 12.1 10.5166C12.0773 10.5393 12.065 10.5682 12.065 10.6012V30.594C12.065 30.627 12.0773 30.658 12.1 30.6786L12.1021 30.6807C12.1227 30.7013 12.1537 30.7158 12.1867 30.7158V30.7178L24.6732 30.7199ZM25.7381 26.0886V29.9645L30.1012 25.5458H26.2789C26.1303 25.5458 25.9941 25.6077 25.8971 25.7047C25.798 25.8038 25.7381 25.94 25.7381 26.0886ZM15.3899 23.8967C15.0947 23.8967 14.8574 23.6573 14.8574 23.3643C14.8574 23.0691 15.0968 22.8318 15.3899 22.8318H24.7599C25.0529 22.8318 25.2923 23.0712 25.2923 23.3643C25.2923 23.6573 25.0529 23.8967 24.7599 23.8967H15.3899ZM15.3899 16.7619C15.0947 16.7619 14.8574 16.5225 14.8574 16.2294C14.8574 15.9364 15.0968 15.697 15.3899 15.697H27.4986C27.7938 15.697 28.0311 15.9364 28.0311 16.2294C28.0311 16.5225 27.7917 16.7619 27.4986 16.7619H15.3899ZM15.3899 20.3283C15.0947 20.3283 14.8574 20.0889 14.8574 19.7958C14.8574 19.5027 15.0968 19.2633 15.3899 19.2633H27.4986C27.7938 19.2633 28.0311 19.5027 28.0311 19.7958C28.0311 20.0909 27.7917 20.3283 27.4986 20.3283H15.3899Z" fill="white"/>
</svg>
