<svg width="41" height="41" viewBox="0 0 41 41" fill="none" xmlns="http://www.w3.org/2000/svg">
<path d="M29.299 6.52866V18.9172C26.6669 18.835 24.3811 20.9858 24.3811 23.7253C24.3811 25.1585 25.0075 26.4429 26.0005 27.3241H10.9102C10.5825 27.3241 10.3125 27.0574 10.3125 26.7276V3.52173C10.3125 3.21663 10.5468 2.95831 10.8497 2.92854C10.8703 2.92629 10.8897 2.92517 10.9102 2.92517H25.6944L29.299 6.52866Z" fill="#EFEFEF"/>
<path d="M31.6847 1.29706V19.612C30.9881 19.1883 30.1788 18.9381 29.2997 18.9167V6.52895L25.6942 2.92568H10.8494V1.29706C10.8494 0.985874 11.1017 0.733521 11.4129 0.733521H31.121C31.4323 0.733521 31.6847 0.985874 31.6847 1.29706Z" fill="#EFEFEF"/>
<path d="M30.1349 18.2634V6.43019C30.1349 6.2714 30.0721 6.12048 29.9601 6.00844L26.2161 2.2644C26.1041 2.15237 25.9522 2.0896 25.7943 2.0896H10.8503V2.92498H25.6949L29.2997 6.52848V18.1834C26.5814 18.0079 23.647 20.3714 23.647 23.7251C23.647 25.0988 24.1463 26.356 24.975 27.3239H26.0013C25.0082 26.4429 24.3819 25.1583 24.3819 23.7251C24.3819 20.9856 26.6677 18.8349 29.2998 18.9171C30.1792 18.9383 30.9883 19.1883 31.6849 19.6119V18.7731C31.2045 18.5303 30.6832 18.3573 30.1349 18.2634Z" fill="#AFAFAF"/>
<path d="M33.9999 23.7249C33.9999 25.3672 33.1759 26.8198 31.9165 27.686C31.1417 28.2209 30.2034 28.5341 29.1907 28.5341C28.1782 28.5341 27.2399 28.2209 26.465 27.6872C26.3027 27.5752 26.1485 27.454 26.0011 27.3237C25.0079 26.4426 24.3816 25.1581 24.3816 23.7248C24.3816 20.9854 26.6674 18.8346 29.2995 18.9168C30.1788 18.938 30.9881 19.188 31.6846 19.6117C33.0731 20.4552 33.9999 21.9821 33.9999 23.7249Z" fill="#353535"/>
<path d="M29.0426 27.6677C29.0371 27.5122 29.1589 27.3819 29.3144 27.3764C30.218 27.3452 31.0728 26.9837 31.7214 26.3582C31.8334 26.2503 32.0117 26.2533 32.1198 26.3656C32.2277 26.4776 32.2246 26.6559 32.1125 26.764C31.3635 27.486 30.3766 27.9036 29.3338 27.9396C29.1776 27.9448 29.0478 27.8227 29.0426 27.6677ZM28.1372 27.8089C28.021 27.779 27.9044 27.7435 27.7905 27.7034C27.6437 27.6517 27.5667 27.4908 27.6184 27.3441C27.6701 27.1973 27.831 27.1203 27.9777 27.172C28.0763 27.2067 28.1772 27.2374 28.2777 27.2633C28.4285 27.3021 28.5193 27.4556 28.4804 27.6064C28.4414 27.7578 28.2869 27.8477 28.1372 27.8089Z" fill="#EFEFEF"/>
<path d="M23.1847 26.6183H22.6011C22.4454 26.6183 22.3193 26.4921 22.3193 26.3366C22.3193 26.181 22.4454 26.0548 22.6011 26.0548H23.1847C23.3403 26.0548 23.4664 26.181 23.4664 26.3366C23.4664 26.4921 23.3403 26.6183 23.1847 26.6183ZM21.4741 26.6183H11.2986C11.143 26.6183 11.0168 26.4921 11.0168 26.3366V4.3903C11.0168 4.23465 11.143 4.10852 11.2986 4.10852C11.4543 4.10852 11.5804 4.23465 11.5804 4.3903V26.0548H21.474C21.6296 26.0548 21.7558 26.181 21.7558 26.3366C21.7558 26.4923 21.6297 26.6183 21.4741 26.6183Z" fill="white"/>
<path d="M12.9426 23.4956H16.7747C16.9302 23.4956 17.0564 23.3693 17.0564 23.2138C17.0564 23.0583 16.9302 22.9321 16.7747 22.9321H12.9426C12.787 22.9321 12.6597 23.0583 12.6597 23.2138C12.6597 23.3693 12.7871 23.4956 12.9426 23.4956Z" fill="black"/>
<path d="M22.728 24.722H12.9417C12.786 24.722 12.6599 24.8482 12.6599 25.0038C12.6599 25.1593 12.786 25.2855 12.9417 25.2855H22.728C22.8837 25.2855 23.0098 25.1593 23.0098 25.0038C23.0098 24.8482 22.8837 24.722 22.728 24.722Z" fill="black"/>
<path d="M16.0016 14.3069L18.2771 15.8645C18.3707 15.9298 18.5002 15.9298 18.5949 15.8645L24.2303 12.0064C24.3599 11.9171 24.3893 11.7415 24.3035 11.6143C24.2178 11.4914 24.0353 11.4565 23.9113 11.541L18.436 15.2907L16.1605 13.732C16.0658 13.6678 15.9363 13.6678 15.8416 13.732L13.2234 15.5253V11.036C13.2234 10.8805 13.0972 10.7543 12.9417 10.7543C12.786 10.7543 12.6599 10.8805 12.6599 11.036C12.6599 11.648 12.6599 16.7159 12.6599 17.883C12.6599 18.0384 12.7848 18.1648 12.9417 18.1648H24.0703C24.2258 18.1648 24.3521 18.0386 24.3521 17.883C24.3521 17.7287 24.2271 17.6024 24.0727 17.6024C24.0727 17.6013 24.0715 17.6013 24.0703 17.6013H13.2234V16.2083L16.0016 14.3069Z" fill="black"/>
<path d="M24.3816 5.03223H12.9422C12.7865 5.03223 12.6604 5.15835 12.6604 5.31399C12.6604 5.46964 12.7865 5.59576 12.9422 5.59576H24.3816C24.5373 5.59576 24.6634 5.46964 24.6634 5.31399C24.6634 5.15835 24.5373 5.03223 24.3816 5.03223Z" fill="black"/>
<path d="M24.3815 6.9043H12.9427C12.7871 6.9043 12.6609 7.03053 12.6609 7.18607C12.6609 7.3416 12.7871 7.46784 12.9427 7.46784H24.3813C24.5369 7.46784 24.6631 7.3416 24.6631 7.18607C24.6631 7.03053 24.537 6.9043 24.3815 6.9043Z" fill="black"/>
<path d="M17.7315 9.05814C17.7315 8.9026 17.6053 8.77637 17.451 8.77637C17.2954 8.77637 17.1692 8.9026 17.1692 9.05814C17.1692 9.21367 17.2954 9.33989 17.451 9.33989C17.6053 9.33989 17.7315 9.21367 17.7315 9.05814Z" fill="black"/>
<path d="M12.9427 9.33989H16.3239C16.4783 9.33989 16.6046 9.21367 16.6046 9.05814C16.6046 8.9026 16.4783 8.77637 16.3239 8.77637H12.9427C12.7871 8.77637 12.6609 8.9026 12.6609 9.05814C12.6609 9.21367 12.7872 9.33989 12.9427 9.33989Z" fill="black"/>
<path d="M24.3816 8.77637H18.5771C18.4227 8.77637 18.2954 8.9026 18.2954 9.05814C18.2954 9.21367 18.4227 9.33989 18.5771 9.33989H24.3816C24.5371 9.33989 24.6633 9.21367 24.6633 9.05814C24.6633 8.9026 24.5371 8.77637 24.3816 8.77637Z" fill="black"/>
<path d="M13.2131 32.623C13.2131 32.5341 13.2209 32.4297 13.2363 32.3098C13.2518 32.19 13.2808 32.0547 13.3233 31.9039C13.3658 31.7493 13.4296 31.5772 13.5147 31.3877L14.228 31.6371C14.1855 31.7569 14.1487 31.8672 14.1178 31.9677C14.0869 32.0643 14.0637 32.1551 14.0482 32.2402C14.0327 32.3215 14.025 32.4026 14.025 32.4838C14.025 32.6577 14.0675 32.8086 14.1526 32.9361C14.2415 33.0676 14.3614 33.1681 14.5121 33.2377C14.6668 33.3112 14.8446 33.3479 15.0456 33.3479C15.3743 33.3479 15.6256 33.2937 15.7995 33.1855C15.9774 33.0811 16.0972 32.9149 16.1591 32.6868C16.2248 32.4549 16.25 32.1551 16.2345 31.7879L16.1185 28.5404H16.9361L17.0232 31.2834C17.0309 31.4766 17.0579 31.6256 17.1044 31.73C17.1508 31.8344 17.2223 31.9058 17.3189 31.9444C17.4195 31.9832 17.549 32.0024 17.7074 32.0024C17.8543 32.0024 17.9587 32.0412 18.0206 32.1184C18.0825 32.1919 18.1134 32.2847 18.1134 32.3969C18.1134 32.5167 18.0728 32.6172 17.9917 32.6984C17.9104 32.7757 17.7963 32.8144 17.6494 32.8144C17.5644 32.8144 17.4736 32.8028 17.3769 32.7796C17.2802 32.7564 17.1874 32.7197 17.0985 32.6693C17.0096 32.6192 16.9323 32.5534 16.8666 32.4722C16.8009 32.3871 16.7563 32.2827 16.7332 32.1591L17.0463 32.0024C17.0463 32.3929 16.9999 32.7236 16.9072 32.9941C16.8182 33.2647 16.6868 33.4831 16.5128 33.6494C16.3427 33.8157 16.132 33.9356 15.8807 34.009C15.6333 34.0863 15.3472 34.125 15.0225 34.125C14.775 34.125 14.5411 34.0941 14.3208 34.0321C14.1043 33.9703 13.9129 33.8776 13.7466 33.7538C13.5804 33.6301 13.449 33.4735 13.3523 33.2841C13.2595 33.0985 13.2131 32.8781 13.2131 32.623ZM21.5002 32.8144C21.3223 32.8144 21.1561 32.8008 21.0014 32.7737C20.8506 32.7466 20.7115 32.7002 20.5839 32.6346C20.4563 32.565 20.3423 32.4703 20.2418 32.3505C20.1451 32.2306 20.0639 32.0798 19.9981 31.8981L20.4563 31.5328C20.5259 31.6565 20.611 31.7531 20.7115 31.8227C20.812 31.8884 20.9318 31.9348 21.0711 31.9619C21.2102 31.9889 21.3726 32.0024 21.5582 32.0024C21.7051 32.0024 21.8094 32.0412 21.8713 32.1184C21.9332 32.1919 21.9641 32.2847 21.9641 32.3969C21.9641 32.5167 21.9235 32.6172 21.8423 32.6984C21.765 32.7757 21.6509 32.8144 21.5002 32.8144ZM17.7075 32.8144L17.7655 32.0024C17.9743 32.0024 18.1811 31.9908 18.386 31.9677C18.5909 31.9444 18.7901 31.9097 18.9834 31.8633C19.1767 31.8168 19.3602 31.7569 19.5342 31.6835C19.7121 31.61 19.8783 31.5211 20.033 31.4168C19.9171 31.3472 19.7913 31.2873 19.656 31.237C19.5208 31.1867 19.3757 31.1499 19.2211 31.1269C19.0703 31.0998 18.9099 31.0862 18.7397 31.0862C18.6779 31.0862 18.6121 31.0882 18.5426 31.0919C18.4768 31.0959 18.4093 31.1036 18.3396 31.1152C18.27 31.1229 18.2005 31.1345 18.1309 31.1499L18.0149 30.3556C18.127 30.3245 18.245 30.3033 18.3686 30.2917C18.4962 30.2762 18.6083 30.2686 18.705 30.2686C18.9138 30.2686 19.1051 30.2917 19.2791 30.3381C19.457 30.3846 19.6193 30.4425 19.7662 30.5121C19.9171 30.5817 20.0562 30.6513 20.1838 30.7208C20.3152 30.7904 20.4389 30.8484 20.5549 30.8948C20.6748 30.9412 20.7908 30.9644 20.9028 30.9644H21.1174L21.2102 31.7357C21.044 31.7434 20.8873 31.7764 20.7405 31.8344C20.5974 31.8884 20.4543 31.958 20.3113 32.0431C20.1722 32.1242 20.0214 32.2093 19.859 32.2982C19.7005 32.3871 19.5208 32.4703 19.3197 32.5476C19.1187 32.6249 18.8867 32.6886 18.6237 32.739C18.3609 32.7892 18.0555 32.8144 17.7075 32.8144ZM19.3486 34.1191C19.2366 34.1191 19.1399 34.0805 19.0587 34.0032C18.9814 33.9258 18.9427 33.8312 18.9427 33.719C18.9427 33.607 18.9814 33.5083 19.0587 33.4232C19.1399 33.3421 19.2366 33.3015 19.3486 33.3015C19.4608 33.3015 19.5554 33.3421 19.6329 33.4232C19.714 33.5083 19.7546 33.607 19.7546 33.719C19.7546 33.8312 19.714 33.9258 19.6329 34.0032C19.5554 34.0805 19.4608 34.1191 19.3486 34.1191ZM21.5598 32.8144L21.6178 32.0024C21.7454 32.0024 21.8498 31.9928 21.931 31.9735C22.0121 31.9503 22.0779 31.9019 22.1281 31.8285C22.1823 31.7512 22.2287 31.6371 22.2674 31.4864C22.3099 31.3318 22.3563 31.1229 22.4065 30.86L23.1604 30.9992C23.1488 31.0572 23.1352 31.1249 23.1197 31.2022C23.1043 31.2795 23.0908 31.3588 23.0793 31.44C23.0676 31.5173 23.0618 31.5869 23.0618 31.6487C23.0618 31.7569 23.0966 31.8439 23.1663 31.9097C23.2357 31.9716 23.3672 32.0024 23.5606 32.0024C23.6572 32.0024 23.7403 31.9928 23.8099 31.9735C23.8834 31.9503 23.9452 31.9019 23.9955 31.8285C24.0496 31.7512 24.0961 31.6333 24.1346 31.4748C24.1772 31.3124 24.2178 31.094 24.2564 30.8195L25.0219 30.9412C25.0065 31.0302 24.991 31.1249 24.9755 31.2254C24.9601 31.3259 24.9466 31.4188 24.9349 31.5037C24.9234 31.5888 24.9175 31.6584 24.9175 31.7125C24.9175 31.7628 24.9311 31.8111 24.9582 31.8575C24.9891 31.9 25.0433 31.9348 25.1205 31.9619C25.2017 31.9889 25.3157 32.0024 25.4627 32.0024C25.5671 32.0024 25.656 31.9889 25.7294 31.9619C25.8067 31.9348 25.8647 31.8903 25.9034 31.8285C25.9459 31.7667 25.9671 31.6855 25.9671 31.5849C25.9671 31.4419 25.9343 31.2543 25.8686 31.0224C25.8028 30.7904 25.7256 30.5469 25.6367 30.2917L26.4543 30.0482C26.5161 30.2144 26.5702 30.3922 26.6166 30.5817C26.667 30.7672 26.7056 30.949 26.7327 31.1269C26.7636 31.3009 26.7791 31.4535 26.7791 31.5849C26.7791 31.7821 26.7481 31.958 26.6863 32.1126C26.6245 32.2635 26.5374 32.391 26.4253 32.4954C26.3133 32.5997 26.1799 32.679 26.0251 32.7331C25.8706 32.7873 25.7004 32.8144 25.5149 32.8144C25.2906 32.8144 25.107 32.7932 24.9639 32.7506C24.821 32.7042 24.7107 32.6288 24.6334 32.5244C24.5599 32.4162 24.5116 32.2692 24.4884 32.0837H24.6855C24.6044 32.3118 24.5136 32.478 24.4131 32.5824C24.3125 32.6829 24.1926 32.7466 24.0535 32.7737C23.9181 32.8008 23.7481 32.8144 23.5431 32.8144C23.4155 32.8144 23.2841 32.8008 23.1488 32.7737C23.0174 32.7428 22.8995 32.6732 22.795 32.565C22.6906 32.4567 22.6134 32.2885 22.5631 32.0604L22.8762 32.0488C22.795 32.277 22.6887 32.4451 22.5573 32.5534C22.4298 32.6617 22.2828 32.7332 22.1167 32.768C21.9503 32.7989 21.7648 32.8144 21.5598 32.8144Z" fill="#FEFEFE"/>
<path d="M9.45004 38.9954L9.61213 38.1226C10.0153 38.1226 10.3665 38.1122 10.6657 38.0915C10.965 38.0664 11.2122 38.0311 11.4076 37.9854C11.6071 37.9356 11.7546 37.8712 11.8502 37.7922C11.95 37.7132 11.9998 37.6176 11.9998 37.5054C11.9998 37.3558 11.9749 37.177 11.925 36.9693C11.8751 36.7572 11.8107 36.5432 11.7317 36.3272L12.5484 36.0902C12.6025 36.2316 12.6544 36.3874 12.7043 36.5577C12.7542 36.7241 12.7936 36.8924 12.8227 37.0627C12.856 37.229 12.8726 37.3849 12.8726 37.5304C12.8726 37.7881 12.8165 38.0104 12.7043 38.1974C12.5921 38.3802 12.405 38.5319 12.1432 38.6524C11.8855 38.7689 11.5364 38.8542 11.0959 38.9081C10.6553 38.9663 10.1067 38.9954 9.45004 38.9954ZM9.4438 38.9954C8.99495 38.9954 8.61465 38.96 8.30295 38.8894C7.99539 38.8229 7.74395 38.7273 7.54861 38.6026C7.35743 38.4737 7.2182 38.3242 7.13092 38.1537C7.04364 37.9833 7 37.7963 7 37.5926C7 37.4596 7.01039 37.3266 7.03117 37.1937C7.05611 37.0566 7.0852 36.9236 7.11845 36.7947C7.15585 36.6658 7.1891 36.5495 7.2182 36.4455L7.99747 36.6263C7.98084 36.7012 7.96214 36.7822 7.94137 36.8695C7.92058 36.9568 7.90395 37.042 7.89149 37.1251C7.87902 37.2041 7.87278 37.2767 7.87278 37.3433C7.87278 37.497 7.92682 37.6342 8.03487 37.7548C8.1471 37.8712 8.32996 37.9626 8.58349 38.029C8.83701 38.0915 9.17781 38.1226 9.60589 38.1226L9.73057 38.796L9.4438 38.9954ZM10.4724 36.1464C10.3519 36.1464 10.248 36.1048 10.1607 36.0217C10.0776 35.9344 10.036 35.8326 10.036 35.7161C10.036 35.5956 10.0776 35.4917 10.1607 35.4044C10.248 35.3172 10.3519 35.2736 10.4724 35.2736C10.5888 35.2736 10.6886 35.3172 10.7717 35.4044C10.8548 35.4917 10.8964 35.5956 10.8964 35.7161C10.8964 35.8326 10.8548 35.9344 10.7717 36.0217C10.6886 36.1048 10.5888 36.1464 10.4724 36.1464ZM9.39394 36.1402C9.27339 36.1402 9.1695 36.0985 9.08221 36.0155C8.9991 35.9282 8.95754 35.8262 8.95754 35.71C8.95754 35.5894 8.9991 35.4855 9.08221 35.3983C9.1695 35.311 9.27339 35.2673 9.39394 35.2673C9.5103 35.2673 9.61004 35.311 9.69317 35.3983C9.77629 35.4855 9.81785 35.5894 9.81785 35.71C9.81785 35.8262 9.77629 35.9282 9.69317 36.0155C9.61004 36.0985 9.5103 36.1402 9.39394 36.1402ZM15.2255 38.8956C14.839 38.8956 14.5398 38.8562 14.3277 38.7771C14.12 38.6982 13.9745 38.5755 13.8914 38.4094C13.8082 38.239 13.7605 38.0249 13.748 37.7672L13.6309 34.6686H14.5037L14.6208 37.3495C14.6291 37.5407 14.6499 37.684 14.6831 37.7796C14.7164 37.8753 14.7787 37.9397 14.8701 37.973C14.9657 38.0062 15.1049 38.0229 15.2878 38.0229C15.4458 38.0229 15.558 38.0644 15.6244 38.1476C15.6951 38.2265 15.7305 38.3262 15.7305 38.4468C15.7305 38.5755 15.6868 38.6837 15.5995 38.7709C15.5123 38.8541 15.3876 38.8956 15.2255 38.8956ZM15.2963 38.8956L15.3586 38.0229C15.5083 38.0229 15.6371 38.0083 15.7451 37.9792C15.8532 37.9501 15.9447 37.8919 16.0195 37.8047C16.0943 37.7132 16.1566 37.5802 16.2065 37.4057C16.2605 37.2311 16.3083 36.9984 16.3498 36.7074L17.1665 36.8446C17.1583 36.9069 17.1459 36.9796 17.1291 37.0627C17.1167 37.1459 17.1042 37.2311 17.0917 37.3184C17.0835 37.4014 17.0792 37.4805 17.0792 37.5552C17.0792 37.6301 17.0938 37.6966 17.1229 37.7548C17.152 37.813 17.1978 37.8628 17.26 37.9043C17.3265 37.9417 17.4118 37.9708 17.5157 37.9916C17.6237 38.0125 17.7546 38.0229 17.9084 38.0229C18.0663 38.0229 18.1786 38.0644 18.245 38.1476C18.3116 38.2265 18.3448 38.3262 18.3448 38.4468C18.3448 38.5755 18.3012 38.6837 18.2139 38.7709C18.1308 38.8541 18.0081 38.8956 17.846 38.8956C17.659 38.8956 17.4886 38.881 17.3349 38.852C17.1852 38.8229 17.0543 38.7751 16.9421 38.7086C16.8341 38.6379 16.7446 38.5465 16.6741 38.4343C16.6076 38.3179 16.566 38.1767 16.5494 38.0104H16.8487C16.7738 38.2099 16.6782 38.3699 16.5618 38.4903C16.4496 38.6068 16.3229 38.6941 16.1815 38.7523C16.0402 38.8105 15.8928 38.8479 15.7389 38.8644C15.5893 38.8852 15.4418 38.8956 15.2963 38.8956ZM17.0356 40.342C16.9151 40.342 16.8113 40.2983 16.724 40.211C16.6408 40.1279 16.5993 40.0281 16.5993 39.9119C16.5993 39.7912 16.6408 39.6873 16.724 39.6C16.8113 39.5129 16.9151 39.4692 17.0356 39.4692C17.152 39.4692 17.2517 39.5129 17.3349 39.6C17.4181 39.6873 17.4596 39.7912 17.4596 39.9119C17.4596 40.0281 17.4181 40.1279 17.3349 40.211C17.2517 40.2983 17.152 40.342 17.0356 40.342ZM15.9571 40.342C15.8366 40.342 15.7327 40.2983 15.6454 40.211C15.5623 40.1279 15.5208 40.0281 15.5208 39.9119C15.5208 39.7912 15.5623 39.6873 15.6454 39.6C15.7327 39.5129 15.8366 39.4692 15.9571 39.4692C16.0734 39.4692 16.1732 39.5129 16.2563 39.6C16.3395 39.6873 16.3811 39.7912 16.3811 39.9119C16.3811 40.0281 16.3395 40.1279 16.2563 40.211C16.1732 40.2983 16.0734 40.342 15.9571 40.342ZM21.1388 38.9766C20.7524 38.9766 20.4302 38.96 20.1725 38.9268C19.9191 38.8936 19.7133 38.8458 19.5554 38.7834C19.3974 38.7211 19.2728 38.6463 19.1813 38.559C19.0899 38.4717 19.0151 38.3761 18.9569 38.2723L19.1314 38.2223C19.0276 38.4218 18.909 38.5694 18.7761 38.665C18.6431 38.7606 18.5039 38.8229 18.3585 38.852C18.2129 38.881 18.0633 38.8956 17.9095 38.8956L17.9719 38.0229C18.1007 38.0229 18.2025 38.0021 18.2774 37.9605C18.3521 37.9189 18.4124 37.8504 18.4581 37.7548C18.508 37.6592 18.5537 37.5324 18.5953 37.3744C18.6368 37.2165 18.6867 37.0232 18.7449 36.7947L19.5366 36.988C19.5075 37.1001 19.4827 37.1978 19.4618 37.281C19.4453 37.364 19.4307 37.4368 19.4182 37.4991C19.4099 37.5573 19.4057 37.6052 19.4057 37.6425C19.4057 37.7215 19.4245 37.7922 19.4618 37.8545C19.4992 37.9128 19.572 37.9605 19.6801 37.9979C19.7881 38.0311 19.946 38.0581 20.1539 38.0789C20.3658 38.0955 20.6422 38.1039 20.9831 38.1039C21.3446 38.1039 21.6459 38.0915 21.887 38.0664C22.1281 38.0374 22.3192 37.9979 22.4605 37.948C22.6059 37.894 22.7099 37.8296 22.7722 37.7548C22.8345 37.6758 22.8657 37.5864 22.8657 37.4867C22.8657 37.4077 22.8471 37.3349 22.8096 37.2685C22.7763 37.1978 22.7203 37.1396 22.6413 37.094C22.5623 37.0482 22.4605 37.0254 22.3358 37.0254C22.1862 37.0254 22.0345 37.0627 21.8807 37.1376C21.7311 37.2083 21.5835 37.3039 21.438 37.4242C21.2927 37.5407 21.1534 37.6716 21.0205 37.8171C20.8915 37.9626 20.7752 38.108 20.6713 38.2535L19.7362 38.1476C19.8982 37.8857 20.0811 37.6342 20.2847 37.3932C20.4885 37.1521 20.7065 36.9402 20.9394 36.7573C21.1721 36.5702 21.4131 36.4227 21.6625 36.3146C21.9119 36.2066 22.1654 36.1526 22.4231 36.1526C22.7015 36.1526 22.9384 36.2066 23.1338 36.3146C23.3292 36.4227 23.4787 36.5723 23.5826 36.7636C23.6866 36.9547 23.7385 37.175 23.7385 37.4242C23.7385 37.7277 23.6512 37.9958 23.4767 38.2286C23.3063 38.4613 23.0299 38.6442 22.6475 38.7771C22.2693 38.9101 21.7664 38.9766 21.1388 38.9766ZM24.397 40.2983L24.2162 39.4256C24.5114 39.3882 24.769 39.3425 24.9893 39.2883C25.2096 39.2385 25.3945 39.1679 25.5441 39.0765C25.6938 38.985 25.8059 38.8603 25.8808 38.7023C25.9555 38.5403 25.9929 38.3325 25.9929 38.0789C25.9929 37.8338 25.9555 37.6384 25.8808 37.493C25.8059 37.3475 25.7062 37.2747 25.5815 37.2747C25.4943 37.2747 25.4215 37.3059 25.3633 37.3683C25.3052 37.4265 25.2615 37.497 25.2324 37.5802C25.2075 37.6592 25.195 37.7298 25.195 37.7922C25.195 37.8296 25.2055 37.8691 25.2262 37.9106C25.2469 37.9522 25.2928 37.9875 25.3633 38.0166C25.434 38.0457 25.5441 38.0624 25.6938 38.0664C25.8475 38.0706 26.0554 38.0561 26.3172 38.0229H27.3645C27.5225 38.0229 27.6346 38.0644 27.7012 38.1476C27.7718 38.2265 27.8072 38.3262 27.8072 38.4468C27.8072 38.5755 27.7635 38.6837 27.6762 38.7709C27.5889 38.8541 27.4642 38.8956 27.3022 38.8956H25.5878C25.3259 38.8956 25.1015 38.8644 24.9144 38.8021C24.7274 38.7397 24.5841 38.64 24.4843 38.5028C24.3846 38.3616 24.3347 38.1745 24.3347 37.9417C24.3347 37.7548 24.3659 37.5678 24.4282 37.3808C24.4948 37.1937 24.5862 37.0232 24.7025 36.8695C24.8189 36.7117 24.954 36.5869 25.1077 36.4955C25.2657 36.3999 25.4361 36.352 25.619 36.352C25.8682 36.352 26.0865 36.429 26.2736 36.5828C26.4606 36.7365 26.606 36.9402 26.7098 37.1937C26.818 37.4472 26.872 37.7235 26.872 38.0229C26.872 38.4925 26.7723 38.8916 26.5728 39.2198C26.3733 39.5481 26.0885 39.8017 25.7186 39.9804C25.3488 40.1632 24.9083 40.2693 24.397 40.2983ZM27.3733 38.8956L27.4358 38.0229C27.5853 38.0229 27.7141 38.0083 27.8222 37.9792C27.9303 37.9501 28.0217 37.8919 28.0964 37.8047C28.1713 37.7132 28.2337 37.5802 28.2835 37.4057C28.3376 37.2311 28.3854 36.9984 28.427 36.7074L29.2436 36.8446C29.2353 36.9069 29.2228 36.9796 29.2063 37.0627C29.1937 37.1459 29.1813 37.2311 29.1688 37.3184C29.1604 37.4014 29.1563 37.4805 29.1563 37.5552C29.1563 37.6301 29.1709 37.6966 29.1999 37.7548C29.2291 37.813 29.2747 37.8628 29.3372 37.9043C29.4037 37.9417 29.4888 37.9708 29.5927 37.9916C29.7008 38.0125 29.8317 38.0229 29.9855 38.0229C30.1434 38.0229 30.2556 38.0644 30.3222 38.1476C30.3886 38.2265 30.4218 38.3262 30.4218 38.4468C30.4218 38.5755 30.3782 38.6837 30.2909 38.7709C30.2078 38.8541 30.0852 38.8956 29.9232 38.8956C29.7361 38.8956 29.5658 38.881 29.4119 38.852C29.2623 38.8229 29.1314 38.7751 29.0192 38.7086C28.9111 38.6379 28.8218 38.5465 28.7511 38.4343C28.6846 38.3179 28.643 38.1767 28.6264 38.0104H28.9256C28.8508 38.2099 28.7552 38.3699 28.6389 38.4903C28.5266 38.6068 28.3999 38.6941 28.2586 38.7523C28.1173 38.8105 27.9698 38.8479 27.816 38.8644C27.6664 38.8852 27.5188 38.8956 27.3733 38.8956ZM29.3745 36.1464C29.2541 36.1464 29.15 36.1048 29.0628 36.0217C28.9797 35.9344 28.9381 35.8326 28.9381 35.7161C28.9381 35.5956 28.9797 35.4917 29.0628 35.4044C29.15 35.3172 29.2541 35.2736 29.3745 35.2736C29.4909 35.2736 29.5906 35.3172 29.6738 35.4044C29.7569 35.4917 29.7985 35.5956 29.7985 35.7161C29.7985 35.8326 29.7569 35.9344 29.6738 36.0217C29.5906 36.1048 29.4909 36.1464 29.3745 36.1464ZM28.296 36.1402C28.1755 36.1402 28.0716 36.0985 27.9843 36.0155C27.9012 35.9282 27.8596 35.8262 27.8596 35.71C27.8596 35.5894 27.9012 35.4855 27.9843 35.3983C28.0716 35.311 28.1755 35.2673 28.296 35.2673C28.4125 35.2673 28.5121 35.311 28.5952 35.3983C28.6784 35.4855 28.7199 35.5894 28.7199 35.71C28.7199 35.8262 28.6784 35.9282 28.5952 36.0155C28.5121 36.0985 28.4125 36.1402 28.296 36.1402ZM29.9866 38.8956L30.0489 38.0229C30.2401 38.0229 30.3772 38.0042 30.4603 37.9668C30.5435 37.9252 30.5934 37.8504 30.61 37.7423C30.6266 37.6301 30.6308 37.4679 30.6224 37.2561L30.5102 34.301H31.3892L31.5139 37.3184C31.5222 37.5595 31.5119 37.7776 31.4828 37.973C31.4579 38.1641 31.3934 38.3283 31.2895 38.4654C31.1897 38.6026 31.0339 38.7086 30.822 38.7834C30.6142 38.8582 30.3357 38.8956 29.9866 38.8956ZM32.3985 38.8644L32.2675 34.301H33.1403L33.2712 38.8644H32.3985Z" fill="#FEFEFE"/>
<path fill-rule="evenodd" clip-rule="evenodd" d="M30.1873 21.0599V21.3899C30.1226 21.429 29.9435 21.4765 29.6876 21.5251C29.3072 21.5973 28.7788 21.6419 28.1927 21.6419C27.6067 21.6419 27.0783 21.5973 26.6978 21.5251C26.4419 21.4765 26.2629 21.429 26.1982 21.3899V21.0599C26.1982 20.5271 30.1873 20.5271 30.1873 21.0599ZM30.1873 21.6415V22.3638C30.1226 22.403 29.9435 22.4504 29.6876 22.499C29.3072 22.5713 28.7788 22.6159 28.1927 22.6159C27.6067 22.6159 27.0783 22.5713 26.6978 22.499C26.4419 22.4504 26.2629 22.403 26.1982 22.3638V21.6415C26.317 21.6931 26.4705 21.737 26.6517 21.7713C27.0482 21.8465 27.5932 21.8932 28.1927 21.8932C28.7923 21.8932 29.3373 21.8465 29.7338 21.7713C29.915 21.737 30.0684 21.6931 30.1873 21.6415ZM30.1873 22.6154V23.3378C30.1226 23.377 29.9435 23.4245 29.6876 23.473C29.3072 23.5452 28.7788 23.5898 28.1927 23.5898C27.6067 23.5898 27.0783 23.5452 26.6978 23.473C26.4419 23.4245 26.2629 23.377 26.1982 23.3378V22.6154C26.317 22.6671 26.4705 22.7108 26.6517 22.7453C27.0482 22.8205 27.5932 22.8671 28.1927 22.8671C28.7923 22.8671 29.3373 22.8205 29.7338 22.7453C29.915 22.7108 30.0684 22.6671 30.1873 22.6154ZM30.1873 23.5893V24.3118C30.1226 24.3509 29.9435 24.3984 29.6876 24.4469C29.3072 24.5192 28.7788 24.5638 28.1927 24.5638C27.6067 24.5638 27.0783 24.5192 26.6978 24.4469C26.4419 24.3984 26.2629 24.3509 26.1982 24.3118V23.5893C26.317 23.6411 26.4705 23.6849 26.6517 23.7193C27.0482 23.7945 27.5932 23.8411 28.1927 23.8411C28.7923 23.8411 29.3373 23.7945 29.7338 23.7193C29.915 23.6849 30.0684 23.6411 30.1873 23.5893ZM30.1873 24.5634V25.3049C30.1873 25.5299 29.2943 25.7123 28.1927 25.7123C27.0912 25.7123 26.1982 25.5425 26.1982 25.3174V24.5634C26.317 24.615 26.4705 24.6588 26.6517 24.6932C27.0482 24.7685 27.5932 24.815 28.1927 24.815C28.7923 24.815 29.3373 24.7685 29.7338 24.6932C29.915 24.6588 30.0684 24.615 30.1873 24.5634Z" fill="#FFFFFE"/>
<path fill-rule="evenodd" clip-rule="evenodd" d="M32.0678 21.728V21.9619C32.022 21.9897 31.8951 22.0233 31.7137 22.0578C31.4441 22.109 31.0695 22.1406 30.6541 22.1406C30.5365 22.1406 30.4223 22.138 30.3127 22.1333V21.4523C31.1128 21.4167 32.0678 21.5084 32.0678 21.728ZM32.0678 22.1402V22.6522C32.022 22.6801 31.8951 22.7137 31.7137 22.7481C31.4441 22.7993 31.0695 22.831 30.6541 22.831C30.5365 22.831 30.4223 22.8284 30.3127 22.8237V22.3114C30.4228 22.3161 30.5369 22.3186 30.6541 22.3186C31.0791 22.3186 31.4653 22.2857 31.7463 22.2324C31.8748 22.2079 31.9836 22.1768 32.0678 22.1402ZM32.0678 22.8306V23.3427C32.022 23.3704 31.8951 23.4041 31.7137 23.4385C31.4441 23.4897 31.0695 23.5214 30.6541 23.5214C30.5365 23.5214 30.4223 23.5188 30.3127 23.514V23.0018C30.4228 23.0066 30.5369 23.009 30.6541 23.009C31.0791 23.009 31.4653 22.976 31.7463 22.9227C31.8748 22.8983 31.9836 22.8673 32.0678 22.8306ZM32.0678 23.5209V24.0331C32.022 24.0609 31.8951 24.0944 31.7137 24.1288C31.4441 24.18 31.0695 24.2117 30.6541 24.2117C30.5365 24.2117 30.4223 24.2092 30.3127 24.2044V23.6921C30.4228 23.6969 30.5369 23.6994 30.6541 23.6994C31.0791 23.6994 31.4653 23.6663 31.7463 23.613C31.8748 23.5886 31.9836 23.5576 32.0678 23.5209ZM32.0678 24.2114V24.7369C32.0678 24.8965 31.4349 25.0258 30.6541 25.0258C30.5364 25.0258 30.4221 25.023 30.3127 25.0178V24.3824C30.4228 24.3873 30.5369 24.3897 30.6541 24.3897C31.0791 24.3897 31.4653 24.3567 31.7463 24.3034C31.8748 24.2791 31.9836 24.248 32.0678 24.2114Z" fill="#FFFFFE"/>
</svg>
