<svg width="23" height="23" viewBox="0 0 23 23" fill="none" xmlns="http://www.w3.org/2000/svg">
<path d="M21.5394 15.199H12.6702C11.9705 15.199 11.4032 15.7662 11.4032 16.466V17.733C11.4032 18.4328 11.9705 19 12.6702 19H21.5394C22.2391 19 22.8064 18.4328 22.8064 17.733V16.466C22.8064 15.7662 22.2391 15.199 21.5394 15.199Z" fill="#FFCC66"/>
<path d="M21.5394 11.3978H12.6702C11.9705 11.3978 11.4032 11.9651 11.4032 12.6649V13.9319C11.4032 14.6316 11.9705 15.1989 12.6702 15.1989H21.5394C22.2391 15.1989 22.8064 14.6316 22.8064 13.9319V12.6649C22.8064 11.9651 22.2391 11.3978 21.5394 11.3978Z" fill="#FFCC66"/>
<path d="M10.1362 15.199H1.26702C0.567266 15.199 0 15.7662 0 16.466V17.733C0 18.4328 0.567266 19 1.26702 19H10.1362C10.8359 19 11.4032 18.4328 11.4032 17.733V16.466C11.4032 15.7662 10.8359 15.199 10.1362 15.199Z" fill="#FFCC66"/>
<path d="M10.1362 19H1.26702C0.567266 19 0 19.5673 0 20.267V21.534C0 22.2338 0.567266 22.8011 1.26702 22.8011H10.1362C10.8359 22.8011 11.4032 22.2338 11.4032 21.534V20.267C11.4032 19.5673 10.8359 19 10.1362 19Z" fill="#FFCC66"/>
<path d="M21.5362 19H12.667C11.9673 19 11.4 19.5673 11.4 20.267V21.534C11.4 22.2338 11.9673 22.8011 12.667 22.8011H21.5362C22.2359 22.8011 22.8032 22.2338 22.8032 21.534V20.267C22.8032 19.5673 22.2359 19 21.5362 19Z" fill="#FFCC66"/>
<path d="M11.4032 16.466V17.733H3.80108C3.129 17.733 2.48446 17.466 2.00923 16.9908C1.53401 16.5156 1.26703 15.871 1.26703 15.199H10.1362C10.4722 15.199 10.7945 15.3325 11.0321 15.5701C11.2697 15.8077 11.4032 16.13 11.4032 16.466Z" fill="#FFDE76"/>
<path d="M11.1362 20.267V21.534H3.53405C2.86198 21.534 2.21743 21.2671 1.74221 20.7918C1.26698 20.3166 1 19.6721 1 19H9.86916C10.2052 19 10.5275 19.1335 10.7651 19.3711C11.0027 19.6087 11.1362 19.931 11.1362 20.267Z" fill="#FFDE76"/>
<path d="M22.1362 20.267V21.534H14.534C13.862 21.534 13.2174 21.2671 12.7422 20.7918C12.267 20.3166 12 19.6721 12 19H20.8692C21.2052 19 21.5275 19.1335 21.7651 19.3711C22.0027 19.6087 22.1362 19.931 22.1362 20.267Z" fill="#FFDE76"/>
<path d="M10.1362 11.3978H1.26702C0.567266 11.3978 0 11.9651 0 12.6649V13.9319C0 14.6316 0.567266 15.1989 1.26702 15.1989H10.1362C10.8359 15.1989 11.4032 14.6316 11.4032 13.9319V12.6649C11.4032 11.9651 10.8359 11.3978 10.1362 11.3978Z" fill="#FFCC66"/>
<path d="M21.5394 7.5968H12.6702C11.9705 7.5968 11.4032 8.16407 11.4032 8.86383V10.1308C11.4032 10.8306 11.9705 11.3979 12.6702 11.3979H21.5394C22.2391 11.3979 22.8064 10.8306 22.8064 10.1308V8.86383C22.8064 8.16407 22.2391 7.5968 21.5394 7.5968Z" fill="#FFCC66"/>
<path d="M11.4032 5.69625C11.4041 6.67236 11.1544 7.63235 10.678 8.4843C10.2017 9.33626 9.51451 10.0516 8.68243 10.562C7.85035 11.0723 6.90119 11.3604 5.92584 11.3988C4.9505 11.4372 3.98163 11.2245 3.11201 10.7812C2.24239 10.3379 1.50116 9.6787 0.959277 8.86683C0.417398 8.05495 0.0930256 7.11755 0.0172211 6.1444C-0.0585833 5.17124 0.116719 4.19492 0.526341 3.30893C0.935963 2.42293 1.56619 1.65693 2.35666 1.08429C3.20729 0.468064 4.21161 0.0987947 5.25882 0.0172219C6.30603 -0.064351 7.35541 0.144943 8.2912 0.622012C9.22699 1.09908 10.0128 1.82538 10.562 2.72078C11.1111 3.61618 11.4022 4.64587 11.4032 5.69625Z" fill="#FFCC66"/>
<path d="M11.4032 5.69625C11.4042 6.89863 11.0226 8.07015 10.3135 9.04119C9.21524 9.82989 7.8724 10.2026 6.52473 10.0928C5.17705 9.98296 3.91227 9.39776 2.95616 8.44165C2.00006 7.48555 1.41486 6.22076 1.30504 4.87309C1.19522 3.52542 1.56792 2.18258 2.35662 1.08429C3.20725 0.468064 4.21157 0.0987947 5.25878 0.0172219C6.30599 -0.0643509 7.35537 0.144943 8.29116 0.622012C9.22695 1.09908 10.0128 1.82538 10.5619 2.72078C11.1111 3.61618 11.4022 4.64587 11.4032 5.69625Z" fill="#FFDE76"/>
<path d="M5.70157 5.06268C5.57628 5.06268 5.45379 5.02553 5.34961 4.95592C5.24543 4.8863 5.16423 4.78736 5.11628 4.6716C5.06834 4.55584 5.05579 4.42847 5.08023 4.30558C5.10468 4.18269 5.16501 4.06981 5.25361 3.98121C5.34221 3.89261 5.45509 3.83228 5.57798 3.80783C5.70087 3.78339 5.82825 3.79593 5.94401 3.84388C6.05977 3.89183 6.15871 3.97303 6.22832 4.07721C6.29793 4.18139 6.33509 4.30387 6.33509 4.42917C6.33509 4.59719 6.40183 4.75832 6.52064 4.87713C6.63944 4.99594 6.80058 5.06268 6.9686 5.06268C8.02023 5.06268 7.73515 3.16215 6.33509 2.64267C6.33509 2.47465 6.26834 2.31351 6.14953 2.19471C6.03073 2.0759 5.86959 2.00916 5.70157 2.00916C5.53356 2.00916 5.37242 2.0759 5.25361 2.19471C5.13481 2.31351 5.06806 2.47465 5.06806 2.64267C4.64908 2.7947 4.29685 3.08915 4.07296 3.47455C3.84907 3.85995 3.76775 4.31179 3.84323 4.75106C3.91871 5.19034 4.14618 5.58912 4.48587 5.87768C4.82556 6.16625 5.25587 6.32625 5.70157 6.32971C5.82687 6.32971 5.94935 6.36686 6.05353 6.43647C6.15771 6.50608 6.23891 6.60502 6.28686 6.72078C6.33481 6.83654 6.34736 6.96392 6.32291 7.08681C6.29847 7.2097 6.23813 7.32258 6.14953 7.41118C6.06094 7.49978 5.94805 7.56011 5.82517 7.58456C5.70228 7.609 5.5749 7.59645 5.45914 7.54851C5.34338 7.50056 5.24444 7.41936 5.17483 7.31518C5.10522 7.211 5.06806 7.08851 5.06806 6.96322C5.06806 6.7952 5.00132 6.63406 4.88251 6.51526C4.7637 6.39645 4.60257 6.32971 4.43455 6.32971C3.38292 6.32971 3.668 8.23024 5.06806 8.74972C5.06806 8.91774 5.13481 9.07887 5.25361 9.19768C5.37242 9.31649 5.53356 9.38323 5.70157 9.38323C5.86959 9.38323 6.03073 9.31649 6.14953 9.19768C6.26834 9.07887 6.33509 8.91774 6.33509 8.74972C6.75407 8.59769 7.1063 8.30324 7.33019 7.91784C7.55408 7.53243 7.63539 7.0806 7.55992 6.64132C7.48444 6.20204 7.25697 5.80327 6.91728 5.5147C6.57758 5.22614 6.14728 5.06614 5.70157 5.06268V5.06268Z" fill="#8DC351"/>
<path d="M11.4032 12.6649V13.9319H3.80108C3.129 13.9319 2.48446 13.6649 2.00923 13.1897C1.53401 12.7144 1.26703 12.0699 1.26703 11.3978H10.1362C10.4722 11.3978 10.7945 11.5313 11.0321 11.7689C11.2697 12.0065 11.4032 12.3288 11.4032 12.6649Z" fill="#FFDE76"/>
<path d="M22.8064 16.466V17.733H15.2043C14.5322 17.733 13.8877 17.466 13.4124 16.9908C12.9372 16.5156 12.6702 15.871 12.6702 15.199H21.5394C21.8754 15.199 22.1977 15.3325 22.4353 15.5701C22.6729 15.8077 22.8064 16.13 22.8064 16.466Z" fill="#FFDE76"/>
<path d="M22.8064 12.6649V13.9319H15.2043C14.5322 13.9319 13.8877 13.6649 13.4124 13.1897C12.9372 12.7144 12.6702 12.0699 12.6702 11.3978H21.5394C21.8754 11.3978 22.1977 11.5313 22.4353 11.7689C22.6729 12.0065 22.8064 12.3288 22.8064 12.6649Z" fill="#FFDE76"/>
<path d="M22.8064 8.86383V10.1308H15.2043C14.5322 10.1308 13.8877 9.86387 13.4124 9.38864C12.9372 8.91342 12.6702 8.26887 12.6702 7.5968H21.5394C21.8754 7.5968 22.1977 7.73029 22.4353 7.9679C22.6729 8.20552 22.8064 8.52779 22.8064 8.86383Z" fill="#FFDE76"/>
</svg>
