<svg width="54" height="54" viewBox="0 0 54 54" fill="none" xmlns="http://www.w3.org/2000/svg">
<path d="M47.4147 38.1951H3.95123V42.1463H47.4147V38.1951Z" fill="#F1F2F2"/>
<path d="M25.9691 11.2205L25.087 12.0321L17.4412 19.0103L12.942 14.9316L5.33796 21.5284H4.56545H3.40667H3.72324V22.8082H2.63416H4.17919H5.72422L12.9243 16.4931L17.4471 20.5895L25.8751 12.8908L26.7573 12.0791C26.4216 11.8698 26.149 11.5729 25.9691 11.2205Z" fill="#F1F2F2"/>
<path d="M41.2343 8.59985V9.77613H46.5039L37.6466 18.01L31.8152 11.9493L30.9801 11.0671C30.7784 11.4114 30.4866 11.694 30.1361 11.8846L30.9683 12.7492L37.5966 19.6392L47.3273 10.6113V15.2929H48.5036V8.59985H41.2343ZM47.3302 9.87905L47.2333 9.77613H47.3302V9.882V9.87905Z" fill="#F1F2F2"/>
<path d="M29.0894 6.58533C28.6448 6.5861 28.2047 6.67453 27.7943 6.84556C27.3839 7.01659 27.0113 7.26687 26.6977 7.58207C26.3841 7.89726 26.1359 8.27119 25.967 8.68246C25.798 9.09373 25.7119 9.53428 25.7135 9.97887C25.7124 10.591 25.878 11.1918 26.1926 11.7168C26.5072 12.2419 26.9588 12.6714 27.499 12.9591C28.0392 13.2469 28.6475 13.3822 29.2588 13.3503C29.87 13.3185 30.4611 13.1208 30.9685 12.7784C31.2981 12.5609 31.5853 12.2848 31.8154 11.9638C32.2391 11.3888 32.4668 10.693 32.4653 9.97887C32.4669 9.53428 32.3808 9.09373 32.2118 8.68246C32.043 8.27119 31.7946 7.89726 31.4811 7.58207C31.1675 7.26687 30.7949 7.01659 30.3845 6.84556C29.9741 6.67453 29.5341 6.5861 29.0894 6.58533ZM30.9802 11.0816C30.7799 11.4211 30.4918 11.7003 30.1462 11.8901C29.8008 12.0799 29.4106 12.1732 29.0166 12.1602C28.6226 12.1473 28.2394 12.0286 27.9071 11.8166C27.5748 11.6046 27.3057 11.307 27.128 10.9552C26.973 10.653 26.8914 10.3185 26.8898 9.97887C26.8898 9.39393 27.1221 8.83295 27.5358 8.41934C27.9494 8.00572 28.5103 7.77336 29.0953 7.77336C29.6803 7.77336 30.2412 8.00572 30.6548 8.41934C31.0684 8.83295 31.3008 9.39393 31.3008 9.97887C31.2949 10.3686 31.1842 10.7495 30.9802 11.0816Z" fill="#F1F2F2"/>
<path d="M12.3067 21.8035H11.1305V36.8951H12.3067V21.8035Z" fill="#F1F2F2"/>
<path d="M19.2555 22.7738H18.0792V36.8949H19.2555V22.7738Z" fill="#F1F2F2"/>
<path d="M33.1533 17.907H31.977V36.8979H33.1533V17.907Z" fill="#F1F2F2"/>
<path d="M26.2045 17.907H25.0283V36.8979H26.2045V17.907Z" fill="#F1F2F2"/>
<path d="M40.1023 21.3711H38.926V36.8979H40.1023V21.3711Z" fill="#F1F2F2"/>
</svg>
