<svg width="340" height="233" viewBox="0 0 340 233" fill="none" xmlns="http://www.w3.org/2000/svg">
<path d="M55.9399 176.046H31.0662C30.3927 176.046 29.7469 175.778 29.2707 175.302C28.7944 174.825 28.5264 174.18 28.5256 173.506V91.5492C28.5264 90.8756 28.7944 90.2299 29.2707 89.7537C29.7469 89.2774 30.3927 89.0095 31.0662 89.0088H55.9399C56.6134 89.0095 57.2591 89.2774 57.7354 89.7537C58.2117 90.2299 58.4797 90.8756 58.4805 91.5492V173.506C58.4797 174.18 58.2117 174.825 57.7354 175.302C57.2591 175.778 56.6134 176.046 55.9399 176.046Z" fill="#8CD351"/>
<path d="M101.301 176.046H76.427C75.7534 176.046 75.1077 175.778 74.6314 175.302C74.1551 174.825 73.8872 174.18 73.8864 173.506V59.0267C73.8872 58.3532 74.1551 57.7075 74.6314 57.2312C75.1077 56.755 75.7534 56.4871 76.427 56.4863H101.301C101.974 56.4871 102.62 56.755 103.096 57.2312C103.572 57.7075 103.84 58.3532 103.841 59.0267V173.506C103.84 174.18 103.572 174.825 103.096 175.302C102.62 175.778 101.974 176.046 101.301 176.046Z" fill="#8CD351"/>
<path d="M146.661 176.046H121.787C121.114 176.046 120.468 175.778 119.992 175.302C119.515 174.825 119.247 174.18 119.247 173.506V91.5492C119.247 90.8756 119.515 90.2299 119.992 89.7537C120.468 89.2774 121.114 89.0095 121.787 89.0088H146.661C147.334 89.0095 147.98 89.2774 148.456 89.7537C148.933 90.2299 149.201 90.8756 149.201 91.5492V173.506C149.201 174.18 148.933 174.825 148.456 175.302C147.98 175.778 147.334 176.046 146.661 176.046Z" fill="#8CD351"/>
<path d="M192.021 176.046H167.147C166.489 176.06 165.852 175.813 165.376 175.359C164.899 174.904 164.623 174.279 164.606 173.621V46.0737C164.623 45.4156 164.899 44.7907 165.376 44.3361C165.852 43.8815 166.489 43.6342 167.147 43.6484H192.021C192.679 43.6342 193.316 43.8815 193.792 44.3361C194.268 44.7907 194.545 45.4156 194.561 46.0737V173.621C194.545 174.279 194.268 174.904 193.792 175.359C193.316 175.813 192.679 176.06 192.021 176.046Z" fill="#8CD351"/>
<path d="M237.381 176.046H212.508C211.834 176.046 211.188 175.778 210.712 175.301C210.236 174.825 209.968 174.179 209.967 173.506V23.0808C209.968 22.4073 210.236 21.7615 210.712 21.2853C211.188 20.809 211.834 20.5412 212.508 20.5404H237.381C238.055 20.5412 238.701 20.809 239.177 21.2853C239.653 21.7615 239.921 22.4073 239.922 23.0808V173.506C239.921 174.179 239.653 174.825 239.177 175.301C238.701 175.778 238.055 176.046 237.381 176.046Z" fill="#8CD351"/>
<path d="M43.5035 78.7389C46.3396 78.7389 48.6386 76.4398 48.6386 73.6037C48.6386 70.7677 46.3396 68.4686 43.5035 68.4686C40.6675 68.4686 38.3684 70.7677 38.3684 73.6037C38.3684 76.4398 40.6675 78.7389 43.5035 78.7389Z" fill="#3F3D56"/>
<path d="M88.8638 45.3602C91.6998 45.3602 93.9989 43.0611 93.9989 40.2251C93.9989 37.389 91.6998 35.09 88.8638 35.09C86.0277 35.09 83.7286 37.389 83.7286 40.2251C83.7286 43.0611 86.0277 45.3602 88.8638 45.3602Z" fill="#3F3D56"/>
<path d="M134.224 78.7389C137.06 78.7389 139.359 76.4398 139.359 73.6037C139.359 70.7677 137.06 68.4686 134.224 68.4686C131.388 68.4686 129.089 70.7677 129.089 73.6037C129.089 76.4398 131.388 78.7389 134.224 78.7389Z" fill="#3F3D56"/>
<path d="M179.584 29.0991C182.42 29.0991 184.719 26.8 184.719 23.964C184.719 21.1279 182.42 18.8289 179.584 18.8289C176.748 18.8289 174.449 21.1279 174.449 23.964C174.449 26.8 176.748 29.0991 179.584 29.0991Z" fill="#3F3D56"/>
<path d="M224.944 10.2702C227.78 10.2702 230.08 7.97116 230.08 5.13512C230.08 2.29907 227.78 0 224.944 0C222.108 0 219.809 2.29907 219.809 5.13512C219.809 7.97116 222.108 10.2702 224.944 10.2702Z" fill="#3F3D56"/>
<path d="M266.529 177H1.3476C1.24136 177 1.13947 176.958 1.06435 176.883C0.989225 176.808 0.947021 176.706 0.947021 176.6C0.947021 176.493 0.989225 176.391 1.06435 176.316C1.13947 176.241 1.24136 176.199 1.3476 176.199H266.529C266.635 176.199 266.737 176.241 266.812 176.316C266.887 176.391 266.929 176.493 266.929 176.6C266.929 176.706 266.887 176.808 266.812 176.883C266.737 176.958 266.635 177 266.529 177Z" fill="#CBCBCB"/>
<path d="M43.2302 73.9242L42.752 73.2817L88.8646 38.9512L134.078 72.6756L179.91 22.9146L179.992 22.8809L224.472 4.52295L224.778 5.26361L180.38 23.5875L134.178 73.7496L88.8642 39.9502L43.2302 73.9242Z" fill="#3F3D56"/>
<g clip-path="url(#clip0_250_393)">
<path d="M311.585 139.65C310.859 147.65 308.791 156.086 305.546 164.225C301.535 174.29 296.053 183.156 289.695 189.863L289.343 189.555C295.67 182.88 301.126 174.054 305.121 164.03C308.732 154.972 310.879 145.546 311.334 136.774L311.785 136.85C311.737 137.776 311.671 138.709 311.585 139.65Z" fill="#F2F2F2"/>
<path d="M314.478 186.113C305.547 200.32 294.713 210.472 283.97 214.697L283.753 214.298C294.421 210.103 305.192 200.003 314.082 185.861L314.478 186.113Z" fill="#F2F2F2"/>
<path d="M311.369 149.611C310.643 157.611 308.574 166.046 305.33 174.186C301.318 184.251 295.837 193.117 289.479 199.824L289.126 199.516C295.454 192.841 300.91 184.015 304.905 173.991C308.516 164.933 310.663 155.506 311.118 146.735L311.569 146.81C311.521 147.737 311.455 148.67 311.369 149.611Z" fill="#F2F2F2"/>
<path d="M317.602 196.311H311.743C311.618 196.311 311.494 196.283 311.381 196.228C311.268 196.174 311.169 196.095 311.092 195.997C311.015 195.901 310.96 195.79 310.933 195.67C310.905 195.551 310.905 195.426 310.933 195.307C311.491 192.844 311.456 190.285 310.83 187.839C310.791 187.678 310.8 187.508 310.858 187.353C310.915 187.197 311.018 187.062 311.153 186.966C314.166 184.799 316.538 184.862 318.205 187.153C318.28 187.257 318.33 187.378 318.351 187.505C318.796 190.182 318.821 192.912 318.424 195.597C318.396 195.795 318.298 195.977 318.147 196.108C317.996 196.239 317.802 196.311 317.602 196.311Z" fill="#E6E6E6"/>
<path d="M315.786 190.443H313.77C313.659 190.443 313.552 190.398 313.474 190.319C313.395 190.241 313.351 190.134 313.351 190.023C313.351 189.911 313.395 189.804 313.474 189.726C313.552 189.647 313.659 189.603 313.77 189.602H315.786C315.897 189.602 316.004 189.647 316.083 189.725C316.162 189.804 316.206 189.911 316.206 190.023C316.206 190.134 316.162 190.241 316.083 190.32C316.004 190.399 315.897 190.443 315.786 190.443Z" fill="white"/>
<path d="M315.786 191.917H313.77C313.659 191.917 313.552 191.872 313.474 191.794C313.395 191.715 313.351 191.608 313.351 191.497C313.351 191.385 313.395 191.279 313.474 191.2C313.552 191.121 313.659 191.077 313.77 191.076H315.786C315.897 191.076 316.004 191.121 316.083 191.2C316.162 191.278 316.206 191.385 316.206 191.497C316.206 191.608 316.162 191.715 316.083 191.794C316.004 191.873 315.897 191.917 315.786 191.917Z" fill="white"/>
<path d="M315.786 193.391H313.77C313.659 193.39 313.552 193.346 313.474 193.267C313.395 193.188 313.351 193.082 313.351 192.97C313.351 192.859 313.395 192.752 313.474 192.673C313.552 192.595 313.659 192.55 313.77 192.55H315.786C315.897 192.55 316.004 192.594 316.083 192.673C316.162 192.752 316.206 192.859 316.206 192.97C316.206 193.082 316.162 193.189 316.083 193.267C316.004 193.346 315.897 193.391 315.786 193.391Z" fill="white"/>
<path d="M339.774 232.146C339.774 232.175 339.769 232.203 339.758 232.23C339.747 232.257 339.731 232.281 339.71 232.301C339.69 232.322 339.666 232.338 339.639 232.349C339.613 232.36 339.584 232.365 339.555 232.365H200.219C200.161 232.365 200.105 232.342 200.064 232.301C200.023 232.26 200 232.204 200 232.146C200 232.088 200.023 232.032 200.064 231.991C200.105 231.95 200.161 231.927 200.219 231.927H339.555C339.584 231.927 339.613 231.932 339.639 231.943C339.666 231.954 339.69 231.97 339.71 231.991C339.731 232.011 339.747 232.035 339.758 232.062C339.769 232.089 339.774 232.117 339.774 232.146Z" fill="#CCCCCC"/>
<path d="M236.756 218.723L236.391 213.64C233.997 212.443 231.347 211.849 228.671 211.909C232.436 214.818 232.134 220.634 234.741 224.614C235.564 225.849 236.654 226.883 237.93 227.639C239.207 228.396 240.637 228.855 242.116 228.984L245.248 230.786C245.607 228.418 245.447 226 244.781 223.699C244.115 221.398 242.958 219.268 241.39 217.458C240.5 216.45 239.487 215.559 238.374 214.805C237.689 216.771 236.756 218.723 236.756 218.723Z" fill="#F2F2F2"/>
<path d="M303.018 219.459L303.384 214.377C305.778 213.18 308.428 212.586 311.103 212.646C307.339 215.555 307.64 221.371 305.034 225.35C304.211 226.585 303.121 227.62 301.844 228.376C300.568 229.133 299.137 229.592 297.659 229.721L294.526 231.523C294.168 229.155 294.327 226.736 294.993 224.435C295.66 222.134 296.817 220.005 298.385 218.194C299.275 217.187 300.288 216.296 301.4 215.542C302.085 217.508 303.018 219.459 303.018 219.459Z" fill="#F2F2F2"/>
<path d="M268.229 162.101C270.163 162.101 271.73 160.533 271.73 158.6C271.73 156.667 270.163 155.1 268.229 155.1C266.296 155.1 264.729 156.667 264.729 158.6C264.729 160.533 266.296 162.101 268.229 162.101Z" fill="#8CD351"/>
<path d="M270.026 157.141C269.973 157.091 269.903 157.063 269.831 157.063C269.758 157.063 269.688 157.091 269.635 157.141C268.892 157.734 268.225 158.415 267.649 159.17C267.507 158.896 267.366 158.623 267.224 158.349C267.061 158.033 266.584 158.312 266.747 158.628C266.954 159.028 267.161 159.429 267.368 159.829C267.393 159.87 267.428 159.904 267.47 159.928C267.512 159.951 267.559 159.963 267.607 159.963C267.655 159.963 267.702 159.951 267.743 159.928C267.785 159.904 267.82 159.87 267.845 159.829C268.46 158.964 269.194 158.191 270.026 157.532C270.078 157.48 270.106 157.41 270.106 157.337C270.106 157.264 270.078 157.193 270.026 157.141Z" fill="white"/>
<path d="M252.566 168.526L247.287 160.236L253.4 156.963L255.004 163.288L266.308 169.396C266.754 169.235 267.237 169.208 267.699 169.317C268.161 169.427 268.58 169.668 268.907 170.012C269.234 170.356 269.453 170.787 269.539 171.254C269.625 171.72 269.573 172.201 269.39 172.639C269.207 173.076 268.901 173.451 268.508 173.718C268.116 173.984 267.655 174.131 267.18 174.139C266.706 174.148 266.24 174.019 265.838 173.767C265.436 173.515 265.116 173.152 264.917 172.721L252.566 168.526Z" fill="#FFB8B8"/>
<path d="M243.431 150.294C241.772 152.729 247.666 161.58 247.666 161.58C247.953 160.961 250.698 167.912 251.158 167.501C252.464 166.334 254.51 163.084 255.647 162.939C256.297 162.856 254.139 158.245 254.139 158.245C254.139 158.245 253.153 155.522 251.814 152.044C251.454 151.054 250.849 150.17 250.056 149.477C249.263 148.783 248.307 148.301 247.277 148.076C247.277 148.076 245.089 147.858 243.431 150.294Z" fill="#3F3D56"/>
<path d="M243.512 229.632L246.019 229.632L247.212 219.962L243.512 219.962L243.512 229.632Z" fill="#FFB8B8"/>
<path d="M242.872 228.813L243.578 228.813L246.333 227.693L247.809 228.813H247.81C248.644 228.813 249.444 229.145 250.034 229.735C250.624 230.325 250.956 231.125 250.956 231.96V232.062L242.872 232.062L242.872 228.813Z" fill="#2F2E41"/>
<path d="M255.158 229.632L257.665 229.632L258.858 219.962L255.158 219.962L255.158 229.632Z" fill="#FFB8B8"/>
<path d="M254.518 228.813L255.224 228.813L257.979 227.693L259.456 228.813H259.456C260.29 228.813 261.09 229.145 261.68 229.735C262.27 230.325 262.602 231.125 262.602 231.96V232.062L254.519 232.062L254.518 228.813Z" fill="#2F2E41"/>
<path d="M256.244 176.767L239.938 177.175C236.841 178.857 236.794 182.498 237.809 186.82C237.809 186.82 237.466 189.389 238.151 190.074C238.836 190.76 239.179 190.76 238.836 191.958C238.494 193.157 240.304 195.116 240.084 195.335C239.864 195.555 239.35 196.754 239.35 196.754L241.063 206.517C241.063 206.517 242.262 223.473 242.604 223.816C242.947 224.158 243.289 223.816 242.947 224.672C242.604 225.529 242.262 225.186 242.604 225.529C242.908 225.856 243.194 226.199 243.461 226.556H247.602C247.602 226.556 247.914 224.843 247.914 224.672C247.914 224.501 248.256 223.473 248.256 223.302C248.256 223.131 247.954 222.828 247.954 222.828C247.849 222.48 247.778 222.122 247.743 221.76C247.743 221.418 246.715 208.23 246.715 208.23L248.77 191.102L253.737 207.887C253.737 207.887 253.737 222.617 254.08 222.959C254.422 223.302 254.422 223.131 254.251 223.816C254.08 224.501 253.395 224.33 253.909 224.843C254.422 225.357 254.594 224.501 254.422 225.357L254.251 226.214L259.389 226.287C259.389 226.287 260.074 224.843 259.732 224.33C259.389 223.816 259.41 223.956 259.828 223.115C260.246 222.274 260.417 222.103 260.246 221.932C260.074 221.76 260.074 220.849 260.074 220.849L259.218 204.462C259.218 204.462 259.047 187.163 259.047 186.649C259.034 186.385 259.083 186.121 259.189 185.878V185.181L258.533 182.71L256.244 176.767Z" fill="#2F2E41"/>
<path d="M246 143C248.798 143 251.514 140.593 251.514 137.795C251.514 134.997 249.246 132.728 246.448 132.728C243.65 132.728 241.381 134.997 241.381 137.795C241.381 140.593 243.202 143 246 143Z" fill="#FFB8B8"/>
<path d="M248.982 146.21C250.073 146.859 250.726 148.051 251.101 149.264C251.795 151.51 252.213 153.832 252.345 156.18L252.741 163.207L257.644 178.169C253.395 181.765 237.422 178.986 237.422 178.986C237.422 178.986 236.932 178.823 237.422 178.333C237.913 177.842 238.39 178.277 237.9 177.786C237.409 177.296 237.747 177.842 237.911 177.352C238.074 176.862 237.911 177.189 237.747 177.025C237.584 176.862 239.012 175.391 239.012 175.391L237.705 166.802L236.071 149.478C238.032 147.027 241.976 145.582 241.976 145.582L242.995 143.747L248.091 144.155L248.982 146.21Z" fill="#3F3D56"/>
<path d="M250.625 135.103C251.019 135.397 251.311 135.806 251.459 136.275C251.516 135.509 251.52 134.741 251.47 133.976C251.41 133.438 251.032 133.317 250.593 133.176C250.197 133.05 249.749 132.907 249.628 132.384C248.036 130.835 245.264 130.913 243.366 131.453C242.322 131.751 241.721 132.133 241.668 132.357L241.657 132.403L241.614 132.424C240.809 132.826 240.653 134.097 240.663 135.092C240.683 136.967 241.33 139.096 241.695 139.269C241.714 139.278 241.719 139.275 241.727 139.268C242.276 138.829 242.946 139.301 243.241 139.558C243.414 138.392 243.973 137.319 244.829 136.509C245.684 135.699 246.786 135.199 247.959 135.088C248.342 135.051 248.722 134.987 249.096 134.898C249.286 134.848 249.481 134.823 249.677 134.821C250.014 134.816 250.345 134.914 250.625 135.103Z" fill="#2F2E41"/>
<path d="M282.077 180.805L291.823 170.908L294.391 162.992L290.259 161.321C288.212 163.386 286.105 169.707 286.105 169.707L279.453 178.634C279.4 178.654 279.347 178.675 279.295 178.7C278.988 178.844 278.724 179.065 278.529 179.342C278.333 179.618 278.212 179.94 278.177 180.277C278.142 180.614 278.194 180.954 278.329 181.265C278.464 181.575 278.677 181.846 278.947 182.05C279.217 182.255 279.536 182.386 279.871 182.431C280.207 182.477 280.549 182.435 280.863 182.309C281.178 182.184 281.455 181.98 281.668 181.716C281.88 181.453 282.021 181.139 282.077 180.805Z" fill="#FFB8B8"/>
<path d="M289.131 162.226L294.357 163.738L294.376 163.734C296.297 163.361 297.816 160.169 298.753 157.557C299.061 156.696 299.03 155.749 298.667 154.909C298.304 154.069 297.636 153.399 296.797 153.033C296.177 152.767 295.494 152.68 294.827 152.782C294.16 152.884 293.534 153.17 293.021 153.609L290.416 155.852L289.131 162.226Z" fill="#8CD351"/>
<path d="M284.66 229.338L281.85 229.338L280.513 218.498L284.661 218.499L284.66 229.338Z" fill="#FFB8B8"/>
<path d="M285.377 228.421L284.586 228.421L281.498 227.165L279.843 228.42H279.842C278.907 228.42 278.01 228.792 277.349 229.453C276.687 230.115 276.315 231.012 276.315 231.947V232.062L285.377 232.062L285.377 228.421Z" fill="#2F2E41"/>
<path d="M297.129 229.338L294.319 229.338L292.982 218.498L297.13 218.499L297.129 229.338Z" fill="#FFB8B8"/>
<path d="M297.847 228.421L297.056 228.421L293.968 227.165L292.313 228.42H292.312C291.377 228.42 290.48 228.792 289.819 229.453C289.157 230.115 288.786 231.012 288.786 231.947V232.062L297.847 232.062L297.847 228.421Z" fill="#2F2E41"/>
<path d="M301.415 182.648C301.415 182.648 301.743 186.586 300.923 190.359C300.103 194.133 300.103 204.761 300.103 204.761L298.298 225.471L292.883 224.979L291.407 190.359L286.156 202.009L286.648 203.649L285.993 204.06C285.993 204.06 286.484 207.259 286.156 207.259C285.828 207.259 285.008 207.751 285.008 207.751L285.664 224.651L280.085 224.487L278.117 200.696L280.25 187.078L280.414 184.453L281.152 184.483L281.528 183.386L282.218 181.499L301.415 182.648Z" fill="#2F2E41"/>
<path d="M301.698 183.475L301.727 183.434C303.289 181.247 300.94 175.993 300.586 175.232L302.078 174.748L301.742 171.891L301.583 170.618L302.723 169.478L302.726 169.449L303.383 163.707L304.337 159.892C304.697 158.45 304.666 156.939 304.248 155.513C303.831 154.087 303.041 152.797 301.96 151.777L299.755 149.697L297.074 145.731H292.751L291.269 148.531C289.832 148.863 288.557 149.689 287.666 150.864C286.775 152.04 286.325 153.49 286.394 154.964L286.73 162.306L285.415 171.449L285.414 173.103L283.934 174.748L284.257 176.364L283.131 176.847L282.634 179.167C282.428 179.439 281.069 181.25 281.069 181.745C281.069 181.82 281.124 181.892 281.242 181.971C282.168 182.598 287.285 183.876 289.549 182.97C291.962 182.006 301.552 183.453 301.648 183.467L301.698 183.475Z" fill="#8CD351"/>
<path d="M294.355 144.451C297.517 144.451 300.08 141.887 300.08 138.726C300.08 135.564 297.517 133 294.355 133C291.194 133 288.63 135.564 288.63 138.726C288.63 141.887 291.194 144.451 294.355 144.451Z" fill="#FFB8B8"/>
<path d="M293.806 144.544C294.693 144.535 295.577 144.45 296.449 144.29C297.313 144.091 299.218 142.618 299.737 141.748C300.123 141.101 300.354 140.101 300.481 139.376C300.651 138.416 300.619 137.432 300.384 136.486C300.15 135.539 299.72 134.653 299.121 133.884C298.891 133.562 298.577 133.308 298.214 133.149C298.182 133.137 298.149 133.127 298.115 133.119C297.589 132.994 297.112 132.716 296.745 132.319C296.673 132.238 296.596 132.163 296.514 132.093C296.103 131.764 295.619 131.536 295.102 131.43C294.268 131.229 293.075 131.48 291.555 132.176C290.792 132.526 289.945 132.429 289.292 132.305C289.255 132.298 289.218 132.302 289.183 132.315C289.148 132.328 289.117 132.35 289.093 132.378C288.824 132.645 288.463 132.799 288.084 132.811C287.853 132.827 287.617 133.155 287.334 133.582C287.27 133.678 287.194 133.791 287.14 133.86L287.129 133.731L287.002 133.879C286.801 134.112 286.663 134.392 286.599 134.692C286.536 134.993 286.55 135.305 286.64 135.599C286.729 135.892 286.892 136.159 287.112 136.373C287.333 136.587 287.604 136.742 287.9 136.823C288.135 136.879 288.375 136.911 288.617 136.919C288.763 136.928 288.915 136.938 289.06 136.959C289.528 137.042 289.965 137.245 290.331 137.548C290.696 137.851 290.977 138.243 291.145 138.687C291.185 138.79 291.248 138.882 291.329 138.956C291.41 139.031 291.507 139.085 291.613 139.116C291.718 139.147 291.829 139.154 291.938 139.135C292.046 139.116 292.149 139.072 292.238 139.008C292.385 138.886 292.56 138.802 292.748 138.763C292.935 138.724 293.129 138.731 293.313 138.783C293.473 138.867 293.6 139.003 293.671 139.169C293.758 139.353 293.897 139.508 294.072 139.613C294.668 139.901 294.743 141.243 294.561 142.369C294.385 143.454 294.003 144.245 293.631 144.293C293.345 144.33 293.313 144.351 293.293 144.403L293.276 144.449L293.309 144.49C293.469 144.544 293.639 144.562 293.806 144.544Z" fill="#2F2E41"/>
<path d="M289.057 162.839L286.305 159.332C283.502 160.104 278.528 164.537 278.528 164.537L268.314 168.97C267.973 168.913 267.623 168.946 267.299 169.067C266.975 169.188 266.689 169.392 266.469 169.659C266.249 169.926 266.104 170.246 266.047 170.587C265.99 170.928 266.024 171.278 266.145 171.602C266.267 171.925 266.471 172.211 266.738 172.431C267.005 172.65 267.325 172.796 267.666 172.852C268.007 172.909 268.357 172.874 268.681 172.752C269.004 172.631 269.29 172.426 269.509 172.159L282.89 168.426L289.057 162.839Z" fill="#FFB8B8"/>
<path d="M288.397 163.64L292.739 158.8L292.98 155.37C293.025 154.697 292.88 154.024 292.563 153.428C292.246 152.833 291.768 152.338 291.184 151.999C290.389 151.545 289.452 151.411 288.562 151.622C287.672 151.833 286.895 152.374 286.388 153.136C284.854 155.448 283.203 158.575 284.053 160.337L284.061 160.355L288.397 163.64Z" fill="#8CD351"/>
<path d="M248.377 181.834L237.092 176.054C236.289 175.643 236.023 174.552 236.499 173.623L243.857 159.256C244.333 158.327 245.373 157.905 246.176 158.316L257.461 164.096C258.264 164.507 258.53 165.597 258.054 166.527L250.696 180.894C250.22 181.823 249.18 182.245 248.377 181.834Z" fill="#E6E6E6"/>
<path d="M246.449 179.177L238.781 175.25C238.03 174.865 237.781 173.844 238.226 172.973L244.339 161.037C244.785 160.167 245.759 159.772 246.511 160.157L255.772 164.9C256.523 165.285 256.773 166.306 256.327 167.177L253.006 173.661C251.021 177.537 249.798 180.892 246.449 179.177Z" fill="white"/>
<path d="M250.239 172.658L243.448 169.18C243.365 169.121 243.306 169.034 243.282 168.935C243.258 168.836 243.27 168.732 243.317 168.641C243.363 168.55 243.441 168.479 243.535 168.441C243.63 168.402 243.735 168.399 243.831 168.432L250.623 171.91C250.706 171.97 250.765 172.057 250.789 172.156C250.813 172.255 250.801 172.359 250.754 172.45C250.708 172.541 250.63 172.612 250.536 172.65C250.441 172.688 250.336 172.691 250.239 172.658Z" fill="#8CD351"/>
<path d="M244.241 171.452L242.692 170.658C242.609 170.599 242.55 170.512 242.525 170.413C242.501 170.314 242.514 170.209 242.56 170.118C242.606 170.028 242.684 169.957 242.779 169.918C242.873 169.88 242.978 169.877 243.075 169.91L244.625 170.704C244.708 170.763 244.767 170.85 244.791 170.949C244.815 171.048 244.803 171.152 244.756 171.243C244.71 171.334 244.632 171.405 244.538 171.443C244.443 171.482 244.338 171.485 244.241 171.452Z" fill="#8CD351"/>
<path d="M246.229 174.336L241.934 172.136C241.851 172.077 241.792 171.99 241.768 171.891C241.744 171.792 241.756 171.687 241.802 171.597C241.849 171.506 241.926 171.435 242.021 171.397C242.115 171.358 242.221 171.355 242.317 171.388L246.612 173.588C246.695 173.647 246.754 173.734 246.778 173.833C246.802 173.932 246.79 174.037 246.743 174.127C246.697 174.218 246.619 174.289 246.525 174.327C246.43 174.366 246.325 174.369 246.229 174.336V174.336Z" fill="#8CD351"/>
<path d="M252.928 167.411L246.136 163.933C246.053 163.874 245.994 163.787 245.97 163.688C245.946 163.589 245.958 163.484 246.005 163.393C246.051 163.303 246.129 163.232 246.223 163.193C246.318 163.155 246.423 163.152 246.52 163.185L253.311 166.663C253.394 166.722 253.453 166.809 253.477 166.908C253.501 167.007 253.489 167.112 253.442 167.203C253.396 167.293 253.318 167.364 253.224 167.403C253.129 167.441 253.024 167.444 252.928 167.411Z" fill="#8CD351"/>
<path d="M246.928 166.205L245.378 165.411C245.295 165.352 245.236 165.265 245.212 165.166C245.188 165.067 245.2 164.962 245.246 164.871C245.293 164.781 245.37 164.71 245.465 164.671C245.559 164.633 245.664 164.63 245.761 164.663L247.311 165.457C247.394 165.516 247.453 165.603 247.477 165.702C247.501 165.801 247.489 165.905 247.442 165.996C247.396 166.087 247.318 166.158 247.224 166.196C247.129 166.234 247.024 166.237 246.928 166.205Z" fill="#8CD351"/>
<path d="M248.916 169.089L244.622 166.889C244.539 166.83 244.48 166.743 244.455 166.644C244.431 166.545 244.444 166.44 244.49 166.349C244.537 166.259 244.614 166.188 244.709 166.149C244.803 166.111 244.908 166.108 245.005 166.141L249.3 168.34C249.383 168.4 249.442 168.487 249.466 168.586C249.49 168.685 249.478 168.789 249.431 168.88C249.385 168.971 249.307 169.042 249.213 169.08C249.118 169.118 249.013 169.121 248.916 169.089L248.916 169.089Z" fill="#8CD351"/>
<path d="M239.024 169.325L236.475 159.834L243.288 158.544L242.922 165.059L251.873 174.276C252.347 174.257 252.816 174.376 253.224 174.618C253.631 174.861 253.959 175.217 254.168 175.643C254.377 176.069 254.457 176.547 254.399 177.017C254.341 177.488 254.147 177.932 253.841 178.294C253.535 178.657 253.131 178.923 252.676 179.059C252.222 179.196 251.738 179.197 251.283 179.063C250.828 178.929 250.422 178.666 250.114 178.305C249.806 177.944 249.61 177.502 249.549 177.031L239.024 169.325Z" fill="#FFB8B8"/>
<path d="M235.778 149.192C233.466 151.018 236.434 161.23 236.434 161.23C236.894 160.726 237.428 168.179 237.989 167.925C239.586 167.204 242.512 164.717 243.64 164.919C244.285 165.035 243.609 159.989 243.609 159.989C243.609 159.989 243.485 157.096 243.251 153.376C243.205 152.324 242.892 151.3 242.344 150.4C241.795 149.5 241.028 148.754 240.113 148.231C240.113 148.231 238.091 147.367 235.778 149.192Z" fill="#3F3D56"/>
<path d="M274.257 190.392L268.099 187.484C267.967 187.422 267.851 187.331 267.76 187.218C267.668 187.105 267.604 186.973 267.57 186.831C267.537 186.693 267.535 186.548 267.566 186.409C267.596 186.27 267.658 186.139 267.746 186.027C269.53 183.747 270.755 181.081 271.322 178.242C271.365 178.025 271.482 177.829 271.653 177.689C271.824 177.548 272.039 177.471 272.261 177.47C275.401 177.481 277.749 178.628 279.237 180.879C279.316 180.996 279.368 181.129 279.39 181.268C279.412 181.407 279.403 181.549 279.364 181.685C278.502 184.655 277.191 187.477 275.475 190.05C275.348 190.245 275.154 190.387 274.93 190.45C274.707 190.512 274.467 190.492 274.257 190.392Z" fill="#E6E6E6"/>
<path d="M276.068 186.314L271.359 184.09C271.242 184.035 271.152 183.935 271.108 183.813C271.065 183.691 271.071 183.557 271.126 183.44C271.182 183.323 271.281 183.232 271.403 183.189C271.525 183.145 271.659 183.151 271.777 183.207L276.485 185.43C276.543 185.458 276.595 185.496 276.639 185.544C276.682 185.591 276.715 185.647 276.737 185.707C276.758 185.767 276.768 185.831 276.765 185.896C276.762 185.96 276.746 186.022 276.718 186.08C276.691 186.138 276.653 186.191 276.605 186.234C276.558 186.277 276.502 186.31 276.442 186.332C276.381 186.353 276.317 186.363 276.253 186.36C276.189 186.357 276.126 186.341 276.068 186.314H276.068Z" fill="white"/>
<path d="M276.8 184.765L272.091 182.541C271.974 182.486 271.884 182.386 271.84 182.264C271.796 182.142 271.803 182.008 271.858 181.891C271.913 181.774 272.013 181.683 272.135 181.64C272.257 181.596 272.391 181.602 272.508 181.658L277.217 183.881C277.334 183.937 277.425 184.036 277.468 184.158C277.512 184.28 277.506 184.414 277.45 184.532C277.395 184.649 277.295 184.739 277.173 184.783C277.051 184.826 276.917 184.82 276.8 184.765V184.765Z" fill="white"/>
<path d="M316.091 186.817C316.59 186.067 316.295 184.993 315.431 184.418C314.567 183.843 313.463 183.986 312.963 184.736C312.464 185.486 312.76 186.561 313.623 187.135C314.487 187.71 315.592 187.567 316.091 186.817Z" fill="#CCCCCC"/>
</g>
<defs>
<clipPath id="clip0_250_393">
<rect width="139.774" height="113.365" fill="white" transform="translate(200 119)"/>
</clipPath>
</defs>
</svg>
