<svg width="20" height="24" viewBox="0 0 20 24" fill="none" xmlns="http://www.w3.org/2000/svg">
<path d="M20 3.04761H0V5.5238H20V3.04761Z" fill="#EDEFF1"/>
<path d="M1.2381 5.5238L2.19048 23.4286H17.8095L18.7619 5.5238H1.2381Z" fill="#EDEFF1"/>
<path d="M18.7011 6.66666L18.7619 5.5238H1.2381L1.29891 6.66666H18.7011Z" fill="#D3D3D3"/>
<path d="M10 21.2857C9.36881 21.2857 8.85715 20.7741 8.85715 20.1429V10.0476C8.85715 9.41645 9.36881 8.90479 10 8.90479C10.6312 8.90479 11.1429 9.41645 11.1429 10.0476V20.1429C11.1429 20.7741 10.6312 21.2857 10 21.2857Z" fill="#D3D3D3"/>
<path d="M14.4762 21.2857C13.845 21.2857 13.3333 20.7741 13.3333 20.1429V10.0476C13.3333 9.41645 13.845 8.90479 14.4762 8.90479C15.1074 8.90479 15.6191 9.41645 15.6191 10.0476V20.1429C15.6191 20.7741 15.1074 21.2857 14.4762 21.2857Z" fill="#D3D3D3"/>
<path d="M5.52381 21.2857C6.155 21.2857 6.66667 20.7741 6.66667 20.1429V10.0476C6.66667 9.41645 6.155 8.90479 5.52381 8.90479C4.89262 8.90479 4.38095 9.41645 4.38095 10.0476V20.1429C4.38095 20.7741 4.89262 21.2857 5.52381 21.2857Z" fill="#D3D3D3"/>
<path d="M5.80951 0V3.04762H7.33332V1.52381H12.6667V3.04762H14.1905V0H5.80951Z" fill="#D3D3D3"/>
</svg>
